<svg width="254" height="144" viewBox="0 0 254 144" fill="none" xmlns="http://www.w3.org/2000/svg">
<path d="M-408.926 309.517C-408.964 310.641 -409.216 311.847 -409.664 313.048C-410.468 314.44 -410.361 314.254 -403.77 312.246C-391.425 308.386 -380.167 309.984 -371.957 316.76C-354.296 328.564 -344.898 348.586 -338.563 388.485C-333.53 418.85 -328.227 430.199 -318.287 430.867C-312.978 431.211 -306.996 427.738 -290.976 415.094C-278.815 405.002 -266.109 397.28 -253.506 392.322C-238.9 387.01 -224.101 377.178 -210.573 363.798C-207.291 360.498 -197.861 349.862 -189.304 340.207C-161.646 307.936 -155.35 301.799 -142.559 294.217C-129.768 286.636 -119.632 286.303 -99.3245 296.172C-79.0167 306.042 -72.1592 307.28 -62.2221 304.111C-56.9201 302.451 -51.4847 298.928 -46.5774 293.971C-39.5207 287.412 -33.2097 279.299 -28.1847 270.328C-16.4208 251.145 -10.2723 236.388 4.45187 192.073C22.3252 138.196 23.9935 133.717 30.1493 121.067C33.8003 112.445 39.3551 104.512 45.8974 98.5748C52.4398 92.638 59.579 89.0525 66.1373 88.4101C89.0215 82.8211 99.456 77.4659 112.722 65.087C125.494 52.2188 137.072 37.2003 146.837 20.8353C158.685 1.49797 169.367 -18.5576 178.733 -39.0466L190.253 -62.5764L191.753 -65.1739L188.712 -66.9292C186.991 -67.9228 185.442 -68.8171 184.846 -68.0484C182.291 -63.6366 179.977 -59.0961 177.928 -54.4777C170.701 -38.7541 162.67 -23.293 153.906 -8.2331C143.12 11.7615 129.692 30.1819 114.561 45.7397C100.862 58.7348 91.7247 62.2411 64.4732 65.0612C49.5833 66.6072 41.0151 72.1742 31.2598 86.9511C24.0409 97.9973 17.0617 116.975 7.03937 152.749C-0.0301499 181.418 -9.87837 210.319 -22.2631 238.742C-37.7428 271.117 -55.5414 286.446 -73.7313 283.241C-81.178 280.959 -88.2082 277.81 -94.7581 273.823C-112.45 264.722 -117.636 262.841 -126.708 262.922C-133.437 262.772 -140.868 265.153 -148.2 269.809C-162.491 278.133 -172.525 289.286 -192.988 319.032C-220.356 359.016 -230.588 369.188 -257.015 382.503C-267.473 387.452 -277.918 393.885 -288.113 401.656C-301.348 411.332 -306.389 414.234 -311.209 415.163C-321.914 417.145 -327.765 408.202 -333.72 380.891C-340.733 348.393 -347.244 332.512 -359.152 318.958C-367.141 311.076 -376.728 305.541 -387.549 302.563C-393.865 301.69 -400.952 303.083 -408.168 306.614C-408.505 307.726 -408.7 308.826 -408.746 309.868L-408.926 309.517Z" fill="#474747"/>
<path d="M-392.495 282.512C-382.877 282.916 -374.319 286.134 -367.385 291.956C-349.332 306.27 -335.626 326.769 -327.122 352.175C-319.854 370.422 -317.892 373.773 -312.043 377.273C-304.307 381.74 -298.287 379.915 -278.459 368.07C-248.37 349.7 -239.947 341.992 -225.234 319.552C-215.754 304.127 -207.051 288.212 -199.212 271.967C-192.063 256.953 -182.699 242.91 -171.859 230.943C-157.505 216.8 -141.713 212.606 -121.242 217.646C-109.744 220.689 -98.8955 225.139 -88.809 230.949C-72.2834 239.381 -68.0822 240.574 -60.0154 239.439C-49.0436 237.639 -38.2485 226.617 -29.156 207.957C-20.0634 189.297 -14.8209 173.467 -4.26352 133.345C6.29386 93.2231 9.78491 82.5443 17.8236 67.9591C21.5657 59.8268 26.9371 52.4125 33.1683 46.7783C39.3995 41.1441 46.1709 37.5791 52.5128 36.5935C58.8159 35.8601 65.0048 35.5662 71.0533 35.7128C78.6516 35.7861 86.914 35.5031 89.6589 35.1159C96.1184 34.1588 102.921 31.4029 109.605 27.0358C122.045 16.85 133.516 3.90837 143.135 -10.7919C153.411 -26.5929 162.873 -42.9825 171.42 -59.7821L178.15 -73.0273L172.305 -76.4019L158.643 -52.7387C152.764 -41.7484 146.134 -31.1527 138.872 -21.1409C129.547 -7.46681 118.089 3.85461 105.963 11.3759C96.7395 16.3418 87.5829 18.5267 79.3789 17.719C69.3423 17.2683 58.8528 18.232 48.0724 20.5957C43.2926 21.9147 38.3745 24.4777 33.6403 28.1163C28.9061 31.7548 24.4627 36.3868 20.6013 41.7091C15.3455 48.6836 10.8851 56.4092 7.47293 64.4482C0.839248 78.9818 -2.49172 89.3831 -15.1938 134.676C-23.7522 164.983 -28.959 178.369 -38.0551 193.329C-39.9043 197.057 -42.2633 200.538 -44.9681 203.532C-47.6728 206.525 -50.6581 208.958 -53.716 210.662C-61.6231 215.094 -71.261 214.583 -85.1073 209.053C-101.275 202.417 -118.292 197.492 -136.041 194.313C-158.907 191.834 -174.887 202.573 -191.858 231.967C-195.113 237.606 -200.792 248.501 -204.599 256.286L-216.645 281.252C-223.539 295.685 -231.608 309.66 -240.66 322.847C-252.901 338.476 -267.357 350.742 -282.149 358.051C-290.421 363.826 -298.94 366.219 -306.133 364.787C-312.877 363.234 -316.62 358.732 -326.486 338.369C-336.615 316.102 -350.409 297.657 -367.363 283.711C-373.117 279.072 -379.859 276.012 -387.34 274.642C-389.486 274.389 -389.597 274.448 -391.732 278.146C-393.866 281.843 -393.867 281.843 -392.458 281.917L-392.495 282.512Z" fill="#474747"/>
<path d="M-366.531 237.145C-365.9 237.509 -363.62 240.184 -361.066 242.647C-358.512 245.109 -354.011 250.426 -350.902 254.444C-347.792 258.463 -341.853 266.585 -337.505 272.431C-330.282 283.025 -321.454 291.652 -311.253 298.086C-301.446 303.748 -294.795 303.883 -286.498 298.915C-281.353 295.806 -276.413 291.306 -272.14 285.835C-266.593 279.106 -261.726 271.574 -257.782 263.615C-246.55 244.161 -244.381 239.608 -227.548 198.93C-210.715 158.252 -204.794 145.613 -197.371 134.212C-183.227 112.362 -171.62 105.106 -156.305 108.513C-153.866 109.056 -145.925 112.653 -137.575 116.733C-127.413 123.274 -115.625 126.948 -102.709 127.599C-96.8147 128.384 -90.2061 127.051 -83.488 123.722C-76.7699 120.393 -70.1571 115.174 -64.2554 108.544C-55.3252 98.5068 -52.3641 94.0403 -31.6077 58.2216C-23.808 44.0499 -15.4061 30.2055 -6.46092 16.7852C6.50859 -1.58701 21.9142 -17.1444 38.2872 -28.4038C42.3076 -31.394 56.6892 -40.013 70.3106 -47.7123C101.872 -65.5583 116.425 -75.9311 133.144 -92.8357L137.08 -96.7393L128.936 -101.441L123.543 -97.2667C107.695 -85.0478 87.0807 -70.269 72.0075 -60.3199C53.9662 -49.1644 36.2224 -35.6426 19.1652 -20.0511C0.214616 -2.45894 -10.0103 11.2775 -34.8935 52.1249C-43.284 66.7316 -52.6828 80.7003 -62.9071 93.7587C-69.3394 101.629 -76.785 107.819 -84.3899 111.621C-91.9949 115.423 -99.4514 116.682 -105.905 115.254C-117.401 113.51 -127.816 109.205 -136.773 102.497C-154.323 92.3647 -158.199 90.8677 -165.779 91.6792C-171.212 92.6992 -176.932 95.5286 -182.371 99.8868C-192.497 109.649 -201.231 121.971 -207.531 135.387C-216.011 152.228 -223.548 169.404 -230.063 186.732C-247.755 230.619 -249.551 234.524 -260.997 254.349C-265.086 262.815 -270.288 270.788 -276.276 277.766C-279.922 282.33 -284.118 286.051 -288.466 288.576C-292.814 291.102 -297.171 292.349 -301.126 292.199C-305.784 291.635 -309.973 289.927 -313.505 287.152C-324.688 280.695 -329.059 275.948 -344.204 254.235C-349.779 245.869 -356.092 238.383 -363.088 231.845C-364.407 231.083 -364.522 231.017 -365.912 233.426C-367.303 235.834 -367.41 236.019 -366.427 236.834L-366.531 237.145Z" fill="#474747"/>
<path d="M-343.337 202.597C-339.528 207.387 -334.004 214.769 -328.751 222.488C-323.949 230.824 -317.573 237.343 -309.906 241.755C-307.207 243.437 -303.845 243.886 -300.181 243.053C-297.212 242.5 -294.109 241.157 -291.071 239.11C-288.033 237.062 -285.126 234.356 -282.537 231.164C-277.889 225.539 -273.779 219.272 -270.393 212.646C-260.46 195.441 -258.779 191.602 -241.522 149.396C-234.621 130.554 -226.11 111.943 -216.177 93.9777C-209.81 81.7327 -202.088 70.196 -193.372 59.9085C-168.734 30.4747 -149.384 28.0796 -122.929 51.2471C-115.127 58.6723 -105.909 63.9943 -95.5779 67.038C-90.3181 67.8449 -84.3792 66.6839 -78.3424 63.669C-67.2681 57.7297 -58.8984 48.1324 -33.8712 13.1264C-23.5648 -1.95836 -12.6344 -16.4644 -1.16853 -30.2743C10.7158 -44.5024 45.1113 -87.7896 51.4264 -96.4766C54.0173 -100.037 59.2981 -107.595 63.0639 -113.19C66.8761 -119.533 71.4505 -125.292 76.4968 -130.101C77.4362 -130.669 76.5108 -131.449 71.0062 -134.627C68.877 -136.447 66.2804 -137.527 63.3623 -137.808C59.3357 -131.952 55.5376 -125.905 51.9935 -119.705C33.1615 -89.1561 12.9924 -59.5781 -8.34823 -31.2132C-14.5723 -23.2136 -24.7875 -9.62493 -31.1026 -0.937932C-39.7502 11.613 -48.9785 23.6105 -58.6927 34.9314C-72.1235 50.1166 -81.1432 55.1458 -92.5565 53.8595C-101.748 51.1698 -109.943 46.4383 -116.868 39.8232C-134.166 25.0263 -145.51 20.5736 -159.445 23.258C-171.588 25.62 -182.946 35.0956 -200.435 57.3107C-206.273 65.0138 -211.54 73.2915 -216.104 81.9337C-227.405 101.147 -236.887 121.318 -244.237 141.785C-259.344 178.942 -266.22 193.102 -274.017 206.607C-286.831 227.081 -297.534 234.098 -308.607 229.309C-316.363 224.697 -322.85 218.034 -327.804 209.592C-332.62 203.235 -337.416 197.506 -338.395 196.817C-339.374 196.129 -340.173 195.791 -342 198.559C-343.828 201.327 -343.762 201.612 -342.768 202.803L-343.337 202.597Z" fill="#474747"/>
<path d="M-293.336 115.396C-294.569 117.531 -295.248 119.491 -295.021 119.622C-293.756 119.482 -292.456 119.198 -291.134 118.772C-287.1 117.36 -282.987 114.751 -279.158 111.175C-275.33 107.599 -271.904 103.168 -269.183 98.272C-261.434 85.7864 -254.224 72.948 -247.608 59.8557C-218.011 4.40915 -194.027 -31.379 -174.966 -48.9668C-167.398 -55.5562 -159.33 -59.9374 -151.655 -61.6257C-144.115 -62.9501 -137.217 -61.8962 -131.539 -58.5525C-112.923 -50.5278 -104.397 -48.8232 -91.9387 -50.7901C-80.4809 -51.8664 -67.8565 -58.8018 -56.6745 -70.1631C-47.7972 -78.1513 -39.8711 -88.3147 -33.7109 -99.6085C-28.6274 -108.42 -24.1651 -117.553 -20.408 -126.834C-15.0307 -140.434 -8.63134 -153.842 -1.32624 -166.813L2.8009 -173.962L-5.29463 -178.636C-7.86974 -180.783 -10.9426 -182.138 -14.3792 -182.643C-18.992 -175.95 -23.3399 -169.031 -27.392 -161.934C-48.6468 -126.427 -58.483 -112.921 -74.0923 -98.0434C-80.4166 -91.7009 -87.1802 -86.5007 -94.0451 -82.7031C-105.441 -76.0384 -112.088 -76.1623 -125.239 -82.1462C-130.396 -85.1678 -136.251 -86.9216 -142.615 -87.3509C-148.563 -87.1429 -155.031 -84.9233 -161.441 -80.8909C-174.798 -73.0095 -187.462 -60.2927 -197.365 -44.8173C-215.064 -17.0865 -231.562 11.4892 -246.728 40.6827C-264.09 73.2385 -271.511 85.0455 -279.537 92.5416C-282.494 95.5591 -285.033 99.2777 -286.872 103.284C-289.445 107.74 -292.5 113.032 -293.732 115.167L-293.336 115.396Z" fill="#474747"/>
<path d="M-479.759 443.033L-484.822 452.462L-481.397 448.51C-473.513 438.805 -465.962 428.682 -458.793 418.205C-456.247 414.289 -453.497 410.543 -450.578 407.014C-451.818 409.281 -453.226 411.454 -454.772 413.486C-463.923 427.115 -473.624 440.255 -483.8 452.805C-489.226 459.43 -492.293 464.082 -490.748 463.122C-483.501 455.302 -476.632 446.855 -470.242 437.904L-454.163 415.072C-443.662 398.724 -431.568 383.765 -418.422 370.86C-412.724 365.281 -406.497 361.243 -400.386 359.163C-393.853 356.734 -387.788 357.173 -383.263 360.402C-377.076 363.68 -372.655 369.799 -370.549 377.995C-365.852 390.588 -364.596 400.825 -362.915 440.827C-361.568 475.202 -358.254 486.627 -348.77 491.855C-343.796 494.727 -333.084 495.848 -333.093 493.619C-334.51 492.999 -336.091 492.711 -337.783 492.764C-341.562 492.626 -344.985 491.529 -347.883 489.527C-351.009 488.013 -353.362 485.204 -354.698 481.392C-358.778 472.614 -360.683 459.409 -361.582 430.727C-363.229 384.197 -369.231 363.563 -383.095 356.547C-387.965 353.708 -394.252 353.651 -400.917 356.386C-412.264 360.458 -424.514 372.036 -441.554 394.684C-443.694 397.641 -445.96 400.463 -448.331 403.123C-442.11 394.185 -435.524 385.602 -428.627 377.444C-423.685 371.229 -418.149 365.882 -412.339 361.71C-406.529 357.539 -400.559 354.626 -394.773 353.139C-389.519 352.163 -384.729 352.969 -380.878 355.48C-368.185 362.808 -362.349 381.617 -360.383 421.785C-360.072 435.067 -359.11 447.993 -357.504 460.503C-356.71 472.622 -351.748 481.816 -343.654 486.163C-337.776 487.881 -331.199 487.951 -324.257 486.369C-314.257 483.018 -304.059 475.962 -295.061 466.169C-283.816 454.524 -271.361 445.916 -259.033 441.267C-251.736 439.19 -244.619 438.16 -237.821 438.197C-214.7 437.331 -189.272 426.817 -165.019 408.094C-154.68 399.98 -144.125 392.882 -133.491 386.893C-122.474 382.195 -111.777 380.628 -102.263 382.319C-75.96 384.165 -60.545 377.007 -39.6633 353.119C-21.2826 332.11 -7.22854 309.22 11.8308 269.21C34.3832 221.83 45.8606 204.987 65.2263 190.723C72.2681 185.524 90.8351 172.775 91.1782 172.973C91.5212 173.171 91.178 172.973 79.7154 182.66C69.8215 190.396 60.2232 199.228 51.093 208.997C40.3903 221.592 30.1322 239.756 13.465 275.095C5.71099 292.671 -3.21675 309.904 -13.1838 326.533C-35.4929 363.061 -56.657 386.91 -75.213 396.207C-84.6519 400.374 -93.9773 402.971 -102.921 403.926C-108.712 404.85 -114.603 406.234 -120.56 408.07C-130.236 411.624 -140.308 418.902 -159.41 436.407C-165.594 442.101 -173.652 449.059 -177.385 452.092C-190.37 462.006 -203.862 468.709 -216.828 471.686C-225.792 472.522 -234.481 472.38 -242.808 471.262C-246.834 470.887 -251.003 470.915 -255.283 471.348C-265.853 473.15 -276.646 480.753 -296.803 500.613C-304.937 509.351 -313.811 516.499 -322.884 521.623C-334.846 527.663 -346.674 530.616 -357.534 530.274C-366.723 528.551 -373.62 522.068 -376.955 512.021C-380.607 502.501 -381.795 492.675 -382.485 465.349C-383.332 430.769 -384.094 422.053 -387.253 412.077C-388.755 406.272 -391.937 401.982 -396.383 399.765C-404.576 396.394 -414.499 403.017 -429.46 421.8C-440.968 436.837 -451.802 452.6 -461.856 468.933C-472.42 485.872 -483.718 502.263 -495.657 517.971C-501.575 525.053 -501.526 524.835 -498.438 526.618C-496.38 527.806 -495.694 528.202 -494.666 526.819C-484.419 512.874 -474.597 498.505 -465.242 483.776C-434.941 438.028 -424.211 424.46 -412.999 417.717C-401.787 410.973 -395.188 417.501 -392.266 436.604C-391.641 440.671 -390.809 455.603 -390.506 469.735C-389.743 499.574 -388.385 511.351 -383.828 522.999C-381.325 531.348 -376.875 537.897 -370.845 542.106C-368.119 544.392 -364.794 545.724 -361.062 546.024C-347.882 547.26 -332.894 542.601 -318.231 532.709C-311.631 527.394 -305.154 521.644 -298.839 515.495C-278.446 496.018 -270.859 490.27 -261.607 487.583C-252.58 485.427 -244.041 485.531 -236.474 487.889C-229.48 489.975 -221.718 490.28 -213.516 488.792C-197.247 484.518 -180.329 473.745 -165.293 458.085C-142.281 435.92 -135.533 430.306 -125.676 425.25C-116.23 420.869 -106.865 417.969 -97.8265 416.625C-85.1477 414.606 -71.6061 407.42 -59.1412 396.098C-45.6195 382.725 -33.123 367.369 -22.1436 350.635C-9.17865 330.6 2.61346 309.733 13.0666 288.328C18.9895 276.052 25.4514 263.978 32.4082 252.187C49.898 221.894 49.9516 221.801 93.967 187.553C107.715 175.565 121.156 162.694 134.203 149.023C147.201 135.181 158.744 119.054 168.11 101.652C171.105 96.4638 178.141 81.5041 184.225 68.5888C201.516 31.5104 208.305 19.6193 224.233 -0.706144C231.762 -11.7387 240.731 -21.2399 250.343 -28.3691L253.171 -29.7014L244.594 -34.653C234.246 -40.6278 235.413 -41.0654 225.961 -27.9947C208.42 -2.62046 192.454 24.0593 178.331 51.5981C170.364 67.5365 161.407 83.0494 151.588 97.9182C138.251 115.624 123.343 131.346 107.537 144.374C96.2068 153.421 84.7279 161.844 73.1495 169.605C66.1597 174.264 59.2649 179.538 52.5351 185.372C41.8655 196.602 32.6551 210.103 25.7534 224.629C19.7464 236.354 18.2101 239.543 6.00983 266.22C-10.5781 302.346 -22.9055 322.773 -39.7628 342.068C-45.4755 349.102 -51.8755 355.074 -58.5612 359.61C-65.2469 364.146 -72.0742 367.148 -78.6142 368.428C-87.4202 369.775 -95.8096 369.505 -103.537 367.625C-110.56 365.78 -118.241 365.509 -126.324 366.821C-137.338 371.052 -148.462 377.696 -159.135 386.416C-169.661 394.733 -180.381 402.174 -191.194 408.669C-208.779 419.895 -226.612 426.512 -243.291 427.998C-263.771 431.12 -274.166 436.976 -296.269 457.566C-303.839 465.767 -312.265 472.087 -320.741 475.922C-327.569 478.515 -333.973 478.333 -338.968 475.405C-342.308 474.353 -344.973 472.006 -346.699 468.594C-351.489 460.517 -353.424 450.136 -355.329 421.615C-355.566 401.823 -358.436 383.506 -363.838 367.294C-374.067 340.514 -395.46 337.426 -418.99 359.168C-429.442 368.82 -438.453 379.675 -459.127 408.748C-466.85 419.338 -473.74 430.695 -479.606 442.503L-479.759 443.033Z" fill="#474747"/>
<path d="M-474.515 539.58C-472.741 540.916 -470.825 542.022 -468.781 542.89L-463.507 545.935L-458.903 541.669C-445.904 529.615 -439.545 533.165 -429.763 557.399L-425.858 567.186L-417.143 572.218L-422.966 554.764C-425.786 543.436 -429.923 533.175 -435.288 524.203C-436.394 522.639 -437.861 521.531 -439.599 520.948C-441.337 520.364 -443.309 520.318 -445.392 520.812C-447.476 521.305 -449.627 522.329 -451.712 523.818C-453.798 525.307 -455.774 527.231 -457.517 529.47C-461.825 534.151 -461.313 532.867 -456.699 527.391C-443.862 512.571 -435.646 511.847 -429.196 525.169C-427.978 527.694 -425.052 535.337 -422.775 542.118C-420.498 548.899 -416.665 559.738 -414.307 565.716L-410.125 576.877L-389.427 588.827L-394.007 580.473C-404.849 561.742 -412.736 539.974 -417.44 515.799C-421.2 499.536 -423.314 494.063 -426.888 491.514C-428.091 490.321 -429.693 489.734 -431.52 489.815C-433.346 489.896 -435.326 490.643 -437.244 491.973C-447.034 499.506 -455.97 509.629 -463.1 521.266C-472.032 534.089 -475.25 539.398 -474.825 540.251L-474.515 539.58Z" fill="#474747"/>
<path d="M-236.959 674.578C-236.389 674.907 -235.648 675.335 -235.249 675.565C-233.768 676.42 -233.596 676.519 -231.653 673.81C-222.559 662.82 -213.151 652.282 -203.477 642.251C-180.21 619.949 -154.455 606.196 -130.752 603.415C-119.667 601.454 -108.919 600.912 -98.6637 601.798C-69.1784 603.373 -61.1249 602.585 -49.1384 598.012C-42.6191 595.721 -35.9864 591.46 -29.8547 585.624C-23.7229 579.789 -18.2901 572.568 -14.0595 564.63C-7.49506 552.761 -1.81296 540.49 2.87331 528.062C5.86792 520.77 10.24 510.565 12.6237 505.515C25.8455 476.691 39.29 466.04 57.3322 469.536C64.9828 472.325 72.1235 476.117 78.6757 480.87C88.0221 486.266 95.7728 490.741 96.2857 491.037C96.7986 491.333 98.732 488.247 102.799 481.203C106.866 474.159 108.15 471.934 107.581 471.605C107.011 471.276 82.6966 457.98 82.3908 457.062C82.085 456.144 76.9593 453.308 71.2602 450.018C66.4961 446.699 61.221 444.233 55.5226 442.662C40.9791 439.95 30.3637 445.438 18.9215 461.572C9.99955 475.924 2.43905 491.105 -3.49741 506.588C-9.46818 521.964 -16.817 537.082 -25.357 551.557C-37.2112 571.037 -47.3582 579.267 -65.4453 584.272C-75.1464 586.409 -84.6142 587.436 -93.7363 587.341C-117.487 587.416 -143.353 595.228 -169.205 610.133C-189.371 621.643 -208.885 638.879 -225.807 660.131L-236.623 672.548C-236.997 673.196 -237.318 673.753 -236.578 674.18L-236.959 674.578Z" fill="#474747"/>
<path d="M-204.054 693.576L-200.679 695.524L-196.986 690.976C-190.654 683.348 -183.604 676.886 -176.263 671.981C-168.922 667.076 -161.443 663.829 -154.277 662.437C-140.622 660.052 -133.592 662.008 -101.397 676.513C-69.2022 691.018 -51.7411 689.965 -14.3567 669.858L-2.39433 663.403L9.60519 642.62L2.99576 647.463C-8.54222 655.224 -20.2135 661.821 -31.8693 667.17C-43.0092 671.913 -53.9215 674.208 -64.0699 673.94C-75.2702 673.659 -83.6053 671.321 -107.003 661.524C-130.401 651.727 -139.733 649.926 -152.551 652.052C-160.453 653.196 -168.787 656.534 -176.996 661.845C-185.204 667.155 -193.096 674.314 -200.145 682.842C-207.389 691.031 -207.389 691.031 -203.443 693.31L-204.054 693.576Z" fill="#474747"/>
<path d="M-152.052 723.464C-138.762 731.137 -138.477 731.302 -133.699 731.193C-123.534 731.718 -113.646 733.016 -104.078 735.079C-80.7951 739.67 -72.1518 738.925 -49.5766 730.515L-39.0406 726.624L-33.6421 717.274C-31.6997 714.246 -29.8949 711.12 -28.2436 707.924C-28.2436 707.924 -32.2557 709.472 -36.9339 711.384C-68.2768 724.705 -78.112 725.012 -113.352 712.021C-136.327 703.868 -146.067 703.481 -158.048 710.402C-160.252 711.551 -162.446 713.006 -164.58 714.735C-160.812 718.523 -156.454 721.458 -151.602 723.475L-152.052 723.464Z" fill="#474747"/>
</svg>
