<svg width="254" height="144" viewBox="0 0 254 144" fill="none" xmlns="http://www.w3.org/2000/svg">
<path d="M662.551 309.517C662.59 310.641 662.842 311.847 663.29 313.048C664.093 314.44 663.986 314.254 657.396 312.246C645.05 308.386 633.793 309.984 625.583 316.76C607.922 328.564 598.524 348.586 592.188 388.485C587.156 418.85 581.853 430.199 571.912 430.867C566.604 431.211 560.621 427.738 544.601 415.094C532.44 405.002 519.734 397.28 507.131 392.322C492.525 387.01 477.727 377.178 464.198 363.798C460.916 360.498 451.486 349.862 442.929 340.207C415.272 307.936 408.975 301.799 396.184 294.217C383.393 286.636 373.258 286.303 352.95 296.172C332.642 306.042 325.785 307.28 315.848 304.111C310.546 302.451 305.11 298.928 300.203 293.971C293.146 287.412 286.835 279.299 281.81 270.328C270.046 251.145 263.898 236.388 249.174 192.073C231.3 138.196 229.632 133.717 223.476 121.067C219.825 112.445 214.27 104.512 207.728 98.5748C201.186 92.638 194.046 89.0525 187.488 88.4101C164.604 82.8211 154.169 77.4659 140.903 65.087C128.131 52.2188 116.553 37.2003 106.788 20.8353C94.9405 1.49797 84.2581 -18.5576 74.8925 -39.0466L63.3726 -62.5764L61.8729 -65.1739L64.9133 -66.9292C66.6343 -67.9228 68.1831 -68.8171 68.7799 -68.0484C71.3342 -63.6366 73.6486 -59.0961 75.6971 -54.4777C82.9241 -38.7541 90.9555 -23.293 99.7194 -8.2331C110.505 11.7615 123.933 30.1819 139.065 45.7397C152.763 58.7348 161.901 62.2411 189.152 65.0612C204.042 66.6072 212.61 72.1742 222.366 86.9511C229.585 97.9973 236.564 116.975 246.586 152.749C253.656 181.418 263.504 210.319 275.889 238.742C291.368 271.117 309.167 286.446 327.357 283.241C334.803 280.959 341.834 277.81 348.384 273.823C366.075 264.722 371.262 262.841 380.334 262.922C387.063 262.772 394.494 265.153 401.826 269.809C416.116 278.133 426.15 289.286 446.613 319.032C473.981 359.016 484.214 369.188 510.641 382.503C521.098 387.452 531.543 393.885 541.739 401.656C554.974 411.332 560.015 414.234 564.834 415.163C575.54 417.145 581.39 408.202 587.345 380.891C594.359 348.393 600.87 332.512 612.778 318.958C620.767 311.076 630.354 305.541 641.174 302.563C647.49 301.69 654.578 303.083 661.794 306.614C662.13 307.726 662.326 308.826 662.372 309.868L662.551 309.517Z" fill="#474747"/>
<path d="M646.121 282.512C636.502 282.916 627.944 286.134 621.011 291.956C602.957 306.27 589.252 326.769 580.748 352.175C573.479 370.422 571.518 373.773 565.669 377.273C557.932 381.74 551.913 379.915 532.085 368.07C501.995 349.7 493.572 341.992 478.859 319.552C469.38 304.127 460.677 288.212 452.837 271.967C445.688 256.953 436.325 242.91 425.485 230.943C411.13 216.8 395.338 212.606 374.868 217.646C363.369 220.689 352.521 225.139 342.435 230.949C325.909 239.381 321.708 240.574 313.641 239.439C302.669 237.639 291.874 226.617 282.781 207.957C273.689 189.297 268.446 173.467 257.889 133.345C247.332 93.2231 243.841 82.5443 235.802 67.9591C232.06 59.8268 226.688 52.4125 220.457 46.7783C214.226 41.1441 207.455 37.5791 201.113 36.5935C194.81 35.8601 188.621 35.5662 182.572 35.7128C174.974 35.7861 166.712 35.5031 163.967 35.1159C157.507 34.1588 150.704 31.4029 144.02 27.0358C131.581 16.85 120.11 3.90837 110.49 -10.7919C100.215 -26.5929 90.752 -42.9825 82.2058 -59.7821L75.4755 -73.0273L81.3205 -76.4019L94.9825 -52.7387C100.862 -41.7484 107.492 -31.1527 114.754 -21.1409C124.079 -7.46681 135.537 3.85461 147.663 11.3759C156.886 16.3418 166.043 18.5267 174.247 17.719C184.283 17.2683 194.773 18.232 205.553 20.5957C210.333 21.9147 215.251 24.4777 219.985 28.1163C224.719 31.7548 229.163 36.3868 233.024 41.7091C238.28 48.6836 242.74 56.4092 246.153 64.4482C252.786 78.9818 256.117 89.3831 268.819 134.676C277.378 164.983 282.585 178.369 291.681 193.329C293.53 197.057 295.889 200.538 298.594 203.532C301.298 206.525 304.284 208.958 307.341 210.662C315.249 215.094 324.886 214.583 338.733 209.053C354.9 202.417 371.918 197.492 389.666 194.313C412.532 191.834 428.513 202.573 445.483 231.967C448.739 237.606 454.417 248.501 458.224 256.286L470.27 281.252C477.165 295.685 485.233 309.66 494.285 322.847C506.526 338.476 520.982 350.742 535.775 358.051C544.046 363.826 552.566 366.219 559.758 364.787C566.503 363.234 570.245 358.732 580.112 338.369C590.24 316.102 604.035 297.657 620.988 283.711C626.742 279.072 633.484 276.012 640.966 274.642C643.112 274.389 643.222 274.448 645.357 278.146C647.492 281.843 647.492 281.843 646.083 281.917L646.121 282.512Z" fill="#474747"/>
<path d="M620.156 237.145C619.525 237.509 617.246 240.184 614.692 242.647C612.137 245.109 607.636 250.426 604.527 254.444C601.418 258.463 595.479 266.585 591.13 272.431C583.907 283.025 575.079 291.652 564.879 298.086C555.072 303.748 548.421 303.883 540.123 298.915C534.978 295.806 530.039 291.306 525.766 285.835C520.218 279.106 515.351 271.574 511.408 263.615C500.176 244.161 498.006 239.608 481.173 198.93C464.341 158.252 458.42 145.613 450.996 134.212C436.852 112.362 425.245 105.106 409.93 108.513C407.491 109.056 399.551 112.653 391.2 116.733C381.039 123.274 369.251 126.948 356.334 127.599C350.44 128.384 343.832 127.051 337.113 123.722C330.395 120.393 323.783 115.174 317.881 108.544C308.951 98.5068 305.99 94.0403 285.233 58.2216C277.433 44.0499 269.032 30.2055 260.086 16.7852C247.117 -1.58701 231.711 -17.1444 215.338 -28.4038C211.318 -31.394 196.936 -40.013 183.315 -47.7123C151.753 -65.5583 137.2 -75.9311 120.482 -92.8357L116.546 -96.7393L124.69 -101.441L130.082 -97.2667C145.93 -85.0478 166.545 -70.269 181.618 -60.3199C199.659 -49.1644 217.403 -35.6426 234.46 -20.0511C253.411 -2.45894 263.636 11.2775 288.519 52.1249C296.91 66.7316 306.308 80.7003 316.533 93.7587C322.965 101.629 330.41 107.819 338.015 111.621C345.62 115.423 353.077 116.682 359.53 115.254C371.027 113.51 381.442 109.205 390.399 102.497C407.948 92.3647 411.825 90.8677 419.405 91.6792C424.838 92.6992 430.558 95.5286 435.996 99.8868C446.123 109.649 454.856 121.971 461.156 135.387C469.636 152.228 477.174 169.404 483.689 186.732C501.381 230.619 503.176 234.524 514.622 254.349C518.711 262.815 523.914 270.788 529.901 277.766C533.548 282.33 537.743 286.051 542.091 288.576C546.44 291.102 550.797 292.349 554.751 292.199C559.41 291.635 563.598 289.927 567.131 287.152C578.314 280.695 582.685 275.948 597.83 254.235C603.404 245.869 609.717 238.383 616.713 231.845C618.033 231.083 618.147 231.017 619.538 233.426C620.929 235.834 621.036 236.019 620.053 236.834L620.156 237.145Z" fill="#474747"/>
<path d="M596.963 202.597C593.153 207.387 587.63 214.769 582.377 222.488C577.575 230.824 571.199 237.343 563.531 241.755C560.833 243.437 557.471 243.886 553.807 243.053C550.838 242.5 547.734 241.157 544.696 239.11C541.658 237.062 538.752 234.356 536.163 231.164C531.514 225.539 527.404 219.272 524.019 212.646C514.086 195.441 512.404 191.602 495.147 149.396C488.247 130.554 479.735 111.943 469.802 93.9777C463.436 81.7327 455.714 70.196 446.998 59.9085C422.359 30.4747 403.01 28.0796 376.554 51.2471C368.753 58.6723 359.535 63.9943 349.203 67.038C343.944 67.8449 338.005 66.6839 331.968 63.669C320.894 57.7297 312.524 48.1324 287.497 13.1264C277.19 -1.95836 266.26 -16.4644 254.794 -30.2743C242.91 -44.5024 208.514 -87.7896 202.199 -96.4766C199.608 -100.037 194.327 -107.595 190.562 -113.19C186.749 -119.533 182.175 -125.292 177.129 -130.101C176.189 -130.669 177.115 -131.449 182.619 -134.627C184.749 -136.447 187.345 -137.527 190.263 -137.808C194.29 -131.952 198.088 -125.905 201.632 -119.705C220.464 -89.1561 240.633 -59.5781 261.974 -31.2132C268.198 -23.2136 278.413 -9.62493 284.728 -0.937932C293.376 11.613 302.604 23.6105 312.318 34.9314C325.749 50.1166 334.769 55.1458 346.182 53.8595C355.373 51.1698 363.569 46.4383 370.494 39.8232C387.792 25.0263 399.135 20.5736 413.07 23.258C425.214 25.62 436.571 35.0956 454.061 57.3107C459.898 65.0138 465.165 73.2915 469.729 81.9337C481.031 101.147 490.512 121.318 497.863 141.785C512.97 178.942 519.845 193.102 527.642 206.607C540.457 227.081 551.16 234.098 562.232 229.309C569.989 224.697 576.476 218.034 581.43 209.592C586.246 203.235 591.042 197.506 592.021 196.817C592.999 196.129 593.798 195.791 595.626 198.559C597.453 201.327 597.388 201.612 596.393 202.803L596.963 202.597Z" fill="#474747"/>
<path d="M546.962 115.396C548.194 117.531 548.873 119.491 548.647 119.622C547.382 119.482 546.081 119.198 544.759 118.772C540.726 117.36 536.612 114.751 532.784 111.175C528.955 107.599 525.529 103.168 522.809 98.272C515.06 85.7864 507.849 72.948 501.233 59.8557C471.636 4.40915 447.653 -31.379 428.592 -48.9668C421.024 -55.5562 412.956 -59.9374 405.281 -61.6257C397.741 -62.9501 390.843 -61.8962 385.165 -58.5525C366.549 -50.5278 358.022 -48.8232 345.564 -50.7901C334.106 -51.8664 321.482 -58.8018 310.3 -70.1631C301.423 -78.1513 293.497 -88.3147 287.336 -99.6085C282.253 -108.42 277.791 -117.553 274.033 -126.834C268.656 -140.434 262.257 -153.842 254.952 -166.813L250.825 -173.962L258.92 -178.636C261.495 -180.783 264.568 -182.138 268.005 -182.643C272.617 -175.95 276.965 -169.031 281.017 -161.934C302.272 -126.427 312.109 -112.921 327.718 -98.0434C334.042 -91.7009 340.806 -86.5007 347.671 -82.7031C359.067 -76.0384 365.713 -76.1623 378.865 -82.1462C384.022 -85.1678 389.876 -86.9216 396.24 -87.3509C402.188 -87.1429 408.657 -84.9233 415.067 -80.8909C428.423 -73.0095 441.087 -60.2927 450.99 -44.8173C468.69 -17.0865 485.188 11.4892 500.354 40.6827C517.716 73.2385 525.136 85.0455 533.163 92.5416C536.12 95.5591 538.659 99.2777 540.497 103.284C543.07 107.74 546.125 113.032 547.358 115.167L546.962 115.396Z" fill="#474747"/>
<path d="M733.385 443.033L738.447 452.462L735.022 448.51C727.138 438.805 719.588 428.682 712.418 418.205C709.872 414.289 707.122 410.543 704.203 407.014C705.443 409.281 706.851 411.454 708.397 413.486C717.549 427.115 727.25 440.255 737.426 452.805C742.852 459.43 745.919 464.082 744.373 463.122C737.126 455.302 730.258 446.855 723.868 437.904L707.789 415.072C697.287 398.724 685.194 383.765 672.047 370.86C666.349 365.281 660.122 361.243 654.011 359.163C647.478 356.734 641.413 357.173 636.888 360.402C630.702 363.68 626.28 369.799 624.175 377.995C619.477 390.588 618.221 400.825 616.54 440.827C615.194 475.202 611.879 486.627 602.396 491.855C597.421 494.727 586.709 495.848 586.718 493.619C588.136 492.999 589.717 492.711 591.409 492.764C595.187 492.626 598.611 491.529 601.508 489.527C604.634 488.013 606.988 485.204 608.323 481.392C612.403 472.614 614.309 459.409 615.207 430.727C616.854 384.197 622.856 363.563 636.72 356.547C641.591 353.708 647.878 353.651 654.543 356.386C665.889 360.458 678.139 372.036 695.179 394.684C697.319 397.641 699.585 400.463 701.957 403.123C695.736 394.185 689.149 385.602 682.252 377.444C677.311 371.229 671.775 365.882 665.965 361.71C660.154 357.539 654.184 354.626 648.399 353.139C643.144 352.163 638.355 352.969 634.503 355.48C621.81 362.808 615.975 381.617 614.008 421.785C613.697 435.067 612.736 447.993 611.129 460.503C610.336 472.622 605.373 481.816 597.279 486.163C591.402 487.881 584.825 487.951 577.882 486.369C567.883 483.018 557.684 475.962 548.686 466.169C537.441 454.524 524.986 445.916 512.658 441.267C505.361 439.19 498.244 438.16 491.447 438.197C468.325 437.331 442.898 426.817 418.644 408.094C408.306 399.98 397.75 392.882 387.117 386.893C376.099 382.195 365.402 380.628 355.888 382.319C329.586 384.165 314.171 377.007 293.289 353.119C274.908 332.11 260.854 309.22 241.795 269.21C219.242 221.83 207.765 204.987 188.399 190.723C181.357 185.524 162.79 172.775 162.447 172.973C162.104 173.171 162.447 172.973 173.91 182.66C183.804 190.396 193.402 199.228 202.532 208.997C213.235 221.592 223.493 239.756 240.16 275.095C247.914 292.671 256.842 309.904 266.809 326.533C289.118 363.061 310.282 386.91 328.839 396.207C338.277 400.374 347.603 402.971 356.546 403.926C362.338 404.85 368.229 406.234 374.186 408.07C383.861 411.624 393.933 418.902 413.035 436.407C419.219 442.101 427.277 449.059 431.01 452.092C443.996 462.006 457.487 468.709 470.454 471.686C479.417 472.522 488.106 472.38 496.433 471.262C500.46 470.887 504.629 470.915 508.909 471.348C519.479 473.15 530.272 480.753 550.429 500.613C558.563 509.351 567.437 516.499 576.51 521.623C588.472 527.663 600.299 530.616 611.16 530.274C620.349 528.551 627.246 522.068 630.581 512.021C634.233 502.501 635.421 492.675 636.111 465.349C636.958 430.769 637.719 422.053 640.879 412.077C642.381 406.272 645.562 401.982 650.009 399.765C658.201 396.394 668.124 403.017 683.085 421.8C694.594 436.837 705.428 452.6 715.481 468.933C726.046 485.872 737.344 502.263 749.282 517.971C755.201 525.053 755.151 524.835 752.064 526.618C750.005 527.806 749.319 528.202 748.292 526.819C738.045 512.874 728.222 498.505 718.867 483.776C688.567 438.028 677.836 424.46 666.624 417.717C655.413 410.973 648.813 417.501 645.892 436.604C645.266 440.671 644.434 455.603 644.132 469.735C643.368 499.574 642.011 511.351 637.453 522.999C634.951 531.348 630.501 537.897 624.47 542.106C621.744 544.392 618.42 545.724 614.688 546.024C601.508 547.26 586.519 542.601 571.856 532.709C565.257 527.394 558.779 521.644 552.465 515.495C532.072 496.018 524.484 490.27 515.233 487.583C506.205 485.427 497.666 485.531 490.1 487.889C483.105 489.975 475.344 490.28 467.141 488.792C450.872 484.518 433.954 473.745 418.919 458.085C395.907 435.92 389.158 430.306 379.302 425.25C369.856 420.869 360.491 417.969 351.452 416.625C338.773 414.606 325.232 407.42 312.767 396.098C299.245 382.725 286.748 367.369 275.769 350.635C262.804 330.6 251.012 309.733 240.559 288.328C234.636 276.052 228.174 263.978 221.217 252.187C203.727 221.894 203.674 221.801 159.658 187.553C145.911 175.565 132.47 162.694 119.422 149.023C106.424 135.181 94.8812 119.054 85.5159 101.652C82.5207 96.4638 75.4847 81.5041 69.4002 68.5888C52.1096 31.5104 45.3205 19.6193 29.3928 -0.706144C21.863 -11.7387 12.8949 -21.2399 3.28234 -28.3691L0.454841 -29.7014L9.03119 -34.653C19.38 -40.6278 18.2125 -41.0654 27.6648 -27.9947C45.2054 -2.62046 61.1712 24.0593 75.2949 51.5981C83.2618 67.5365 92.2183 83.0494 102.038 97.9182C115.375 115.624 130.282 131.346 146.088 144.374C157.419 153.421 168.898 161.844 180.476 169.605C187.466 174.264 194.361 179.538 201.09 185.372C211.76 196.602 220.97 210.103 227.872 224.629C233.879 236.354 235.415 239.543 247.616 266.22C264.204 302.346 276.531 322.773 293.388 342.068C299.101 349.102 305.501 355.074 312.187 359.61C318.872 364.146 325.7 367.148 332.24 368.428C341.046 369.775 349.435 369.505 357.163 367.625C364.185 365.78 371.867 365.509 379.95 366.821C390.963 371.052 402.087 377.696 412.761 386.416C423.287 394.733 434.007 402.174 444.819 408.669C462.404 419.895 480.238 426.512 496.917 427.998C517.397 431.12 527.792 436.976 549.894 457.566C557.465 465.767 565.89 472.087 574.367 475.922C581.195 478.515 587.599 478.333 592.593 475.405C595.934 474.353 598.599 472.006 600.325 468.594C605.115 460.517 607.049 450.136 608.955 421.615C609.192 401.823 612.061 383.506 617.463 367.294C627.692 340.514 649.085 337.426 672.615 359.168C683.067 368.82 692.079 379.675 712.752 408.748C720.476 419.338 727.366 430.695 733.231 442.503L733.385 443.033Z" fill="#474747"/>
<path d="M728.14 539.58C726.367 540.916 724.45 542.022 722.407 542.89L717.132 545.935L712.528 541.669C699.53 529.615 693.17 533.165 683.388 557.399L679.483 567.186L670.769 572.218L676.592 554.764C679.412 543.436 683.549 533.175 688.914 524.203C690.019 522.639 691.487 521.531 693.225 520.948C694.963 520.364 696.934 520.318 699.018 520.812C701.101 521.305 703.252 522.329 705.338 523.818C707.423 525.307 709.399 527.231 711.142 529.47C715.45 534.151 714.938 532.867 710.324 527.391C697.487 512.571 689.272 511.847 682.821 525.169C681.603 527.694 678.677 535.337 676.4 542.118C674.123 548.899 670.29 559.738 667.932 565.716L663.75 576.877L643.053 588.827L647.633 580.473C658.475 561.742 666.362 539.974 671.066 515.799C674.825 499.536 676.94 494.063 680.514 491.514C681.717 490.321 683.319 489.734 685.145 489.815C686.971 489.896 688.951 490.643 690.87 491.973C700.66 499.506 709.595 509.629 716.726 521.266C725.658 534.089 728.876 539.398 728.451 540.251L728.14 539.58Z" fill="#474747"/>
<path d="M490.584 674.578C490.015 674.907 489.274 675.335 488.875 675.565C487.393 676.42 487.222 676.519 485.278 673.81C476.184 662.82 466.777 652.282 457.103 642.251C433.835 619.949 408.08 606.196 384.378 603.415C373.292 601.454 362.544 600.912 352.289 601.798C322.804 603.373 314.75 602.585 302.764 598.012C296.245 595.721 289.612 591.46 283.48 585.624C277.348 579.789 271.916 572.568 267.685 564.63C261.121 552.761 255.438 540.49 250.752 528.062C247.758 520.77 243.386 510.565 241.002 505.515C227.78 476.691 214.335 466.04 196.293 469.536C188.643 472.325 181.502 476.117 174.95 480.87C165.603 486.266 157.853 490.741 157.34 491.037C156.827 491.333 154.894 488.247 150.827 481.203C146.76 474.159 145.475 471.934 146.045 471.605C146.615 471.276 170.929 457.98 171.235 457.062C171.541 456.144 176.666 453.308 182.365 450.018C187.129 446.699 192.404 444.233 198.103 442.662C212.646 439.95 223.262 445.438 234.704 461.572C243.626 475.924 251.186 491.105 257.123 506.588C263.094 521.964 270.443 537.082 278.982 551.557C290.837 571.037 300.984 579.267 319.071 584.272C328.772 586.409 338.24 587.436 347.362 587.341C371.112 587.416 396.978 595.228 422.831 610.133C442.997 621.643 462.51 638.879 479.432 660.131L490.248 672.548C490.623 673.196 490.944 673.753 490.203 674.18L490.584 674.578Z" fill="#474747"/>
<path d="M457.679 693.576L454.305 695.524L450.611 690.976C444.279 683.348 437.229 676.886 429.888 671.981C422.548 667.076 415.068 663.829 407.902 662.437C394.248 660.052 387.217 662.008 355.022 676.513C322.828 691.018 305.367 689.965 267.982 669.858L256.02 663.403L244.02 642.62L250.63 647.463C262.168 655.224 273.839 661.821 285.495 667.17C296.635 671.913 307.547 674.208 317.695 673.94C328.896 673.659 337.231 671.321 360.629 661.524C384.026 651.727 393.358 649.926 406.176 652.052C414.079 653.196 422.413 656.534 430.621 661.845C438.829 667.155 446.722 674.314 453.77 682.842C461.015 691.031 461.015 691.031 457.068 693.31L457.679 693.576Z" fill="#474747"/>
<path d="M405.677 723.464C392.388 731.137 392.102 731.302 387.324 731.193C377.159 731.718 367.271 733.016 357.703 735.079C334.421 739.67 325.777 738.925 303.202 730.515L292.666 726.624L287.268 717.274C285.325 714.246 283.52 711.12 281.869 707.924C281.869 707.924 285.881 709.472 290.559 711.384C321.902 724.705 331.738 725.012 366.978 712.021C389.953 703.868 399.692 703.481 411.673 710.402C413.877 711.551 416.071 713.006 418.206 714.735C414.438 718.523 410.079 721.458 405.227 723.475L405.677 723.464Z" fill="#474747"/>
</svg>
