<svg width="480" height="360" viewBox="0 0 480 360" fill="none" xmlns="http://www.w3.org/2000/svg">
<g clip-path="url(#clip0_109:3165)">
<path d="M-0.133352 -243.01C-0.896027 -242.351 -1.79581 -241.872 -2.76719 -241.607C-4.00188 -241.607 -3.83729 -241.607 0.0314348 -235.748C7.34314 -224.833 10.6054 -211.693 9.25048 -198.615C8.18041 -172.209 -1.53273 -149.599 -25.6505 -117.912C-43.9241 -93.5691 -49.4389 -80.7787 -46.064 -69.6388C-44.2531 -63.6975 -39.6437 -59.4065 -25.0743 -49.9994C-13.686 -43.1653 -3.66539 -34.2671 4.47617 -23.7586C13.6231 -11.3098 25.8514 -1.4687 39.9532 4.79266C43.4103 6.27799 54.1112 9.82627 63.8242 13.0445C95.9264 22.7816 102.429 25.7524 112.389 34.8294C122.349 43.9065 126.464 54.6337 127.699 82.69C128.934 110.746 130.745 118.916 136.671 127.663C139.813 132.349 144.246 136.018 149.43 138.225C156.506 141.752 164.33 143.508 172.231 143.341C189.516 144.084 201.699 141.525 236.847 129.808C279.567 115.532 283.189 114.542 293.972 113.304C301.112 111.873 308.526 112.924 314.991 116.284C321.455 119.644 326.584 125.113 329.531 131.788C342.043 152.996 349.616 160.917 362.951 167.519C376.421 173.283 390.864 176.419 405.506 176.761C422.927 177.498 440.378 176.531 457.611 173.873L477.695 171.645H480V167.271C480 164.796 480 162.568 479.259 162.403C475.342 162.395 471.431 162.726 467.571 163.393C454.33 165.39 440.956 166.356 427.566 166.281C410.117 167.099 392.699 164.086 376.532 157.452C362.621 150.768 356.777 143.093 344.43 115.45C337.68 100.349 330.684 94.5726 317.102 93.2523C306.977 92.3446 291.667 96.6354 264.01 108.105C242.215 118.336 219.198 125.713 195.525 130.055C168.033 133.521 150.994 123.867 146.137 102.247C144.795 92.7912 144.19 83.2453 144.327 73.6955C143.586 48.94 142.845 42.1735 139.305 32.4363C136.82 25.0835 132.38 18.5499 126.464 13.5396C115.435 3.30731 104.158 -0.570923 76.5003 -4.11921C39.377 -8.74024 28.6763 -13.4439 9.66194 -33.6609C2.35082 -41.8602 -5.94341 -49.1218 -15.032 -55.2807C-26.5559 -63.5325 -30.4245 -67.1633 -32.8939 -71.7843C-38.3265 -82.0991 -34.6224 -93.9817 -18.736 -117.417C0.196071 -145.226 8.26258 -162.142 12.7075 -183.432C14.8831 -196.96 14.8831 -210.75 12.7075 -224.278C10.8617 -231.636 7.2119 -238.415 2.08927 -244C1.22031 -243.671 0.413146 -243.197 -0.297889 -242.597L-0.133352 -243.01Z" fill="white"/>
<path d="M24.1507 -242.104C27.5773 -231.476 28.7234 -220.238 27.5134 -209.132C24.9238 -180.739 16.5485 -153.185 2.90838 -128.185C-6.44154 -108.979 -7.91798 -104.775 -8 -96.2849C-8 -85.1568 -4.47322 -79.7987 11.028 -65.7855C34.8128 -44.7658 43.1785 -40.4795 63.7647 -38.5836C77.6722 -37.965 91.6068 -38.4889 105.429 -40.1498C118.167 -41.7884 131.11 -40.4339 143.239 -36.1931C158.166 -29.5162 167.024 -15.0909 171.535 10.1328C173.928 24.4328 175.135 38.9079 175.144 53.4087C175.882 76.4893 176.702 81.7648 180.557 89.7606C185.97 100.477 197.452 105.258 213.364 103.444C229.275 101.631 241.823 97.4266 272.58 83.8256C303.336 70.2246 311.784 67.3393 324.578 66.9272C331.428 65.8989 338.426 67.0756 344.569 70.2888C350.713 73.5019 355.687 78.5866 358.779 84.8147C361.689 91.1579 364.262 97.6516 366.489 104.268C369.359 112.511 372.722 121.249 374.034 123.969C377.153 130.342 381.601 135.965 387.075 140.455C398.633 147.531 411.653 151.846 425.131 153.067C439.594 154.311 454.137 154.311 468.6 153.067L480 152.078V147.874V143.67H459.004C449.431 144.173 439.833 143.62 430.38 142.021C417.697 140.478 405.761 135.169 396.097 126.772C389.249 119.914 384.277 111.397 381.662 102.043C378.106 90.9339 373.434 80.2177 367.719 70.0596C365.005 65.7246 361.41 62.0151 357.17 59.1739C352.929 56.3328 348.14 54.4242 343.114 53.5735C336.454 52.2475 329.599 52.2475 322.938 53.5735C310.717 55.4694 302.516 58.3544 267.495 72.8622C244.038 82.5065 233.13 85.2268 219.679 84.7322C216.488 85.0588 213.265 84.6823 210.233 83.6289C207.202 82.5754 204.436 80.8703 202.127 78.6324C196.14 72.8623 192.777 62.1463 191.137 43.7643C189.341 22.1888 186.08 0.761925 181.377 -20.3666C174.242 -46.5794 160.955 -57.1304 134.873 -57.1304C129.87 -57.1304 120.438 -56.4709 113.795 -55.729L92.5527 -53.1737C80.2986 -51.622 67.8992 -51.622 55.6451 -53.1737C40.5413 -56.6452 26.825 -64.6008 16.2772 -76.0071C9.25606 -81.3336 4.39062 -89.0342 2.58024 -97.6861C1.02192 -105.929 2.58026 -112.771 12.3403 -136.099C23.2668 -160.895 30.2415 -187.266 33.0084 -214.243C33.8847 -223.34 33.3313 -232.52 31.3682 -241.445C30.7121 -243.918 30.6301 -244 27.3495 -244C24.0688 -244 24.0686 -244 24.5607 -242.434L24.1507 -242.104Z" fill="white"/>
<path d="M64.3169 -242.35C64.3169 -241.443 63.4127 -237.318 62.7551 -233.028C62.0975 -228.738 60.2891 -220.571 58.8095 -214.714C57.3299 -208.856 54.2064 -197.389 51.987 -189.057C47.7124 -174.666 45.3628 -159.769 45 -144.756C45 -130.649 47.466 -123.39 53.9597 -117.532C58.0058 -113.918 62.8983 -111.392 68.1803 -110.19C74.7903 -108.396 81.6723 -107.837 88.4836 -108.54C105.746 -108.54 109.609 -109.035 143.146 -116.212C176.684 -123.389 187.37 -124.874 197.809 -123.967C217.783 -122.317 227.072 -114.315 230.689 -95.6706C231.264 -92.7007 231.922 -81.8935 232.415 -70.3439C231.966 -55.3067 234.051 -40.3013 238.58 -25.9605C240.322 -19.1129 243.748 -12.8136 248.545 -7.63939C253.341 -2.46515 259.355 1.41857 266.035 3.65586C276.145 7.03824 280.255 7.45073 312.066 7.53323C324.494 7.12081 336.935 7.56185 349.303 8.85321C366.512 11.4017 382.784 18.3317 396.567 28.9825C400.102 31.4574 411.363 41.6044 421.721 51.504C445.723 74.4382 458.217 83.6778 475.89 91.185L480 93V81.2856L475.15 78.0681C460.93 68.5809 443.175 55.5465 430.763 45.4819C416.407 32.9666 400.591 22.2461 383.662 13.5556C364.674 4.06845 351.604 1.59333 314.861 0.190878C301.917 0.237 289.01 -1.2022 276.392 -4.09887C268.683 -6.1364 261.703 -10.3129 256.251 -16.1494C250.799 -21.9859 247.096 -29.246 245.567 -37.0977C242.311 -50.5873 241.174 -64.5044 242.197 -78.3462C242.197 -103.59 241.703 -108.705 238.251 -116.377C235.485 -121.603 231.404 -126.012 226.415 -129.164C216.027 -134.009 204.472 -135.756 193.124 -134.197C178.658 -132.855 164.332 -130.289 150.298 -126.524C114.294 -118.275 111.006 -117.78 93.4154 -117.78C86.2102 -116.918 78.9055 -117.564 71.9615 -119.677C67.523 -120.769 63.435 -122.977 60.0838 -126.095C56.7326 -129.213 54.2287 -133.137 52.8088 -137.497C51.3944 -142.874 50.9217 -148.456 51.4116 -153.996C51.4116 -170.083 52.891 -177.755 61.5219 -207.619C64.9475 -218.844 67.5035 -230.317 69.1667 -241.938C69.1667 -243.835 69.1666 -244 67.0294 -244C64.8922 -244 64.7279 -244 64.5635 -242.433L64.3169 -242.35Z" fill="white"/>
<path d="M96.2184 -238.847C94.4949 -231.754 91.7044 -221.197 88.5857 -210.722C84.8832 -200.349 82.9951 -189.41 83.0048 -178.389C82.9221 -174.43 83.915 -170.524 85.8771 -167.09C87.3861 -164.231 89.4721 -161.72 92.0018 -159.717C94.5315 -157.715 97.4492 -156.265 100.568 -155.46C106.097 -153.948 111.847 -153.418 117.557 -153.893C132.823 -153.893 136.024 -154.47 170.741 -162.141C185.931 -166.433 201.586 -168.843 217.358 -169.317C227.953 -170.075 238.597 -168.93 248.792 -165.935C277.846 -157.687 286.874 -138.304 281.621 -95.332C279.677 -82.2904 279.677 -69.0307 281.621 -55.9892C283.105 -49.8121 286.159 -44.128 290.485 -39.4932C298.693 -31.2452 308.295 -28.1934 341.206 -22.9971C355.205 -21.274 369.058 -18.5172 382.653 -14.7491C396.687 -10.7901 438.709 -0.645029 446.916 0.757131C450.281 1.33449 457.339 2.32433 462.51 2.90169C468.195 3.06393 473.785 4.41197 478.925 6.86057C479.663 7.52041 479.827 6.03579 479.827 -1.88229C480.22 -5.31263 479.941 -8.78696 479.007 -12.1097C473.563 -12.8069 468.08 -13.1375 462.592 -13.0994C435.027 -14.3882 407.595 -17.7241 380.519 -23.0797C372.804 -24.8118 359.837 -27.3684 351.629 -28.7706C339.955 -30.2823 328.425 -32.7654 317.159 -36.194C301.893 -41.2253 295.081 -47.8237 291.552 -60.938C289.81 -72.5295 289.81 -84.318 291.552 -95.9094C294.753 -123.788 293.358 -138.799 286.217 -152.161C279.98 -163.791 269.31 -170.141 247.807 -175.173C240.438 -176.672 232.906 -177.199 225.401 -176.74C208.273 -176.965 191.207 -174.63 174.762 -169.811C144.231 -162.966 132.166 -161.563 120.184 -161.563C101.635 -162.636 92.8533 -169.811 91.7864 -184.74C91.8754 -195.981 93.8168 -207.129 97.5316 -217.732C99.9117 -226.888 101.882 -235.631 101.964 -237.115C102.046 -238.6 101.964 -239.672 99.4194 -239.919C96.8751 -240.167 96.7109 -239.919 96.3006 -238.105L96.2184 -238.847Z" fill="white"/>
<path d="M-116.199 -236.265L-124.419 -235.854L-120.474 -234.62C-110.986 -232.159 -101.348 -230.319 -91.6219 -229.109C-88.0372 -228.802 -84.488 -228.169 -81.0181 -227.218C-83.0035 -227.143 -84.9907 -227.309 -86.9365 -227.711C-99.5225 -229.095 -111.994 -231.376 -124.255 -234.538C-130.749 -236.265 -135.023 -236.676 -133.79 -235.607C-125.802 -232.659 -117.542 -230.51 -109.13 -229.192L-87.7585 -226.066C-72.8445 -224.92 -58.2428 -221.191 -44.6039 -215.046C-38.7026 -212.373 -33.6225 -208.171 -29.8902 -202.873C-25.764 -197.338 -23.7261 -190.521 -24.1364 -183.628C-23.9408 -174.912 -26.3135 -166.331 -30.9588 -158.955C-37.5347 -146.042 -43.8642 -138.311 -69.8391 -111.582C-92.1973 -88.7176 -98.5267 -78.0258 -98.3623 -64.5376C-98.3623 -57.3823 -94.9921 -45.1279 -93.5125 -46.526C-93.6449 -48.441 -94.0604 -50.3259 -94.7455 -52.1188C-96.1058 -56.281 -96.6909 -60.6575 -96.4716 -65.0311C-96.6654 -69.3462 -95.7004 -73.6345 -93.6768 -77.4501C-89.4025 -87.3195 -81.347 -97.6 -62.6056 -116.434C-32.274 -147.194 -20.8484 -166.521 -21.506 -185.849C-21.4881 -192.871 -23.8659 -199.689 -28.2463 -205.176C-35.3155 -214.881 -47.7276 -220.885 -69.346 -225.162C-72.1359 -225.628 -74.8845 -226.316 -77.5659 -227.218C-69.2277 -226.073 -60.9853 -224.314 -52.9061 -221.954C-46.8721 -220.494 -41.1867 -217.852 -36.1783 -214.182C-31.1699 -210.512 -26.9374 -205.886 -23.7252 -200.57C-21.0566 -195.51 -19.7534 -189.84 -19.9441 -184.122C-19.9441 -165.863 -30.2191 -147.852 -56.194 -120.711C-64.9131 -112.102 -73.1458 -103.014 -80.8538 -93.4879C-88.6137 -85.0839 -92.8254 -74.0033 -92.6082 -62.5638C-91.4933 -55.153 -89.0128 -48.0138 -85.2926 -41.5092C-79.2213 -32.8081 -70.6072 -26.2002 -60.6329 -22.5928C-48.5633 -17.7146 -38.0491 -9.63988 -30.219 0.764701C-26.0331 7.34361 -22.6133 14.3801 -20.0264 21.737C-10.5665 46.1416 6.19978 67.0249 27.9779 81.5288C37.3497 87.6288 46.1287 94.5953 54.1995 102.337C61.5591 111.296 66.7119 121.861 69.242 133.179C78.1196 162.704 88.8053 174.877 112.725 182.525C133.768 189.269 154.4 190.174 188.349 185.815C228.544 180.634 244.162 182.526 261.095 194.533C267.26 198.892 282.878 210.982 282.878 211.476C282.878 211.969 282.878 211.475 272.027 205.143C263.078 199.287 253.513 194.433 243.504 190.668C231.01 186.967 214.981 187.214 185.061 191.244C170.385 193.826 155.487 194.928 140.591 194.533C107.711 193.217 83.709 185.239 70.3927 171.011C63.9935 163.423 58.6818 154.981 54.6106 145.927C51.7702 140.254 48.5858 134.761 45.0755 129.478C38.9927 121.253 30.2795 114.92 11.2915 105.215C5.12651 102.09 -2.60009 97.7312 -6.05246 95.5929C-17.6396 87.7592 -27.2834 77.3786 -34.2467 65.2445C-38.2464 56.0946 -41.4906 46.6322 -43.9464 36.9523C-45.2433 32.3743 -46.8639 27.8943 -48.7962 23.5464C-54.0569 13.2658 -63.2632 6.35716 -84.224 -3.01874C-93.1638 -6.35165 -101.331 -11.4727 -108.226 -18.0694C-116.842 -27.2123 -123.351 -38.1328 -127.296 -50.0627C-129.68 -61.0496 -128.016 -72.5282 -122.611 -82.3848C-117.679 -92.2542 -111.596 -99.6561 -93.6768 -117.421C-70.9899 -139.874 -65.4826 -146.124 -60.0574 -155.747C-56.7716 -160.983 -55.1388 -167.087 -55.372 -173.265C-56.2762 -184.204 -64.4962 -190.783 -82.7445 -195.225C-97.1729 -198.274 -111.825 -200.144 -126.557 -200.817C-141.888 -201.664 -157.137 -203.643 -172.177 -206.739C-179.164 -208.713 -179 -208.795 -179 -204.354C-179 -201.393 -179 -200.406 -177.684 -200.159C-164.468 -197.79 -151.131 -196.143 -137.736 -195.225C-95.6495 -191.03 -82.4978 -187.905 -73.7025 -180.009C-64.9072 -172.114 -66.7155 -160.929 -78.3056 -145.878C-80.7716 -142.67 -90.389 -132.472 -99.6775 -123.343C-119.241 -103.933 -126.557 -95.1328 -132.557 -82.9606C-137.152 -75.061 -139.8 -66.1803 -140.284 -57.0533C-140.758 -52.6882 -140.367 -48.2725 -139.133 -44.0588C-134.892 -29.0698 -126.032 -15.8016 -113.816 -6.14383C-107.743 -2.33445 -101.428 1.07223 -94.9098 4.05444C-74.1134 13.9238 -67.3731 18.5294 -62.0301 26.8362C-57.1266 35.2326 -53.9152 44.5092 -52.5772 54.1415C-51.2783 62.9872 -48.4995 71.5506 -44.3573 79.4727C-35.2628 94.3622 -21.5934 105.904 -5.39498 112.371C18.1962 123.391 24.5256 127.175 31.6769 134.659C38.2216 142.121 43.7497 150.418 48.1168 159.333C54.332 171.753 64.3164 181.887 76.6399 188.283C90.7348 194.54 105.755 198.457 121.11 199.879C139.424 201.387 157.84 201.112 176.101 199.057C186.546 197.8 197.064 197.251 207.583 197.412C234.462 197.412 234.545 197.412 274.247 223.566C287.507 230.93 301.236 237.414 315.347 242.975C329.552 248.376 344.719 250.784 359.898 250.048C364.501 250.048 377.16 248.321 388.093 246.841C419.41 242.4 429.932 242.317 449.578 246.841C459.813 248.092 469.581 251.85 478.019 257.779L479.991 260V247.663C479.991 232.777 480.731 233.764 468.401 231.708C444.776 228.589 420.887 227.983 397.135 229.898C383.467 231.231 369.702 231.231 356.035 229.898C339.128 226.538 322.938 220.248 308.195 211.311C297.821 204.722 287.806 197.585 278.192 189.928C272.406 185.289 266.248 181.135 259.78 177.509C248.207 172.993 235.684 171.465 223.366 173.067C213.255 173.89 210.542 174.219 188.102 177.673C157.688 182.279 139.358 181.703 120.041 175.535C113.165 173.753 106.732 170.568 101.145 166.181C95.5573 161.793 90.9364 156.298 87.5723 150.039C83.2921 141.378 80.2486 132.159 78.5306 122.651C77.0607 113.925 74.2899 105.47 70.3107 97.5667C63.2637 88.3202 54.5686 80.457 44.6643 74.3736C35.0856 68.1982 26.015 61.2677 17.5387 53.648C3.31152 41.6695 -7.94354 26.5512 -15.341 9.48262C-25.2871 -10.6673 -33.1782 -18.234 -55.372 -29.2548C-63.7382 -32.3138 -71.1812 -37.4671 -76.9904 -44.2232C-81.3392 -49.9747 -83.6786 -56.9969 -83.6485 -64.2088C-84.2324 -68.4678 -83.694 -72.8055 -82.0867 -76.7923C-78.5522 -86.9906 -72.3873 -95.5438 -54.139 -115.365C-41.0591 -127.949 -29.972 -142.453 -21.2594 -158.379C-7.3677 -186.095 -13.5325 -211.098 -37.0415 -222.941C-47.4808 -228.205 -58.1668 -231.166 -85.4569 -235.36C-95.4716 -237.096 -105.676 -237.456 -115.788 -236.429L-116.199 -236.265Z" fill="white"/>
<path d="M-177 13.2233C-177 30.9965 -177 31.1611 -175.357 32.5599C-166.808 38.5772 -157.669 43.7052 -148.081 47.8645C-138.798 52.5547 -128.775 57.8208 -125.899 59.7133C-120.518 63.1152 -115.934 67.6408 -112.46 72.9804C-108.986 78.32 -106.705 84.3478 -105.771 90.6519C-103.164 106.333 -95.5887 120.758 -84.164 131.794C-73.8124 141.75 -66.6649 145.041 -38.7319 152.776C-6.93759 161.58 -0.118683 165.776 13.3549 184.208C17.134 189.227 22.6386 195.892 25.5963 199.019C42.0274 215.476 55.5832 219.096 133.713 227.489C172.162 231.603 180.789 233.249 191.633 238.515C199.865 242.727 207.335 248.289 213.733 254.972C223.959 265.814 236.764 273.883 250.95 278.422C263.33 283.2 275.239 289.123 286.523 296.113C293.7 300.862 300.339 306.38 306.323 312.57C313.536 320.676 322.097 327.469 331.627 332.647C341.403 337.337 346.579 338.325 368.186 339.312C398.337 340.628 410.414 344.331 422.902 355.769C433.007 365.231 437.936 374.2 446.398 398.474C448.139 404.141 450.365 409.647 453.053 414.93C457.666 415.921 462.4 416.226 467.101 415.835H480V408.43C480 401.189 480 400.777 474.495 384.485C471.618 372.642 466.485 361.467 459.379 351.572C449.377 337.23 435.333 326.2 419.04 319.893C409.839 316.684 400.555 315.779 374.348 315.614C364.537 316.296 354.68 315.716 345.018 313.886C333.577 310.342 322.943 304.583 313.716 296.936C298.752 285.985 282.767 276.506 265.984 268.631C253.996 263.589 242.9 256.643 233.122 248.06C225.806 240.587 217.515 234.137 208.475 228.888C196.809 222.963 188.182 221.482 157.128 220.001C131.363 219.447 105.692 216.694 80.394 211.773C58.212 207 47.9427 202.146 37.1803 191.038C31.0126 184.2 25.5106 176.788 20.7491 168.903C10.5618 153.846 1.85326 148.497 -28.5444 138.623C-37.997 136.386 -47.0555 132.724 -55.4095 127.762C-66.3349 120.579 -74.9069 110.334 -80.0562 98.3042C-81.9952 92.6884 -83.5327 86.9415 -84.657 81.107C-85.9714 74.6889 -87.6146 67.7771 -88.2718 65.6377C-93.0369 50.4153 -101.417 43.7503 -130.171 32.1484C-142.731 28.1125 -154.256 21.3722 -163.937 12.4004C-168.559 7.85213 -172.589 2.7375 -175.932 -2.82202C-176.589 -3.8917 -176.836 -0.353517 -176.836 13.6346L-177 13.2233Z" fill="white"/>
<path d="M-178.505 65.4772V73.2829L-169.596 81.4995C-159.535 89.6131 -151.867 100.289 -147.407 112.394C-139.57 132.525 -128.021 145.261 -102.202 161.694C-87.8916 170.64 -72.511 177.762 -56.4205 182.893C-37.2829 189.056 -30.2713 192.507 -23.4247 199.327C-19.8259 202.689 -16.5147 206.344 -13.5258 210.255C-7.21697 220.2 1.2367 228.621 11.2211 234.905C20.7898 240.41 31.4309 242.3 64.5093 243.943C104.517 246.079 122.995 249.366 140.152 257.665C153.268 263.91 159.785 269.99 172.406 287.08C181.616 301.329 194.885 312.516 210.516 319.208C219.966 323.615 228.72 329.373 236.5 336.298C246.894 345.83 250.936 352.732 256.628 371.877C260.237 386.425 265.64 400.473 272.713 413.699L274.528 416H318L311.566 414.686C305.722 413.746 300.161 411.527 295.282 408.188C290.404 404.849 286.33 400.473 283.354 395.376C278.82 386.702 275.437 377.476 273.29 367.933C263.227 333.341 254.483 323.727 219.507 309.266C214.146 307.047 207.134 303.761 203.917 301.953C194.479 295.875 186.233 288.134 179.582 279.111C171.819 267.94 161.156 259.079 148.731 253.474C131.574 245.833 111.693 241.971 72.5108 238.767C35.8854 235.891 25.4093 233.508 14.3557 225.866C7.07998 220.447 0.753173 213.867 -4.36936 206.393C-8.81555 199.562 -14.3942 193.533 -20.8673 188.563C-27.5489 183.633 -33.6532 181.168 -54.6881 174.595C-82.8995 165.803 -97.5002 158.161 -111.441 144.686C-122.139 134.669 -129.847 121.901 -133.713 107.793C-136.314 95.979 -142.715 85.3334 -151.943 77.4735C-160.115 70.286 -168.86 63.7733 -178.093 58C-178.753 58 -179 60.3828 -179 66.2167L-178.505 65.4772Z" fill="white"/>
<path d="M-176.945 145.019V148.791L-170.305 151.99C-166.699 153.712 -158.583 157.321 -152.108 160.192C-130.326 169.041 -109.883 180.883 -91.3672 195.377L-69.317 211.78C-56.0606 220.192 -45.1699 231.851 -37.6764 245.652C-26.3644 263.696 -21.282 269.601 -12.1833 273.702C-1.19914 278.705 8.80133 279.279 40.6061 276.408C83.231 272.636 100.117 275.26 113.396 287.973C121.508 296.158 126.915 306.635 128.889 317.991C130.61 325.29 132.25 336.28 136.102 364.576C137.086 372.367 138.561 381.635 139.299 385.244C141.63 395.378 144.615 405.35 148.234 415.098C148.726 415.672 151.595 416 158.234 416C164.874 416 167.497 416 166.923 415.098C165.279 411.187 163.936 407.157 162.907 403.041C161.103 396.89 158.234 386.638 156.431 380.979C154.628 375.32 151.923 365.15 150.529 358.999C145.119 336.28 138.397 311.183 136.02 304.868C133.093 296.394 128.14 288.764 121.593 282.642C118.137 279.201 114.081 276.421 109.626 274.44C95.1166 267.469 80.2799 266.238 43.5569 268.453C15.6868 270.175 2.57141 269.109 -7.42905 264.024C-10.9517 261.954 -14.1778 259.415 -17.0195 256.479C-24.1939 249.02 -30.492 240.765 -35.7909 231.874C-41.6019 223.236 -49.2421 215.983 -58.1691 210.632C-68.5794 204.234 -85.5474 193.408 -100.712 183.32C-115.15 173.486 -130.365 164.845 -146.206 157.485C-155.796 152.81 -166.453 147.233 -169.895 144.937C-173.338 142.64 -176.371 141 -176.535 141C-176.949 142.24 -177.089 143.555 -176.945 144.855V145.019Z" fill="white"/>
<path d="M-177 169.902C-177 170.721 -177 171.787 -177 172.361C-177 174.492 -177 174.738 -174.451 175.148C-163.643 178.114 -153.016 181.699 -142.623 185.887C-118.842 197.099 -99.7948 216.317 -88.8377 240.157C-83.2734 250.895 -78.7833 262.153 -75.4323 273.768C-65.1522 306.559 -61.5336 314.757 -53.8851 324.84C-49.8552 330.446 -44.4714 334.948 -38.2323 337.928C-31.9932 340.909 -25.1003 342.272 -18.1922 341.892C-7.77189 341.581 2.57727 340.068 12.6482 337.383C18.6518 336.071 27.1227 334.432 31.3992 333.858C55.6604 330.169 67.9143 338.039 72.5198 359.681C73.6028 369.672 73.8228 379.738 73.1776 389.767C73.1776 403.212 73.1776 414.361 73.1776 415.098C73.1776 415.836 75.9739 416 82.2242 416C88.4745 416 90.4483 416 90.4483 415.18C90.4483 414.361 89.9549 379.848 90.4483 378.946C90.9418 378.044 90.8594 370.748 90.8594 362.55C91.2378 355.343 90.852 348.116 89.7082 340.99C85.9251 323.611 78.1942 315.577 63.0619 313.281C50.0829 312.596 37.0753 313.895 24.491 317.134C11.9646 320.27 -0.919633 321.758 -13.8335 321.561C-31.3508 320.905 -40.7265 315.085 -51.0067 298.689C-56.156 289.554 -60.4769 279.98 -63.9183 270.079C-73.0941 244.503 -88.2305 221.464 -108.082 202.857C-123.489 188.269 -142.457 177.954 -163.101 172.935L-175.52 169C-176.095 169 -176.589 169 -176.589 170.066L-177 169.902Z" fill="white"/>
</g>
<defs>
<clipPath id="clip0_109:3165">
<rect width="480" height="360" rx="16" fill="white"/>
</clipPath>
</defs>
</svg>
