<svg width="203" height="198" viewBox="0 0 203 198" fill="none" xmlns="http://www.w3.org/2000/svg">
<g clip-path="url(#clip0_34_145)">
<path d="M54.5 -360.5L47.5 -360.1L50.9 -359C59 -356.9 67.3 -355.3 75.6 -354.3C78.7 -354 81.7 -353.5 84.7 -352.7C83 -352.6 81.3 -352.8 79.6 -353.1C68.8 -354.3 58.2 -356.2 47.7 -358.9C42.1 -360.4 38.5 -360.7 39.5 -359.8C46.3 -357.3 53.4 -355.4 60.6 -354.3L78.9 -351.6C91.7 -350.6 104.1 -347.4 115.8 -342.2C120.8 -339.9 125.2 -336.3 128.4 -331.8C131.9 -327.1 133.7 -321.2 133.3 -315.3C133.5 -307.8 131.4 -300.5 127.5 -294.2C121.9 -283.2 116.5 -276.5 94.3 -253.7C75.2 -234.1 69.8 -225 69.9 -213.5C69.9 -207.4 72.8 -196.9 74 -198.1C73.9 -199.7 73.5 -201.4 72.9 -202.9C71.7 -206.5 71.2 -210.2 71.4 -213.9C71.2 -217.6 72.1 -221.3 73.8 -224.5C77.5 -232.9 84.3 -241.7 100.4 -257.8C126.3 -284.1 136.1 -300.6 135.5 -317.2C135.5 -323.2 133.5 -329 129.7 -333.7C123.7 -342 113 -347.1 94.6 -350.8C92.2 -351.2 89.9 -351.8 87.6 -352.6C94.7 -351.6 101.8 -350.1 108.7 -348.1C113.9 -346.9 118.7 -344.6 123 -341.5C127.3 -338.4 130.9 -334.4 133.6 -329.9C135.9 -325.6 137 -320.7 136.8 -315.8C136.8 -300.2 128 -284.8 105.8 -261.6C98.3 -254.2 91.3 -246.5 84.7 -238.3C78.1 -231.1 74.5 -221.6 74.7 -211.8C75.7 -205.5 77.8 -199.4 81 -193.8C86.2 -186.4 93.6 -180.7 102.1 -177.6C112.4 -173.4 121.4 -166.5 128.1 -157.6C131.7 -152 134.6 -146 136.8 -139.7C144.9 -118.8 159.2 -101 177.8 -88.6C185.8 -83.4 193.3 -77.4 200.2 -70.8C206.5 -63.1 210.9 -54.1 213.1 -44.4C220.7 -19.1 229.8 -8.70001 250.3 -2.20001C268.3 3.59999 285.9 4.30001 315 0.600006C349.4 -3.79999 362.7 -2.19999 377.2 8.10001C382.5 11.8 395.8 22.2 395.8 22.6C395.8 23 395.8 22.6 386.5 17.2C378.8 12.2 370.7 7.99999 362.1 4.79999C351.4 1.59999 337.7 1.79999 312.1 5.29999C299.6 7.49999 286.8 8.50001 274.1 8.10001C246 7.00001 225.5 0.2 214.1 -12C208.6 -18.5 204.1 -25.7 200.6 -33.5C198.2 -38.4 195.4 -43.1 192.4 -47.6C187.2 -54.6 179.8 -60.1 163.5 -68.4C158.2 -71.1 151.6 -74.8 148.7 -76.6C138.8 -83.3 130.5 -92.2 124.6 -102.6C121.2 -110.4 118.4 -118.5 116.3 -126.8C115.2 -130.7 113.8 -134.5 112.2 -138.3C107.7 -147.1 99.8 -153 81.9 -161C74.3 -163.9 67.3 -168.2 61.4 -173.9C54 -181.6 48.4 -191 45 -201.2C43 -210.6 44.4 -220.4 49 -228.8C53.2 -237.2 58.4 -243.6 73.7 -258.8C93.1 -278 97.8 -283.4 102.4 -291.6C105.2 -296.1 106.6 -301.3 106.4 -306.6C105.6 -316 98.6 -321.6 83 -325.4C70.7 -328 58.1 -329.6 45.5 -330.2C32.4 -330.9 19.4 -332.6 6.5 -335.3C0.5 -337 0.7 -337.1 0.7 -333.3C0.7 -330.8 0.7 -329.9 1.8 -329.7C13.1 -327.7 24.5 -326.3 36 -325.5C72 -321.9 83.2 -319.2 90.7 -312.5C98.2 -305.8 96.7 -296.2 86.8 -283.3C84.7 -280.6 76.5 -271.8 68.5 -264C51.8 -247.4 45.5 -239.9 40.4 -229.5C36.5 -222.7 34.2 -215.1 33.8 -207.3C33.4 -203.6 33.7 -199.8 34.8 -196.2C38.4 -183.4 46 -172 56.4 -163.8C61.6 -160.5 67 -157.6 72.6 -155.1C90.4 -146.7 96.1 -142.7 100.7 -135.6C104.9 -128.4 107.6 -120.5 108.8 -112.2C109.9 -104.6 112.3 -97.3 115.8 -90.5C123.6 -77.8 135.3 -67.9 149.1 -62.4C169.3 -53 174.7 -49.7 180.8 -43.3C186.4 -36.9 191.1 -29.8 194.9 -22.2C200.2 -11.6 208.7 -2.89999 219.3 2.60001C231.4 8.00001 244.2 11.3 257.3 12.5C273 13.8 288.7 13.6 304.3 11.8C313.2 10.7 322.2 10.3 331.2 10.4C354.2 10.4 354.3 10.4 388.2 32.8C399.5 39.1 411.3 44.6 423.3 49.4C435.4 54 448.4 56.1 461.4 55.5C465.3 55.5 476.2 54 485.5 52.8C512.3 49 521.3 48.9 538.1 52.8C546.9 53.9 555.2 57.1 562.4 62.2L564.1 64.1V53.5C564.1 40.8 564.7 41.6 554.2 39.9C534 37.2 513.6 36.7 493.3 38.4C481.6 39.5 469.8 39.5 458.2 38.4C443.7 35.5 429.9 30.1 417.3 22.5C408.4 16.9 399.9 10.8 391.6 4.19998C386.7 0.199982 381.4 -3.29999 375.9 -6.39999C366 -10.3 355.3 -11.6 344.8 -10.2C336.2 -9.50001 333.8 -9.20002 314.7 -6.30002C288.7 -2.40002 273 -2.90001 256.5 -8.10001C250.6 -9.60001 245.1 -12.3 240.3 -16.1C235.5 -19.9 231.6 -24.6 228.7 -29.9C225 -37.3 222.4 -45.2 221 -53.3C219.7 -60.8 217.4 -68 214 -74.8C208 -82.7 200.5 -89.4 192.1 -94.6C183.9 -99.9 176.2 -105.8 168.9 -112.3C156.7 -122.5 147.1 -135.5 140.8 -150.1C132.3 -167.3 125.6 -173.8 106.6 -183.2C99.4 -185.8 93.1 -190.2 88.1 -196C84.4 -200.9 82.4 -206.9 82.4 -213.1C81.9 -216.7 82.4 -220.5 83.7 -223.9C86.7 -232.6 92 -239.9 107.6 -256.9C118.8 -267.7 128.3 -280.1 135.7 -293.7C147.6 -317.4 142.3 -338.8 122.2 -348.9C113.3 -353.4 104.1 -355.9 80.8 -359.5C72.2 -361 63.5 -361.3 54.9 -360.4L54.5 -360.5Z" fill="#0E86D4"/>
<path d="M2.69995 -147.5C2.69995 -132.3 2.69995 -132.1 4.09995 -131C11.4 -125.9 19.2 -121.5 27.4 -117.9C35.3 -113.9 43.9 -109.4 46.4 -107.8C51 -104.9 54.9 -101 57.9 -96.3999C60.9 -91.7999 62.7999 -86.6999 63.5999 -81.2999C65.7999 -67.8999 72.3 -55.4999 82.1 -46.0999C90.9 -37.5999 97.1 -34.7999 120.9 -28.0999C148.1 -20.5999 153.9 -16.9999 165.4 -1.19994C168.6 3.10006 173.3 8.80008 175.9 11.5001C189.9 25.6001 201.5 28.7001 268.3 35.9001C301.2 39.4001 308.5 40.8001 317.8 45.3001C324.8 48.9001 331.2 53.7001 336.7 59.4001C345.4 68.7001 356.4 75.6001 368.5 79.5001C379.1 83.6001 389.3 88.7001 398.9 94.6001C405 98.7001 410.7 103.4 415.8 108.7C422 115.6 429.3 121.5 437.4 125.9C445.8 129.9 450.2 130.8 468.6 131.6C494.4 132.7 504.7 135.9 515.4 145.7C524 153.8 528.2 161.5 535.5 182.2C537 187.1 538.9 191.8 541.2 196.3C545.1 197.1 549.2 197.4 553.2 197.1H564.2V190.8C564.2 184.6 564.2 184.3 559.5 170.3C557 160.2 552.7 150.6 546.6 142.1C538.1 129.8 526 120.4 512.1 115C504.2 112.3 496.3 111.5 473.9 111.3C465.5 111.9 457.1 111.4 448.8 109.8C439 106.8 429.9 101.8 422 95.3001C409.2 85.9001 395.5 77.8001 381.2 71.1001C371 66.8001 361.5 60.8001 353.1 53.5001C346.8 47.1001 339.8 41.6001 332 37.1001C322 32.0001 314.7 30.8001 288.1 29.5001C266.1 29.0001 244.1 26.7001 222.5 22.5001C203.5 18.4001 194.8 14.3001 185.6 4.80008C180.3 -1.09992 175.6 -7.39993 171.6 -14.0999C162.9 -26.9999 155.5 -31.5999 129.5 -39.9999C121.4 -41.8999 113.7 -44.9999 106.5 -49.2999C97.3 -55.5999 90 -64.3999 85.6 -74.6999C83.9 -79.4999 82.6 -84.3999 81.7 -89.3999C80.6 -94.8999 79.2 -100.8 78.6 -102.6C74.5 -115.6 67.4 -121.3 42.7999 -131.3C32.0999 -134.8 22.2 -140.5 13.9 -148.2C9.89995 -152.1 6.49995 -156.5 3.59995 -161.2C2.99995 -162.1 2.79995 -159.1 2.79995 -147.1L2.69995 -147.5Z" fill="#0E86D4"/>
<path d="M1.30002 -102.3V-95.6001L8.90002 -88.6001C17.5 -81.7001 24.1 -72.5001 27.9 -62.2001C34.5 -45.0001 44.4 -34.1001 66.5 -20.1001C78.7 -12.4001 91.9 -6.3001 105.6 -2.0001C122 3.2999 127.9 6.1999 133.8 11.9999C136.9 14.8999 139.7 17.9999 142.3 21.2999C147.7 29.7999 154.9 36.9999 163.4 42.3999C171.6 47.0999 180.7 48.6999 208.9 50.0999C243.1 51.8999 258.9 54.6999 273.5 61.7999C284.7 67.0999 290.3 72.2999 301.1 86.8999C309 99.0999 320.3 108.6 333.7 114.3C341.8 118.1 349.3 123 355.9 128.9C364.8 137 368.2 142.9 373.1 159.3C376.2 171.7 380.8 183.7 386.8 195L388.4 197H425.6L420.1 195.9C415.1 195.1 410.4 193.2 406.2 190.4C402 187.5 398.5 183.8 396 179.5C392.1 172.1 389.2 164.2 387.4 156.1C378.8 126.5 371.3 118.3 341.4 106C336.8 104.1 330.8 101.3 328.1 99.7999C320 94.5999 313 87.9999 307.3 80.2999C300.7 70.7999 291.6 63.1999 280.9 58.3999C266.2 51.8999 249.2 48.5999 215.8 45.7999C184.5 43.2999 175.5 41.2999 166.1 34.7999C159.9 30.1999 154.5 24.4999 150.1 18.1999C146.3 12.3999 141.5 7.1999 136 2.9999C130.3 -1.2001 125.1 -3.3001 107.1 -8.9001C83 -16.4001 70.5 -22.9001 58.6 -34.4001C49.5 -43.0001 42.9 -53.9001 39.6 -65.9001C37.3 -76.2001 31.9 -85.3001 24 -92.0001C17 -98.1001 9.50002 -103.7 1.70002 -108.6C1.10002 -108.6 0.900024 -106.6 0.900024 -101.6L1.30002 -102.3Z" fill="#0E86D4"/>
<path d="M2.79995 -31.0002L8.49995 -28.3002C11.6 -26.8002 18.5 -23.7002 24 -21.3002C42.6 -13.7002 60 -3.60019 75.8 8.69981L94.6 22.6998C105.9 29.8998 115.2 39.7998 121.6 51.5998C131.3 66.9998 135.6 72.0998 143.4 75.5998C152.8 79.8998 161.3 80.3998 188.5 77.8998C224.9 74.6998 239.3 76.8998 250.6 87.7998C257.5 94.7998 262.1 103.7 263.8 113.4C265.3 119.6 266.7 129 270 153.2C270.8 159.9 272.1 167.8 272.7 170.9C274.7 179.6 277.2 188.1 280.3 196.4C280.7 196.9 283.2 197.2 288.8 197.2C294.5 197.2 296.7 197.2 296.2 196.4C294.8 193.1 293.7 189.6 292.8 186.1C291.3 180.8 288.8 172.1 287.3 167.3C285.8 162.5 283.5 153.8 282.3 148.5C277.7 129.1 271.9 107.7 269.9 102.3C267.4 95.0998 263.2 88.4998 257.6 83.2998C254.6 80.3998 251.2 77.9998 247.4 76.2998C235 70.2998 222.4 69.2998 191 71.1998C167.2 72.6998 156 71.7998 147.5 67.3998C144.5 65.5998 141.7 63.4998 139.3 60.9998C133.2 54.5998 127.8 47.5998 123.3 39.9998C118.3 32.5998 111.8 26.3998 104.2 21.8998C95.3 16.2998 80.8 7.09981 67.8 -1.50019C55.5 -9.90019 42.5 -17.3002 29 -23.6002C20.8 -27.6002 11.7 -32.4002 8.79995 -34.3002C5.89995 -36.3002 3.29995 -37.7002 3.09995 -37.7002C2.69995 -36.6002 2.59995 -35.5002 2.79995 -34.4002V-31.0002Z" fill="#0E86D4"/>
<path d="M2.69995 -13.0998C2.69995 -12.3998 2.69995 -11.4998 2.69995 -10.9998C2.69995 -9.1998 2.69995 -8.9998 4.89995 -8.5998C14.1 -5.9998 23.1999 -2.9998 32.0999 0.600196C52.3999 10.2002 68.7 26.6002 78.1 47.0002C82.9 56.2002 86.7 65.8002 89.6 75.7002C98.4 103.7 101.5 110.7 108 119.3C111.4 124.1 116 127.9 121.4 130.5C126.7 133 132.6 134.2 138.5 133.9C147.4 133.6 156.2 132.3 164.9 130C170 128.9 177.3 127.5 180.9 127C201.6 123.8 212.1 130.6 216 149.1C216.9 157.6 217.1 166.2 216.6 174.8C216.6 186.3 216.6 195.8 216.6 196.4C216.6 197 219 197.2 224.3 197.2C229.6 197.2 231.3 197.2 231.3 196.5C231.3 195.8 230.9 166.3 231.3 165.5C231.7 164.7 231.7 158.5 231.7 151.5C232 145.3 231.7 139.2 230.7 133.1C227.5 118.3 220.9 111.4 207.9 109.4C196.8 108.8 185.7 109.9 174.9 112.7C164.2 115.4 153.2 116.7 142.2 116.5C127.2 115.9 119.2 111 110.4 97.0002C106 89.2002 102.3 81.0002 99.4 72.6002C91.5 50.7002 78.5999 31.0002 61.5999 15.1002C48.4999 2.6002 32.2 -6.1998 14.6 -10.4998L3.99995 -13.7998C3.49995 -13.7998 3.09995 -13.7998 3.09995 -12.8998L2.69995 -13.0998Z" fill="#0E86D4"/>
</g>
<defs>
<clipPath id="clip0_34_145">
<rect width="203" height="198" fill="white"/>
</clipPath>
</defs>
</svg>
