<?xml version="1.0" encoding="utf-8"?>
<!-- Generator: Adobe Illustrator 27.1.1, SVG Export Plug-In . SVG Version: 6.00 Build 0)  -->
<svg version="1.1" id="Layer_1" xmlns="http://www.w3.org/2000/svg" xmlns:xlink="http://www.w3.org/1999/xlink" x="0px" y="0px"
	 viewBox="0 0 296 24" style="enable-background:new 0 0 296 24;" xml:space="preserve">
<style type="text/css">
	.st0{fill:#93C5FD;}
</style>
<path class="st0" d="M130.5,23.9c-4.3-0.7-10.6-2.2-18-4.7c-4.2-1.3-12-2.9-16.6-3.3C89,15.4,84.3,14.7,80,13.7
	c-2.8-0.6-6.8-1-13.8-1.3c-14.3-0.8-13.3-0.9-18.7,1.8C39.2,18.8,30.4,19.4,22,16c-5.1-1.6-10.2-2.3-15.4-1.9c-4.9,0-5.5,0-6.1-0.5
	c-0.5-0.5-0.8-1.2-0.3-3.2C0.8,8.5,1.6,7.7,5.5,7c7.7-1.5,13.9-2.5,17.2-2.9c4.6-0.5,24.4-0.9,29.8-0.5c2.3,0,8.4,0.6,13.5,0.9
	c5.1,0.2,10.5,0.8,12.1,1.2c1.7,0.4,5.5,0.9,9,1.3c3.4,0.4,7.4,0.9,9,1.1c1.5,0.2,3.8,0.5,5.5,0.5c1.6,0,6,0,10.2,0.9
	c10.4,1.2,19.9,1.5,31.7,0.9c8,0.2,16-0.5,23.9-2.2c4.6-1.6,9.3-2.6,14-2.9c3.2,0,6.8-0.7,7.7-0.9c0.9-0.2,4.3-0.5,7.1-0.7
	c2.8-0.2,6.8-0.8,8.9-1.2c5.5-1.7,11.1-2.5,16.7-2.4c8,0.1,15.9,2,23.7,5.5c7.5,2.9,13.6,5.1,16.2,5.7c2.6,0.6,5.1,0.6,7.7,0
	c1.3-0.4,2.6-0.7,3.8-0.8c1.7,0,3.8-0.7,5.3-1.1c1.4-0.4,3.5-0.9,5-1.2c1.5-0.3,3.1-0.5,3.4-0.6c0.1,0,0.3,0,0.4,0.1
	c0.1,0.1,0.3,0.2,0.4,0.4c0.2,0.5,0.3,0.5,0.5,0c0.2-0.5,0.5-0.8,0.7,0c0.1,0.1,0.1,0.2,0.2,0.2c0.1,0,0.2-0.1,0.2-0.2
	c0.2,0,0.4,0,0.5,0c0.1,0.1,0.1,0.1,0.2,0.1c0.1,0,0.2-0.1,0.2-0.1c0,0,0-0.1,0.1-0.1c0,0,0.1,0,0.1,0s0.1,0,0.1,0
	c0,0,0,0.1,0.1,0.1c0,0,0.2-0.7,0.2,0s0.3,0.7,1.4,0.8c0.7,0,1.3,0.2,2,0.5c0.3,0.3,0.7,0.5,1.1,0.5c0.3,0,0.9,2.1,0.8,2.4
	c-1.8,0.8-3.6,1.4-5.5,1.6c-3.4,0.3-6.7,1.2-10.1,2.5c-2.6,0.9-6,1.9-7.4,2.3c-1.5,0.4-3.2,1-3.8,1.3c-5.3,1.5-10.6,1.8-15.9,0.9
	c-1.9-0.6-8.7-3.9-11.9-5.7c-2.3-1.4-7.4-4.1-9-4.9c-1.6-0.8-8.6-2-13.4-2.7c-4.7-0.4-9.4,0.2-14.1,1.8c-4.1,1-8.1,1.6-12.2,1.8
	c-7.7,0.6-16.9,1.7-18.4,2.2c-0.8,0-2.8,0.9-4.5,1.6c-8.4,2.9-11.5,4.3-13.3,5.2c-2.3,1.3-4.7,2.3-7.1,2.9c-3.2,0.8-6.4,1.2-9.7,1
	c-3.8,0-8,0-9.4,0L130.5,23.9z"/>
</svg>
