<svg width="296" height="24" viewBox="0 0 296 24" fill="none" xmlns="http://www.w3.org/2000/svg">
<g clip-path="url(#clip0_34_163)">
<path d="M130.5 23.9001C126.2 23.2001 119.9 21.7001 112.5 19.2001C108.3 17.9001 100.5 16.3001 95.9001 15.9001C89.0001 15.4001 84.3001 14.7001 80.0001 13.7001C77.2001 13.1001 73.2001 12.7001 66.2001 12.4001C51.9001 11.6001 52.9001 11.5001 47.5001 14.2001C39.2001 18.8001 30.4001 19.4001 22.0001 16.0001C16.9001 14.4001 11.8001 13.7001 6.60007 14.1001C1.70007 14.1001 1.10007 14.1001 0.500073 13.6001C7.28369e-05 13.1001 -0.299927 12.4001 0.200073 10.4001C0.800073 8.50013 1.60007 7.70013 5.50007 7.00013C13.2001 5.50013 19.4001 4.50013 22.7001 4.10013C27.3001 3.60013 47.1001 3.20013 52.5001 3.60013C54.8001 3.60013 60.9001 4.20013 66.0001 4.50013C71.1001 4.70013 76.5001 5.30013 78.1001 5.70013C79.8001 6.10013 83.6001 6.60013 87.1001 7.00013C90.5001 7.40013 94.5001 7.90013 96.1001 8.10013C97.6001 8.30013 99.9001 8.60013 101.6 8.60013C103.2 8.60013 107.6 8.60013 111.8 9.50013C122.2 10.7001 131.7 11.0001 143.5 10.4001C151.5 10.6001 159.5 9.90013 167.4 8.20013C172 6.60013 176.7 5.60013 181.4 5.30013C184.6 5.30013 188.2 4.60013 189.1 4.40013C190 4.20013 193.4 3.90013 196.2 3.70013C199 3.50013 203 2.90013 205.1 2.50013C210.6 0.80013 216.2 0.000130207 221.8 0.10013C229.8 0.20013 237.7 2.10013 245.5 5.60013C253 8.50013 259.1 10.7001 261.7 11.3001C264.3 11.9001 266.8 11.9001 269.4 11.3001C270.7 10.9001 272 10.6001 273.2 10.5001C274.9 10.5001 277 9.80013 278.5 9.40013C279.9 9.00013 282 8.50013 283.5 8.20013C285 7.90013 286.6 7.70013 286.9 7.60013C287 7.60013 287.2 7.60013 287.3 7.70013C287.4 7.80013 287.6 7.90013 287.7 8.10013C287.9 8.60013 288 8.60013 288.2 8.10013C288.4 7.60013 288.7 7.30013 288.9 8.10013C289 8.20013 289 8.30013 289.1 8.30013C289.2 8.30013 289.3 8.20013 289.3 8.10013C289.5 8.10013 289.7 8.10013 289.8 8.10013C289.9 8.20013 289.9 8.20013 290 8.20013C290.1 8.20013 290.2 8.10013 290.2 8.10013C290.2 8.10013 290.2 8.00013 290.3 8.00013H290.4H290.5C290.5 8.00013 290.5 8.10013 290.6 8.10013C290.6 8.10013 290.8 7.40013 290.8 8.10013C290.8 8.80013 291.1 8.80013 292.2 8.90013C292.9 8.90013 293.5 9.10013 294.2 9.40013C294.5 9.70013 294.9 9.90013 295.3 9.90013C295.6 9.90013 296.2 12.0001 296.1 12.3001C294.3 13.1001 292.5 13.7001 290.6 13.9001C287.2 14.2001 283.9 15.1001 280.5 16.4001C277.9 17.3001 274.5 18.3001 273.1 18.7001C271.6 19.1001 269.9 19.7001 269.3 20.0001C264 21.5001 258.7 21.8001 253.4 20.9001C251.5 20.3001 244.7 17.0001 241.5 15.2001C239.2 13.8001 234.1 11.1001 232.5 10.3001C230.9 9.50013 223.9 8.30013 219.1 7.60013C214.4 7.20013 209.7 7.80013 205 9.40013C200.9 10.4001 196.9 11.0001 192.8 11.2001C185.1 11.8001 175.9 12.9001 174.4 13.4001C173.6 13.4001 171.6 14.3001 169.9 15.0001C161.5 17.9001 158.4 19.3001 156.6 20.2001C154.3 21.5001 151.9 22.5001 149.5 23.1001C146.3 23.9001 143.1 24.3001 139.8 24.1001C136 24.1001 131.8 24.1001 130.4 24.1001L130.5 23.9001Z" fill="#0E86D4"/>
</g>
<defs>
<clipPath id="clip0_34_163">
<rect width="296" height="24" fill="white"/>
</clipPath>
</defs>
</svg>
