<svg width="632" height="448" viewBox="0 0 632 448" fill="none" xmlns="http://www.w3.org/2000/svg">
<rect x="328" y="96" width="304" height="256" rx="8" fill="white"/>
<path d="M353.36 140V124.74H356.24V140H353.36ZM358.225 128.78H360.925V129.14C360.925 129.353 360.905 129.527 360.865 129.66C360.825 129.793 360.745 129.927 360.625 130.06L360.905 130.26C361.332 129.633 361.785 129.193 362.265 128.94C362.759 128.673 363.332 128.54 363.985 128.54C365.719 128.54 366.885 129.167 367.485 130.42C367.685 130.86 367.812 131.307 367.865 131.76C367.919 132.213 367.945 132.807 367.945 133.54V140H365.265V133.5C365.265 132.42 365.079 131.673 364.705 131.26C364.385 130.927 363.912 130.76 363.285 130.76C362.539 130.76 361.972 130.987 361.585 131.44C361.359 131.707 361.192 132.067 361.085 132.52C360.979 132.96 360.925 133.547 360.925 134.28V140H358.225V128.78ZM374.975 140.22C373.855 140.22 372.862 139.973 371.995 139.48C371.142 138.987 370.475 138.293 369.995 137.4C369.515 136.507 369.275 135.48 369.275 134.32C369.275 133.2 369.515 132.2 369.995 131.32C370.475 130.44 371.142 129.76 371.995 129.28C372.862 128.787 373.855 128.54 374.975 128.54C376.322 128.54 377.462 128.887 378.395 129.58C379.342 130.26 379.955 131.187 380.235 132.36H377.295C377.122 131.84 376.835 131.44 376.435 131.16C376.035 130.88 375.548 130.74 374.975 130.74C374.095 130.74 373.382 131.067 372.835 131.72C372.302 132.373 372.035 133.24 372.035 134.32C372.035 135.44 372.302 136.34 372.835 137.02C373.382 137.687 374.095 138.02 374.975 138.02C375.615 138.02 376.135 137.867 376.535 137.56C376.935 137.24 377.208 136.793 377.355 136.22H380.275C380.022 137.46 379.415 138.44 378.455 139.16C377.495 139.867 376.335 140.22 374.975 140.22ZM386.837 140.22C385.717 140.22 384.723 139.973 383.857 139.48C382.99 138.987 382.31 138.293 381.817 137.4C381.337 136.507 381.097 135.48 381.097 134.32C381.097 133.2 381.337 132.2 381.817 131.32C382.31 130.44 382.99 129.76 383.857 129.28C384.723 128.787 385.717 128.54 386.837 128.54C387.957 128.54 388.95 128.787 389.817 129.28C390.697 129.773 391.377 130.46 391.857 131.34C392.35 132.207 392.597 133.2 392.597 134.32C392.597 135.48 392.357 136.507 391.877 137.4C391.397 138.293 390.717 138.987 389.837 139.48C388.97 139.973 387.97 140.22 386.837 140.22ZM386.837 137.9C387.717 137.9 388.43 137.567 388.977 136.9C389.523 136.233 389.797 135.373 389.797 134.32C389.797 133.307 389.523 132.48 388.977 131.84C388.43 131.187 387.717 130.86 386.837 130.86C386.263 130.86 385.75 131.007 385.297 131.3C384.843 131.593 384.49 132.007 384.237 132.54C383.983 133.06 383.857 133.653 383.857 134.32C383.857 135.387 384.13 136.253 384.677 136.92C385.237 137.573 385.957 137.9 386.837 137.9ZM394.004 128.78H396.704V129.14C396.704 129.353 396.684 129.527 396.644 129.66C396.604 129.793 396.524 129.927 396.404 130.06L396.684 130.26C397.11 129.633 397.564 129.193 398.044 128.94C398.537 128.673 399.11 128.54 399.764 128.54C400.43 128.54 401.037 128.693 401.584 129C402.13 129.293 402.47 129.74 402.604 130.34H402.864C403.104 129.673 403.51 129.207 404.084 128.94C404.67 128.673 405.31 128.54 406.004 128.54C407.23 128.54 408.15 128.9 408.764 129.62C409.377 130.34 409.684 131.347 409.684 132.64V140H406.984V132.98C406.984 131.5 406.397 130.76 405.224 130.76C404.664 130.76 404.217 130.94 403.884 131.3C403.63 131.58 403.45 131.94 403.344 132.38C403.25 132.82 403.204 133.38 403.204 134.06V140H400.504V132.98C400.504 132.233 400.35 131.68 400.044 131.32C399.737 130.947 399.297 130.76 398.724 130.76C398.164 130.76 397.71 130.953 397.364 131.34C397.137 131.593 396.97 131.933 396.864 132.36C396.757 132.787 396.704 133.353 396.704 134.06V140H394.004V128.78ZM416.73 140.22C415.597 140.22 414.597 139.973 413.73 139.48C412.863 138.987 412.19 138.307 411.71 137.44C411.243 136.56 411.01 135.567 411.01 134.46C411.01 133.433 411.217 132.473 411.63 131.58C412.057 130.673 412.69 129.94 413.53 129.38C414.383 128.82 415.423 128.54 416.65 128.54C417.663 128.54 418.597 128.753 419.45 129.18C420.303 129.593 420.99 130.24 421.51 131.12C422.03 131.987 422.29 133.067 422.29 134.36V134.94H415.17C415.09 134.94 414.87 134.94 414.51 134.94C414.15 134.94 413.863 134.92 413.65 134.88L413.57 135.18C413.677 135.207 413.757 135.26 413.81 135.34C413.877 135.42 413.93 135.533 413.97 135.68C414.077 135.96 414.163 136.153 414.23 136.26C414.497 136.78 414.85 137.187 415.29 137.48C415.743 137.76 416.257 137.9 416.83 137.9C417.443 137.9 417.97 137.747 418.41 137.44C418.85 137.12 419.163 136.713 419.35 136.22H422.11C421.75 137.407 421.117 138.373 420.21 139.12C419.303 139.853 418.143 140.22 416.73 140.22ZM413.89 133.22C414.09 133.1 414.27 133.02 414.43 132.98C414.59 132.94 414.77 132.92 414.97 132.92H418.45C418.663 132.92 418.85 132.94 419.01 132.98C419.183 133.02 419.377 133.1 419.59 133.22L419.75 132.94C419.657 132.887 419.59 132.84 419.55 132.8C419.51 132.747 419.477 132.693 419.45 132.64C419.437 132.587 419.43 132.553 419.43 132.54C419.377 132.313 419.27 132.093 419.11 131.88C418.857 131.493 418.523 131.2 418.11 131C417.697 130.787 417.237 130.68 416.73 130.68C416.223 130.68 415.763 130.78 415.35 130.98C414.95 131.18 414.623 131.48 414.37 131.88C414.197 132.093 414.083 132.313 414.03 132.54C414.03 132.553 414.017 132.593 413.99 132.66C413.963 132.713 413.93 132.767 413.89 132.82C413.85 132.86 413.79 132.9 413.71 132.94L413.89 133.22ZM433.195 140.28C432.275 140.28 431.428 140.133 430.655 139.84C429.881 139.533 429.261 139.08 428.795 138.48C428.328 137.88 428.095 137.16 428.095 136.32C428.095 135.587 428.281 134.913 428.655 134.3C429.028 133.673 429.515 133.147 430.115 132.72C430.435 132.493 430.735 132.32 431.015 132.2C431.308 132.067 431.635 131.98 431.995 131.94L432.035 131.66C431.395 131.407 430.881 131 430.495 130.44C430.041 129.787 429.815 129.08 429.815 128.32C429.815 127.493 430.008 126.793 430.395 126.22C430.781 125.633 431.295 125.193 431.935 124.9C432.588 124.607 433.308 124.46 434.095 124.46C435.268 124.46 436.241 124.767 437.015 125.38C437.788 125.98 438.175 126.84 438.175 127.96C438.175 128.667 437.995 129.327 437.635 129.94C437.275 130.553 436.808 131.067 436.235 131.48C435.981 131.653 435.775 131.78 435.615 131.86C435.455 131.927 435.248 131.967 434.995 131.98L434.935 132.26C435.188 132.34 435.375 132.433 435.495 132.54C435.628 132.633 435.795 132.813 435.995 133.08L436.795 134.06C436.968 134.287 437.095 134.48 437.175 134.64C437.268 134.8 437.348 135.013 437.415 135.28L437.695 135.34C437.948 134.873 438.135 134.413 438.255 133.96C438.375 133.493 438.468 132.967 438.535 132.38H441.055C440.868 134.327 440.295 135.947 439.335 137.24L441.555 140H438.235C438.048 139.76 437.908 139.553 437.815 139.38C437.721 139.193 437.695 138.94 437.735 138.62L437.475 138.54C437.248 138.98 436.748 139.387 435.975 139.76C435.215 140.107 434.288 140.28 433.195 140.28ZM433.715 130.48C434.315 130.093 434.775 129.713 435.095 129.34C435.428 128.967 435.595 128.54 435.595 128.06C435.595 127.687 435.455 127.36 435.175 127.08C434.908 126.8 434.548 126.66 434.095 126.66C433.641 126.66 433.255 126.807 432.935 127.1C432.628 127.38 432.475 127.753 432.475 128.22C432.475 128.66 432.581 129.06 432.795 129.42C433.008 129.78 433.315 130.133 433.715 130.48ZM433.255 137.98C433.748 137.98 434.235 137.9 434.715 137.74C435.195 137.58 435.615 137.367 435.975 137.1L433.055 133.46C432.295 133.927 431.721 134.36 431.335 134.76C430.948 135.16 430.755 135.633 430.755 136.18C430.755 136.74 430.988 137.18 431.455 137.5C431.935 137.82 432.535 137.98 433.255 137.98ZM447.647 140V124.74H457.827V127.32H450.527V131.08H457.067V133.64H450.527V137.42H457.827V140H447.647ZM462.209 134.34L458.349 128.78H461.449L463.229 131.5C463.509 131.927 463.689 132.333 463.769 132.72H464.049C464.129 132.307 464.303 131.9 464.569 131.5L466.389 128.78H469.529L465.589 134.34L469.509 140H466.389L464.569 137.2C464.316 136.84 464.143 136.433 464.049 135.98H463.769C463.676 136.433 463.503 136.84 463.249 137.2L461.449 140H458.369L462.209 134.34ZM476.27 128.56C477.243 128.56 478.103 128.807 478.85 129.3C479.597 129.793 480.177 130.487 480.59 131.38C481.003 132.26 481.21 133.267 481.21 134.4C481.21 135.533 481.003 136.547 480.59 137.44C480.177 138.32 479.597 139.007 478.85 139.5C478.103 139.993 477.243 140.24 476.27 140.24C475.55 140.24 474.943 140.113 474.45 139.86C473.957 139.593 473.497 139.147 473.07 138.52L472.79 138.72C472.897 138.867 472.97 139.007 473.01 139.14C473.063 139.273 473.09 139.44 473.09 139.64V144.04H470.39V128.78H473.09V129.14C473.09 129.34 473.063 129.513 473.01 129.66C472.97 129.793 472.897 129.933 472.79 130.08L473.07 130.26C473.497 129.633 473.957 129.193 474.45 128.94C474.943 128.687 475.55 128.56 476.27 128.56ZM475.65 130.88C474.797 130.88 474.097 131.207 473.55 131.86C473.017 132.513 472.75 133.36 472.75 134.4C472.75 135.44 473.017 136.287 473.55 136.94C474.097 137.593 474.797 137.92 475.65 137.92C476.503 137.92 477.19 137.593 477.71 136.94C478.23 136.273 478.49 135.427 478.49 134.4C478.49 133.373 478.23 132.533 477.71 131.88C477.19 131.213 476.503 130.88 475.65 130.88ZM487.882 140.22C486.748 140.22 485.748 139.973 484.882 139.48C484.015 138.987 483.342 138.307 482.862 137.44C482.395 136.56 482.162 135.567 482.162 134.46C482.162 133.433 482.368 132.473 482.782 131.58C483.208 130.673 483.842 129.94 484.682 129.38C485.535 128.82 486.575 128.54 487.802 128.54C488.815 128.54 489.748 128.753 490.602 129.18C491.455 129.593 492.142 130.24 492.662 131.12C493.182 131.987 493.442 133.067 493.442 134.36V134.94H486.322C486.242 134.94 486.022 134.94 485.662 134.94C485.302 134.94 485.015 134.92 484.802 134.88L484.722 135.18C484.828 135.207 484.908 135.26 484.962 135.34C485.028 135.42 485.082 135.533 485.122 135.68C485.228 135.96 485.315 136.153 485.382 136.26C485.648 136.78 486.002 137.187 486.442 137.48C486.895 137.76 487.408 137.9 487.982 137.9C488.595 137.9 489.122 137.747 489.562 137.44C490.002 137.12 490.315 136.713 490.502 136.22H493.262C492.902 137.407 492.268 138.373 491.362 139.12C490.455 139.853 489.295 140.22 487.882 140.22ZM485.042 133.22C485.242 133.1 485.422 133.02 485.582 132.98C485.742 132.94 485.922 132.92 486.122 132.92H489.602C489.815 132.92 490.002 132.94 490.162 132.98C490.335 133.02 490.528 133.1 490.742 133.22L490.902 132.94C490.808 132.887 490.742 132.84 490.702 132.8C490.662 132.747 490.628 132.693 490.602 132.64C490.588 132.587 490.582 132.553 490.582 132.54C490.528 132.313 490.422 132.093 490.262 131.88C490.008 131.493 489.675 131.2 489.262 131C488.848 130.787 488.388 130.68 487.882 130.68C487.375 130.68 486.915 130.78 486.502 130.98C486.102 131.18 485.775 131.48 485.522 131.88C485.348 132.093 485.235 132.313 485.182 132.54C485.182 132.553 485.168 132.593 485.142 132.66C485.115 132.713 485.082 132.767 485.042 132.82C485.002 132.86 484.942 132.9 484.862 132.94L485.042 133.22ZM494.815 128.78H497.515V129.14C497.515 129.353 497.495 129.527 497.455 129.66C497.415 129.793 497.335 129.927 497.215 130.06L497.495 130.26C497.921 129.633 498.375 129.193 498.855 128.94C499.348 128.673 499.921 128.54 500.575 128.54C502.308 128.54 503.475 129.167 504.075 130.42C504.275 130.86 504.401 131.307 504.455 131.76C504.508 132.213 504.535 132.807 504.535 133.54V140H501.855V133.5C501.855 132.42 501.668 131.673 501.295 131.26C500.975 130.927 500.501 130.76 499.875 130.76C499.128 130.76 498.561 130.987 498.175 131.44C497.948 131.707 497.781 132.067 497.675 132.52C497.568 132.96 497.515 133.547 497.515 134.28V140H494.815V128.78ZM511.184 140.22C509.797 140.22 508.597 139.887 507.584 139.22C506.571 138.553 505.977 137.553 505.804 136.22H508.464C508.637 136.82 508.957 137.287 509.424 137.62C509.891 137.94 510.471 138.1 511.164 138.1C511.751 138.1 512.224 137.987 512.584 137.76C512.957 137.533 513.144 137.213 513.144 136.8C513.144 136.347 512.924 136.02 512.484 135.82C512.057 135.62 511.391 135.433 510.484 135.26C509.617 135.087 508.897 134.9 508.324 134.7C507.751 134.5 507.264 134.18 506.864 133.74C506.464 133.287 506.264 132.673 506.264 131.9C506.264 130.793 506.671 129.96 507.484 129.4C508.311 128.827 509.351 128.54 510.604 128.54C511.924 128.54 513.017 128.873 513.884 129.54C514.764 130.207 515.304 131.147 515.504 132.36H512.964C512.817 131.773 512.531 131.347 512.104 131.08C511.677 130.8 511.171 130.66 510.584 130.66C510.051 130.66 509.624 130.767 509.304 130.98C508.997 131.18 508.844 131.453 508.844 131.8C508.844 132.213 509.051 132.507 509.464 132.68C509.877 132.853 510.531 133.027 511.424 133.2C512.344 133.373 513.091 133.56 513.664 133.76C514.251 133.947 514.751 134.267 515.164 134.72C515.591 135.173 515.804 135.8 515.804 136.6C515.804 137.707 515.391 138.587 514.564 139.24C513.751 139.893 512.624 140.22 511.184 140.22ZM522.507 140.22C521.374 140.22 520.374 139.973 519.507 139.48C518.641 138.987 517.967 138.307 517.487 137.44C517.021 136.56 516.787 135.567 516.787 134.46C516.787 133.433 516.994 132.473 517.407 131.58C517.834 130.673 518.467 129.94 519.307 129.38C520.161 128.82 521.201 128.54 522.427 128.54C523.441 128.54 524.374 128.753 525.227 129.18C526.081 129.593 526.767 130.24 527.287 131.12C527.807 131.987 528.067 133.067 528.067 134.36V134.94H520.947C520.867 134.94 520.647 134.94 520.287 134.94C519.927 134.94 519.641 134.92 519.427 134.88L519.347 135.18C519.454 135.207 519.534 135.26 519.587 135.34C519.654 135.42 519.707 135.533 519.747 135.68C519.854 135.96 519.941 136.153 520.007 136.26C520.274 136.78 520.627 137.187 521.067 137.48C521.521 137.76 522.034 137.9 522.607 137.9C523.221 137.9 523.747 137.747 524.187 137.44C524.627 137.12 524.941 136.713 525.127 136.22H527.887C527.527 137.407 526.894 138.373 525.987 139.12C525.081 139.853 523.921 140.22 522.507 140.22ZM519.667 133.22C519.867 133.1 520.047 133.02 520.207 132.98C520.367 132.94 520.547 132.92 520.747 132.92H524.227C524.441 132.92 524.627 132.94 524.787 132.98C524.961 133.02 525.154 133.1 525.367 133.22L525.527 132.94C525.434 132.887 525.367 132.84 525.327 132.8C525.287 132.747 525.254 132.693 525.227 132.64C525.214 132.587 525.207 132.553 525.207 132.54C525.154 132.313 525.047 132.093 524.887 131.88C524.634 131.493 524.301 131.2 523.887 131C523.474 130.787 523.014 130.68 522.507 130.68C522.001 130.68 521.541 130.78 521.127 130.98C520.727 131.18 520.401 131.48 520.147 131.88C519.974 132.093 519.861 132.313 519.807 132.54C519.807 132.553 519.794 132.593 519.767 132.66C519.741 132.713 519.707 132.767 519.667 132.82C519.627 132.86 519.567 132.9 519.487 132.94L519.667 133.22ZM534.3 140.22C532.914 140.22 531.714 139.887 530.7 139.22C529.687 138.553 529.094 137.553 528.92 136.22H531.58C531.754 136.82 532.074 137.287 532.54 137.62C533.007 137.94 533.587 138.1 534.28 138.1C534.867 138.1 535.34 137.987 535.7 137.76C536.074 137.533 536.26 137.213 536.26 136.8C536.26 136.347 536.04 136.02 535.6 135.82C535.174 135.62 534.507 135.433 533.6 135.26C532.734 135.087 532.014 134.9 531.44 134.7C530.867 134.5 530.38 134.18 529.98 133.74C529.58 133.287 529.38 132.673 529.38 131.9C529.38 130.793 529.787 129.96 530.6 129.4C531.427 128.827 532.467 128.54 533.72 128.54C535.04 128.54 536.134 128.873 537 129.54C537.88 130.207 538.42 131.147 538.62 132.36H536.08C535.934 131.773 535.647 131.347 535.22 131.08C534.794 130.8 534.287 130.66 533.7 130.66C533.167 130.66 532.74 130.767 532.42 130.98C532.114 131.18 531.96 131.453 531.96 131.8C531.96 132.213 532.167 132.507 532.58 132.68C532.994 132.853 533.647 133.027 534.54 133.2C535.46 133.373 536.207 133.56 536.78 133.76C537.367 133.947 537.867 134.267 538.28 134.72C538.707 135.173 538.92 135.8 538.92 136.6C538.92 137.707 538.507 138.587 537.68 139.24C536.867 139.893 535.74 140.22 534.3 140.22Z" fill="black"/>
<path opacity="0.4" d="M355.78 182V180.25H352.41V179.02L355.81 174.37H357.05V179.11H358.09V180.25H357.05V182H355.78ZM353.52 179.25C353.68 179.19 353.82 179.153 353.94 179.14C354.067 179.12 354.2 179.11 354.34 179.11H355.78V176.87C355.78 176.703 355.783 176.567 355.79 176.46C355.803 176.347 355.833 176.203 355.88 176.03L355.76 175.99C355.62 176.223 355.477 176.447 355.33 176.66L354.05 178.47C353.97 178.59 353.887 178.697 353.8 178.79C353.72 178.883 353.607 178.997 353.46 179.13L353.52 179.25Z" fill="black"/>
<line x1="368.5" y1="177.5" x2="607.5" y2="177.5" stroke="#E9E9E9" stroke-linecap="round" stroke-dasharray="6 6"/>
<path opacity="0.4" d="M355.36 210.12C354.8 210.12 354.307 210.02 353.88 209.82C353.46 209.613 353.13 209.323 352.89 208.95C352.65 208.57 352.517 208.13 352.49 207.63H353.76C353.853 208.557 354.397 209.02 355.39 209.02C355.83 209.02 356.173 208.907 356.42 208.68C356.667 208.447 356.79 208.13 356.79 207.73C356.79 207.317 356.64 207.01 356.34 206.81C356.047 206.61 355.643 206.51 355.13 206.51H354.66V205.45H355.09C355.457 205.45 355.76 205.357 356 205.17C356.247 204.983 356.37 204.713 356.37 204.36C356.37 204.047 356.27 203.8 356.07 203.62C355.877 203.44 355.6 203.35 355.24 203.35C354.873 203.35 354.577 203.453 354.35 203.66C354.123 203.867 353.983 204.177 353.93 204.59H352.75C352.77 204.137 352.89 203.733 353.11 203.38C353.337 203.02 353.633 202.743 354 202.55C354.373 202.35 354.787 202.25 355.24 202.25C355.707 202.25 356.117 202.34 356.47 202.52C356.83 202.693 357.107 202.937 357.3 203.25C357.5 203.557 357.6 203.907 357.6 204.3C357.6 204.707 357.48 205.053 357.24 205.34C357.007 205.627 356.703 205.773 356.33 205.78V205.94C356.857 205.967 357.277 206.147 357.59 206.48C357.903 206.813 358.06 207.24 358.06 207.76C358.06 208.22 357.943 208.63 357.71 208.99C357.483 209.343 357.163 209.62 356.75 209.82C356.343 210.02 355.88 210.12 355.36 210.12Z" fill="black"/>
<line x1="368.5" y1="205.5" x2="607.5" y2="205.5" stroke="#E9E9E9" stroke-linecap="round" stroke-dasharray="6 6"/>
<path opacity="0.4" d="M352.56 237L354.96 234.92C355.467 234.493 355.84 234.1 356.08 233.74C356.32 233.38 356.44 233.003 356.44 232.61C356.44 232.217 356.333 231.91 356.12 231.69C355.913 231.463 355.603 231.35 355.19 231.35C354.283 231.35 353.8 231.9 353.74 233H352.55C352.583 232.133 352.83 231.46 353.29 230.98C353.75 230.5 354.387 230.26 355.2 230.26C355.673 230.26 356.093 230.353 356.46 230.54C356.833 230.72 357.12 230.98 357.32 231.32C357.527 231.66 357.63 232.057 357.63 232.51C357.63 233.11 357.457 233.67 357.11 234.19C356.763 234.71 356.313 235.21 355.76 235.69L354.83 236.49C354.63 236.663 354.433 236.81 354.24 236.93L354.3 237.05C354.473 236.977 354.61 236.927 354.71 236.9C354.81 236.873 354.933 236.86 355.08 236.86H357.97V238H352.56V237Z" fill="black"/>
<line x1="368.5" y1="233.5" x2="607.5" y2="233.5" stroke="#E9E9E9" stroke-linecap="round" stroke-dasharray="6 6"/>
<path opacity="0.4" d="M354.48 260.6C354.48 260.34 354.513 260.097 354.58 259.87L354.46 259.82C354.307 260.067 354.137 260.27 353.95 260.43C353.717 260.63 353.457 260.797 353.17 260.93C352.883 261.063 352.613 261.15 352.36 261.19V260.01C352.847 259.91 353.28 259.707 353.66 259.4C354.04 259.093 354.327 258.75 354.52 258.37H355.75V266H354.48V260.6Z" fill="black"/>
<line x1="368.5" y1="261.5" x2="607.5" y2="261.5" stroke="#E9E9E9" stroke-linecap="round" stroke-dasharray="6 6"/>
<path opacity="0.4" d="M355.36 294.12C354.48 294.12 353.8 293.797 353.32 293.15C352.84 292.503 352.6 291.51 352.6 290.17C352.6 288.837 352.837 287.85 353.31 287.21C353.783 286.57 354.453 286.25 355.32 286.25C356.193 286.25 356.867 286.573 357.34 287.22C357.82 287.867 358.06 288.863 358.06 290.21C358.06 291.537 357.823 292.52 357.35 293.16C356.883 293.8 356.22 294.12 355.36 294.12ZM355.33 292.98C355.797 292.98 356.157 292.763 356.41 292.33C356.663 291.897 356.79 291.187 356.79 290.2C356.79 289.2 356.66 288.48 356.4 288.04C356.14 287.6 355.773 287.38 355.3 287.38C354.833 287.38 354.477 287.6 354.23 288.04C353.99 288.48 353.87 289.193 353.87 290.18C353.87 291.18 353.993 291.897 354.24 292.33C354.493 292.763 354.857 292.98 355.33 292.98Z" fill="black"/>
<line x1="368.5" y1="289.5" x2="607.5" y2="289.5" stroke="#E9E9E9" stroke-linecap="round" stroke-dasharray="6 6"/>
<line x1="584.5" y1="168" x2="584.5" y2="300" stroke="#E9E9E9"/>
<path opacity="0.4" d="M584.203 322.13C583.676 322.13 583.176 322.043 582.703 321.87C582.236 321.697 581.839 321.42 581.513 321.04C581.193 320.66 580.999 320.173 580.933 319.58H582.223C582.336 320.1 582.576 320.473 582.943 320.7C583.316 320.927 583.743 321.04 584.223 321.04C584.683 321.04 585.049 320.943 585.323 320.75C585.596 320.557 585.733 320.27 585.733 319.89C585.733 319.61 585.646 319.387 585.473 319.22C585.306 319.053 585.096 318.93 584.843 318.85C584.589 318.763 584.239 318.67 583.793 318.57C583.239 318.45 582.789 318.327 582.443 318.2C582.096 318.073 581.799 317.87 581.553 317.59C581.313 317.31 581.193 316.927 581.193 316.44C581.193 315.98 581.306 315.587 581.533 315.26C581.759 314.927 582.069 314.677 582.463 314.51C582.863 314.337 583.316 314.25 583.823 314.25C584.583 314.25 585.236 314.447 585.783 314.84C586.336 315.233 586.673 315.813 586.793 316.58H585.523C585.423 316.16 585.219 315.85 584.913 315.65C584.606 315.443 584.236 315.34 583.803 315.34C583.389 315.34 583.063 315.427 582.823 315.6C582.583 315.773 582.463 316.017 582.463 316.33C582.463 316.577 582.539 316.773 582.693 316.92C582.853 317.067 583.053 317.18 583.293 317.26C583.533 317.333 583.859 317.417 584.273 317.51C584.859 317.637 585.333 317.77 585.693 317.91C586.053 318.043 586.359 318.263 586.613 318.57C586.873 318.87 587.003 319.283 587.003 319.81C587.003 320.523 586.756 321.09 586.263 321.51C585.776 321.923 585.089 322.13 584.203 322.13Z" fill="black"/>
<line x1="552.5" y1="168" x2="552.5" y2="300" stroke="#E9E9E9"/>
<path opacity="0.4" d="M552.203 322.13C551.676 322.13 551.176 322.043 550.703 321.87C550.236 321.697 549.839 321.42 549.513 321.04C549.193 320.66 548.999 320.173 548.933 319.58H550.223C550.336 320.1 550.576 320.473 550.943 320.7C551.316 320.927 551.743 321.04 552.223 321.04C552.683 321.04 553.049 320.943 553.323 320.75C553.596 320.557 553.733 320.27 553.733 319.89C553.733 319.61 553.646 319.387 553.473 319.22C553.306 319.053 553.096 318.93 552.843 318.85C552.589 318.763 552.239 318.67 551.793 318.57C551.239 318.45 550.789 318.327 550.443 318.2C550.096 318.073 549.799 317.87 549.553 317.59C549.313 317.31 549.193 316.927 549.193 316.44C549.193 315.98 549.306 315.587 549.533 315.26C549.759 314.927 550.069 314.677 550.463 314.51C550.863 314.337 551.316 314.25 551.823 314.25C552.583 314.25 553.236 314.447 553.783 314.84C554.336 315.233 554.673 315.813 554.793 316.58H553.523C553.423 316.16 553.219 315.85 552.913 315.65C552.606 315.443 552.236 315.34 551.803 315.34C551.389 315.34 551.063 315.427 550.823 315.6C550.583 315.773 550.463 316.017 550.463 316.33C550.463 316.577 550.539 316.773 550.693 316.92C550.853 317.067 551.053 317.18 551.293 317.26C551.533 317.333 551.859 317.417 552.273 317.51C552.859 317.637 553.333 317.77 553.693 317.91C554.053 318.043 554.359 318.263 554.613 318.57C554.873 318.87 555.003 319.283 555.003 319.81C555.003 320.523 554.756 321.09 554.263 321.51C553.776 321.923 553.089 322.13 552.203 322.13Z" fill="black"/>
<line x1="520.5" y1="168" x2="520.5" y2="300" stroke="#E9E9E9"/>
<path opacity="0.4" d="M517.697 322V314.37H522.747V315.51H518.967V317.61H522.327V318.74H518.967V322H517.697Z" fill="black"/>
<line x1="488.5" y1="168" x2="488.5" y2="300" stroke="#E9E9E9"/>
<path opacity="0.4" d="M487.361 322V315.51H484.961V314.37H491.051V315.51H488.631V322H487.361Z" fill="black"/>
<line x1="456.5" y1="168" x2="456.5" y2="300" stroke="#E9E9E9"/>
<path opacity="0.4" d="M450.662 314.37H451.992L453.422 319.78C453.489 320 453.532 320.17 453.552 320.29C453.579 320.403 453.592 320.527 453.592 320.66H453.752C453.752 320.52 453.762 320.39 453.782 320.27C453.802 320.15 453.839 319.987 453.892 319.78L455.242 314.37H456.752L458.102 319.78C458.155 319.98 458.192 320.143 458.212 320.27C458.239 320.39 458.252 320.52 458.252 320.66H458.412C458.412 320.527 458.422 320.403 458.442 320.29C458.469 320.177 458.512 320.007 458.572 319.78L460.002 314.37H461.332L459.252 322H457.542L456.162 316.55C456.109 316.303 456.082 316.053 456.082 315.8H455.922C455.922 316.067 455.892 316.317 455.832 316.55L454.452 322H452.752L450.662 314.37Z" fill="black"/>
<line x1="424.5" y1="168" x2="424.5" y2="300" stroke="#E9E9E9"/>
<path opacity="0.4" d="M423.361 322V315.51H420.961V314.37H427.051V315.51H424.631V322H423.361Z" fill="black"/>
<line x1="392.5" y1="168" x2="392.5" y2="300" stroke="#E9E9E9"/>
<path opacity="0.4" d="M388.115 314.37H390.265L391.725 319.48C391.792 319.7 391.839 319.907 391.865 320.1C391.899 320.287 391.915 320.51 391.915 320.77H392.075C392.075 320.51 392.089 320.287 392.115 320.1C392.149 319.907 392.199 319.7 392.265 319.48L393.725 314.37H395.875V322H394.605V316.54C394.605 316.187 394.625 315.81 394.665 315.41L394.505 315.39C394.419 315.883 394.332 316.267 394.245 316.54L392.615 322H391.375L389.745 316.54C389.659 316.267 389.572 315.883 389.485 315.39L389.335 315.41C389.369 315.81 389.385 316.187 389.385 316.54V322H388.115V314.37Z" fill="black"/>
<path d="M393 261.627L418.049 239.57C421.827 236.244 427.488 236.244 431.266 239.57L447.919 254.233C452.396 258.176 459.307 257.346 462.724 252.457L477.682 231.054C482.172 224.63 491.971 225.634 495.066 232.835L508.493 264.082C512.212 272.736 524.742 271.918 527.304 262.854L542.015 210.807C544.731 201.2 558.301 201.066 561.206 210.618L575.345 257.124C578.073 266.096 590.538 266.717 594.144 258.061L607.501 226" stroke="black" stroke-width="2" stroke-linecap="round"/>
<path d="M418.049 239.57L396.391 258.64C394.235 260.539 393 263.273 393 266.146V280C393 285.523 397.477 290 403 290H598C603.523 290 608 285.523 608 280V225.5L594.181 258.277C590.546 266.898 578.12 266.252 575.399 257.301L561.206 210.618C558.301 201.066 544.731 201.2 542.015 210.807L527.304 262.854C524.742 271.918 512.212 272.736 508.493 264.082L495.066 232.835C491.971 225.634 482.172 224.63 477.682 231.054L462.724 252.457C459.307 257.346 452.396 258.176 447.919 254.233L431.266 239.57C427.488 236.244 421.827 236.244 418.049 239.57Z" fill="url(#paint0_linear_109:2926)" fill-opacity="0.16"/>
<g filter="url(#filter0_d_109:2926)">
<circle cx="489" cy="227" r="6" fill="white"/>
</g>
<circle cx="489" cy="227" r="2" fill="black"/>
<rect x="457" y="182" width="62" height="32" rx="4" fill="#F6E97A"/>
<path d="M470.908 203.132C469.996 203.036 469.22 202.74 468.58 202.244C467.948 201.748 467.576 201.032 467.464 200.096H469C469.136 200.64 469.42 201.076 469.852 201.404C469.924 201.452 470.004 201.5 470.092 201.548C470.18 201.588 470.244 201.62 470.284 201.644C470.54 201.764 470.744 201.892 470.896 202.028L471.028 201.92C470.972 201.68 470.936 201.48 470.92 201.32C470.912 201.152 470.908 200.968 470.908 200.768V198.896C470.244 198.76 469.688 198.6 469.24 198.416C468.8 198.232 468.444 197.972 468.172 197.636C467.908 197.292 467.776 196.848 467.776 196.304C467.776 195.768 467.908 195.304 468.172 194.912C468.444 194.52 468.816 194.22 469.288 194.012C469.76 193.804 470.3 193.696 470.908 193.688V192.248H471.628V193.724C472.388 193.868 473.024 194.172 473.536 194.636C474.048 195.092 474.36 195.712 474.472 196.496H472.972C472.884 196.112 472.704 195.784 472.432 195.512C472.392 195.472 472.292 195.388 472.132 195.26L471.64 194.84L471.508 194.936C471.588 195.224 471.628 195.5 471.628 195.764V197.636C472.292 197.78 472.844 197.952 473.284 198.152C473.732 198.344 474.088 198.62 474.352 198.98C474.616 199.34 474.748 199.804 474.748 200.372C474.748 201.196 474.472 201.856 473.92 202.352C473.376 202.84 472.612 203.104 471.628 203.144V204.704H470.908V203.132ZM471.04 197.588C470.984 197.38 470.948 197.212 470.932 197.084C470.916 196.948 470.908 196.804 470.908 196.652V195.68C470.908 195.544 470.912 195.42 470.92 195.308C470.936 195.188 470.972 195.028 471.028 194.828L470.896 194.72C470.68 194.864 470.488 194.968 470.32 195.032C470.152 195.096 470.04 195.14 469.984 195.164C469.512 195.388 469.276 195.724 469.276 196.172C469.276 196.42 469.344 196.628 469.48 196.796C469.616 196.956 469.816 197.092 470.08 197.204C470.12 197.228 470.216 197.276 470.368 197.348C470.52 197.412 470.7 197.524 470.908 197.684L471.04 197.588ZM471.64 202.076C471.784 201.956 471.984 201.852 472.24 201.764C472.272 201.748 472.336 201.72 472.432 201.68C472.536 201.632 472.624 201.584 472.696 201.536C473.056 201.288 473.236 200.936 473.236 200.48C473.236 200.24 473.184 200.032 473.08 199.856C472.984 199.68 472.836 199.524 472.636 199.388C472.588 199.356 472.528 199.324 472.456 199.292C472.384 199.252 472.332 199.224 472.3 199.208C472.028 199.088 471.808 198.964 471.64 198.836L471.508 198.932C471.564 199.156 471.596 199.34 471.604 199.484C471.62 199.62 471.628 199.772 471.628 199.94V200.864C471.628 201.056 471.62 201.228 471.604 201.38C471.596 201.532 471.564 201.724 471.508 201.956L471.64 202.076ZM475.714 201.8L478.594 199.304C479.202 198.792 479.65 198.32 479.938 197.888C480.226 197.456 480.37 197.004 480.37 196.532C480.37 196.06 480.242 195.692 479.986 195.428C479.738 195.156 479.366 195.02 478.87 195.02C477.782 195.02 477.202 195.68 477.13 197H475.702C475.742 195.96 476.038 195.152 476.59 194.576C477.142 194 477.906 193.712 478.882 193.712C479.45 193.712 479.954 193.824 480.394 194.048C480.842 194.264 481.186 194.576 481.426 194.984C481.674 195.392 481.798 195.868 481.798 196.412C481.798 197.132 481.59 197.804 481.174 198.428C480.758 199.052 480.218 199.652 479.554 200.228L478.438 201.188C478.198 201.396 477.962 201.572 477.73 201.716L477.802 201.86C478.01 201.772 478.174 201.712 478.294 201.68C478.414 201.648 478.562 201.632 478.738 201.632H482.206V203H475.714V201.8ZM483.219 204.308C483.619 204.276 483.927 204.148 484.143 203.924C484.367 203.708 484.479 203.42 484.479 203.06C484.479 202.972 484.475 202.904 484.467 202.856H484.323C484.275 203.032 484.131 203.12 483.891 203.12C483.691 203.12 483.515 203.044 483.363 202.892C483.219 202.74 483.147 202.536 483.147 202.28C483.147 202.016 483.231 201.8 483.399 201.632C483.575 201.464 483.807 201.38 484.095 201.38C484.463 201.38 484.747 201.52 484.947 201.8C485.155 202.072 485.259 202.44 485.259 202.904C485.259 203.456 485.091 203.936 484.755 204.344C484.427 204.76 483.915 204.996 483.219 205.052V204.308ZM489.573 203.156C488.925 203.156 488.349 203.036 487.845 202.796C487.349 202.548 486.961 202.208 486.681 201.776C486.409 201.336 486.273 200.84 486.273 200.288C486.273 199.768 486.417 199.304 486.705 198.896C486.993 198.48 487.413 198.2 487.965 198.056V197.912C487.541 197.8 487.217 197.584 486.993 197.264C486.777 196.936 486.669 196.572 486.669 196.172C486.669 195.692 486.793 195.264 487.041 194.888C487.289 194.512 487.633 194.22 488.073 194.012C488.513 193.804 489.013 193.7 489.573 193.7C490.141 193.7 490.645 193.804 491.085 194.012C491.525 194.22 491.865 194.512 492.105 194.888C492.353 195.264 492.477 195.692 492.477 196.172C492.477 196.572 492.365 196.936 492.141 197.264C491.925 197.592 491.605 197.808 491.181 197.912V198.056C491.741 198.2 492.161 198.476 492.441 198.884C492.729 199.292 492.873 199.76 492.873 200.288C492.873 200.848 492.737 201.344 492.465 201.776C492.193 202.208 491.805 202.548 491.301 202.796C490.805 203.036 490.229 203.156 489.573 203.156ZM489.573 197.516C490.029 197.516 490.381 197.4 490.629 197.168C490.877 196.936 491.001 196.628 491.001 196.244C491.001 195.868 490.873 195.56 490.617 195.32C490.361 195.08 490.013 194.96 489.573 194.96C489.133 194.96 488.785 195.08 488.529 195.32C488.273 195.56 488.145 195.868 488.145 196.244C488.145 196.628 488.269 196.936 488.517 197.168C488.765 197.4 489.117 197.516 489.573 197.516ZM489.573 201.836C490.109 201.836 490.537 201.688 490.857 201.392C491.185 201.096 491.349 200.7 491.349 200.204C491.349 199.724 491.189 199.336 490.869 199.04C490.557 198.736 490.125 198.584 489.573 198.584C489.021 198.584 488.585 198.736 488.265 199.04C487.953 199.336 487.797 199.724 487.797 200.204C487.797 200.7 487.961 201.096 488.289 201.392C488.617 201.688 489.045 201.836 489.573 201.836ZM497.11 193.688C498.222 193.688 499.066 194.08 499.642 194.864C500.226 195.648 500.518 196.74 500.518 198.14C500.518 199.7 500.226 200.924 499.642 201.812C499.058 202.7 498.202 203.144 497.074 203.144C496.218 203.144 495.522 202.912 494.986 202.448C494.458 201.976 494.134 201.328 494.014 200.504H495.406C495.51 200.936 495.702 201.268 495.982 201.5C496.262 201.724 496.626 201.836 497.074 201.836C497.642 201.836 498.078 201.652 498.382 201.284C498.694 200.916 498.902 200.396 499.006 199.724C499.078 199.34 499.162 199.02 499.258 198.764L499.102 198.68C498.614 199.48 497.894 199.88 496.942 199.88C496.366 199.88 495.858 199.756 495.418 199.508C494.978 199.26 494.634 198.908 494.386 198.452C494.146 197.996 494.026 197.468 494.026 196.868C494.026 196.26 494.154 195.716 494.41 195.236C494.674 194.748 495.042 194.368 495.514 194.096C495.986 193.824 496.518 193.688 497.11 193.688ZM497.134 195.008C496.646 195.008 496.258 195.18 495.97 195.524C495.69 195.868 495.55 196.308 495.55 196.844C495.55 197.38 495.69 197.812 495.97 198.14C496.25 198.468 496.638 198.632 497.134 198.632C497.654 198.632 498.074 198.468 498.394 198.14C498.722 197.804 498.886 197.372 498.886 196.844C498.886 196.3 498.722 195.86 498.394 195.524C498.074 195.18 497.654 195.008 497.134 195.008ZM505.02 203.144C503.964 203.144 503.148 202.756 502.572 201.98C501.996 201.204 501.708 200.012 501.708 198.404C501.708 196.804 501.992 195.62 502.56 194.852C503.128 194.084 503.932 193.7 504.972 193.7C506.02 193.7 506.828 194.088 507.396 194.864C507.972 195.64 508.26 196.836 508.26 198.452C508.26 200.044 507.976 201.224 507.408 201.992C506.848 202.76 506.052 203.144 505.02 203.144ZM504.984 201.776C505.544 201.776 505.976 201.516 506.28 200.996C506.584 200.476 506.736 199.624 506.736 198.44C506.736 197.24 506.58 196.376 506.268 195.848C505.956 195.32 505.516 195.056 504.948 195.056C504.388 195.056 503.96 195.32 503.664 195.848C503.376 196.376 503.232 197.232 503.232 198.416C503.232 199.616 503.38 200.476 503.676 200.996C503.98 201.516 504.416 201.776 504.984 201.776Z" fill="black"/>
<path d="M488 217L485 214L491 214L488 217Z" fill="#F6E97A"/>
<path d="M596 135L591.5 130.5L600.5 130.5L596 135Z" fill="black"/>
<rect y="192" width="304" height="256" rx="8" fill="white"/>
<path d="M25.36 228.74H31.4C33.2667 228.74 34.6133 229.153 35.44 229.98C36.0667 230.62 36.38 231.48 36.38 232.56C36.38 233.52 36.1467 234.307 35.68 234.92C35.2133 235.52 34.6133 235.82 33.88 235.82V236.14C34.4933 236.14 35.0467 236.28 35.54 236.56C36.0333 236.84 36.4267 237.24 36.72 237.76C37.0133 238.28 37.16 238.88 37.16 239.56C37.16 240.947 36.7067 242.027 35.8 242.8C35.2133 243.267 34.54 243.587 33.78 243.76C33.0333 243.92 32.3267 244 31.66 244H25.36V228.74ZM31.22 235.08C31.9667 235.08 32.5267 234.92 32.9 234.6C33.2867 234.267 33.48 233.793 33.48 233.18C33.48 232.593 33.3 232.153 32.94 231.86C32.5133 231.5 31.7867 231.32 30.76 231.32H28.24V235.08H31.22ZM31.3 241.42C31.8067 241.42 32.26 241.38 32.66 241.3C33.0733 241.22 33.42 241.06 33.7 240.82C34.0733 240.513 34.26 240.02 34.26 239.34C34.26 238.553 34.02 238.04 33.54 237.8C33.06 237.547 32.42 237.42 31.62 237.42H28.24V241.42H31.3ZM41.8248 244.22C40.7315 244.22 39.8448 243.933 39.1648 243.36C38.4848 242.773 38.1448 241.96 38.1448 240.92C38.1448 239.8 38.5715 238.947 39.4248 238.36C40.0382 237.933 40.9115 237.613 42.0448 237.4L45.3848 236.78C45.3848 236.113 45.2048 235.587 44.8448 235.2C44.5115 234.84 44.0115 234.66 43.3448 234.66C42.8248 234.66 42.3648 234.813 41.9648 235.12C41.5782 235.427 41.3382 235.84 41.2448 236.36H38.5648C38.7515 235.12 39.2982 234.173 40.2048 233.52C41.1115 232.867 42.1648 232.54 43.3648 232.54C44.0448 232.54 44.6782 232.64 45.2648 232.84C45.8515 233.027 46.3515 233.307 46.7648 233.68C47.1782 234.04 47.4782 234.46 47.6648 234.94C47.8515 235.42 47.9648 235.9 48.0048 236.38C48.0582 236.86 48.0848 237.453 48.0848 238.16V244H45.3848V243.68C45.3848 243.333 45.4715 242.98 45.6448 242.62L45.3448 242.46C45.1048 242.953 44.7715 243.34 44.3448 243.62C43.7448 244.02 42.9048 244.22 41.8248 244.22ZM42.4848 242.1C42.9782 242.1 43.4582 241.993 43.9248 241.78C44.3515 241.58 44.6915 241.287 44.9448 240.9C45.0648 240.7 45.1582 240.507 45.2248 240.32C45.2915 240.12 45.3648 239.847 45.4448 239.5C45.4715 239.34 45.5115 239.227 45.5648 239.16C45.6315 239.08 45.7248 239.033 45.8448 239.02L45.7848 238.7C44.7182 238.913 44.0315 239.053 43.7248 239.12L42.7648 239.3C42.0448 239.433 41.5248 239.647 41.2048 239.94C40.9648 240.18 40.8448 240.473 40.8448 240.82C40.8448 241.233 40.9915 241.553 41.2848 241.78C41.5915 241.993 41.9915 242.1 42.4848 242.1ZM52.3612 244C51.5079 244 50.8612 243.807 50.4212 243.42C49.9812 243.02 49.7612 242.393 49.7612 241.54V228.74H52.4612V240.74C52.4612 241.113 52.5279 241.38 52.6612 241.54C52.8079 241.687 53.0479 241.76 53.3812 241.76H54.1012V244H52.3612ZM58.4764 244.22C57.3831 244.22 56.4964 243.933 55.8164 243.36C55.1364 242.773 54.7964 241.96 54.7964 240.92C54.7964 239.8 55.2231 238.947 56.0764 238.36C56.6897 237.933 57.5631 237.613 58.6964 237.4L62.0364 236.78C62.0364 236.113 61.8564 235.587 61.4964 235.2C61.1631 234.84 60.6631 234.66 59.9964 234.66C59.4764 234.66 59.0164 234.813 58.6164 235.12C58.2297 235.427 57.9897 235.84 57.8964 236.36H55.2164C55.4031 235.12 55.9497 234.173 56.8564 233.52C57.7631 232.867 58.8164 232.54 60.0164 232.54C60.6964 232.54 61.3297 232.64 61.9164 232.84C62.5031 233.027 63.0031 233.307 63.4164 233.68C63.8297 234.04 64.1297 234.46 64.3164 234.94C64.5031 235.42 64.6164 235.9 64.6564 236.38C64.7097 236.86 64.7364 237.453 64.7364 238.16V244H62.0364V243.68C62.0364 243.333 62.1231 242.98 62.2964 242.62L61.9964 242.46C61.7564 242.953 61.4231 243.34 60.9964 243.62C60.3964 244.02 59.5564 244.22 58.4764 244.22ZM59.1364 242.1C59.6297 242.1 60.1097 241.993 60.5764 241.78C61.0031 241.58 61.3431 241.287 61.5964 240.9C61.7164 240.7 61.8097 240.507 61.8764 240.32C61.9431 240.12 62.0164 239.847 62.0964 239.5C62.1231 239.34 62.1631 239.227 62.2164 239.16C62.2831 239.08 62.3764 239.033 62.4964 239.02L62.4364 238.7C61.3697 238.913 60.6831 239.053 60.3764 239.12L59.4164 239.3C58.6964 239.433 58.1764 239.647 57.8564 239.94C57.6164 240.18 57.4964 240.473 57.4964 240.82C57.4964 241.233 57.6431 241.553 57.9364 241.78C58.2431 241.993 58.6431 242.1 59.1364 242.1ZM66.4528 232.78H69.1528V233.14C69.1528 233.353 69.1328 233.527 69.0928 233.66C69.0528 233.793 68.9728 233.927 68.8528 234.06L69.1328 234.26C69.5595 233.633 70.0128 233.193 70.4928 232.94C70.9861 232.673 71.5595 232.54 72.2128 232.54C73.9461 232.54 75.1128 233.167 75.7128 234.42C75.9128 234.86 76.0395 235.307 76.0928 235.76C76.1461 236.213 76.1728 236.807 76.1728 237.54V244H73.4928V237.5C73.4928 236.42 73.3061 235.673 72.9328 235.26C72.6128 234.927 72.1395 234.76 71.5128 234.76C70.7661 234.76 70.1995 234.987 69.8128 235.44C69.5861 235.707 69.4195 236.067 69.3128 236.52C69.2061 236.96 69.1528 237.547 69.1528 238.28V244H66.4528V232.78ZM83.2022 244.22C82.0822 244.22 81.0889 243.973 80.2222 243.48C79.3689 242.987 78.7022 242.293 78.2222 241.4C77.7422 240.507 77.5022 239.48 77.5022 238.32C77.5022 237.2 77.7422 236.2 78.2222 235.32C78.7022 234.44 79.3689 233.76 80.2222 233.28C81.0889 232.787 82.0822 232.54 83.2022 232.54C84.5489 232.54 85.6889 232.887 86.6222 233.58C87.5689 234.26 88.1822 235.187 88.4622 236.36H85.5222C85.3489 235.84 85.0622 235.44 84.6622 235.16C84.2622 234.88 83.7755 234.74 83.2022 234.74C82.3222 234.74 81.6089 235.067 81.0622 235.72C80.5289 236.373 80.2622 237.24 80.2622 238.32C80.2622 239.44 80.5289 240.34 81.0622 241.02C81.6089 241.687 82.3222 242.02 83.2022 242.02C83.8422 242.02 84.3622 241.867 84.7622 241.56C85.1622 241.24 85.4355 240.793 85.5822 240.22H88.5022C88.2489 241.46 87.6422 242.44 86.6822 243.16C85.7222 243.867 84.5622 244.22 83.2022 244.22ZM95.0441 244.22C93.9107 244.22 92.9107 243.973 92.0441 243.48C91.1774 242.987 90.5041 242.307 90.0241 241.44C89.5574 240.56 89.3241 239.567 89.3241 238.46C89.3241 237.433 89.5307 236.473 89.9441 235.58C90.3707 234.673 91.0041 233.94 91.8441 233.38C92.6974 232.82 93.7374 232.54 94.9641 232.54C95.9774 232.54 96.9107 232.753 97.7641 233.18C98.6174 233.593 99.3041 234.24 99.8241 235.12C100.344 235.987 100.604 237.067 100.604 238.36V238.94H93.4841C93.4041 238.94 93.1841 238.94 92.8241 238.94C92.4641 238.94 92.1774 238.92 91.9641 238.88L91.8841 239.18C91.9907 239.207 92.0707 239.26 92.1241 239.34C92.1907 239.42 92.2441 239.533 92.2841 239.68C92.3907 239.96 92.4774 240.153 92.5441 240.26C92.8107 240.78 93.1641 241.187 93.6041 241.48C94.0574 241.76 94.5707 241.9 95.1441 241.9C95.7574 241.9 96.2841 241.747 96.7241 241.44C97.1641 241.12 97.4774 240.713 97.6641 240.22H100.424C100.064 241.407 99.4307 242.373 98.5241 243.12C97.6174 243.853 96.4574 244.22 95.0441 244.22ZM92.2041 237.22C92.4041 237.1 92.5841 237.02 92.7441 236.98C92.9041 236.94 93.0841 236.92 93.2841 236.92H96.7641C96.9774 236.92 97.1641 236.94 97.3241 236.98C97.4974 237.02 97.6907 237.1 97.9041 237.22L98.0641 236.94C97.9707 236.887 97.9041 236.84 97.8641 236.8C97.8241 236.747 97.7907 236.693 97.7641 236.64C97.7507 236.587 97.7441 236.553 97.7441 236.54C97.6907 236.313 97.5841 236.093 97.4241 235.88C97.1707 235.493 96.8374 235.2 96.4241 235C96.0107 234.787 95.5507 234.68 95.0441 234.68C94.5374 234.68 94.0774 234.78 93.6641 234.98C93.2641 235.18 92.9374 235.48 92.6841 235.88C92.5107 236.093 92.3974 236.313 92.3441 236.54C92.3441 236.553 92.3307 236.593 92.3041 236.66C92.2774 236.713 92.2441 236.767 92.2041 236.82C92.1641 236.86 92.1041 236.9 92.0241 236.94L92.2041 237.22Z" fill="black"/>
<path d="M171 220C171 217.791 172.791 216 175 216H276C278.209 216 280 217.791 280 220V252C280 254.209 278.209 256 276 256H175C172.791 256 171 254.209 171 252V220Z" fill="black"/>
<path d="M195.13 241L198.952 230.318H200.912L204.734 241H202.886L202.102 238.662H197.776L196.978 241H195.13ZM201.57 237.108L200.31 233.356C200.133 232.805 200.044 232.376 200.044 232.068H199.82C199.82 232.404 199.736 232.833 199.568 233.356L198.294 237.108H201.57ZM204.179 233.174H205.971L207.371 237.332C207.446 237.565 207.502 237.775 207.539 237.962C207.577 238.149 207.6 238.326 207.609 238.494C207.628 238.653 207.642 238.76 207.651 238.816H207.819C207.847 238.48 207.875 238.214 207.903 238.018C207.941 237.813 208.001 237.584 208.085 237.332L209.527 233.174H211.305L208.407 241H207.063L204.179 233.174ZM214.308 241.154C213.542 241.154 212.926 240.953 212.46 240.552C211.993 240.151 211.76 239.591 211.76 238.872C211.76 238.144 212.044 237.57 212.614 237.15C213.024 236.851 213.631 236.623 214.434 236.464L216.912 236.002C216.902 235.479 216.762 235.078 216.492 234.798C216.202 234.509 215.81 234.364 215.316 234.364C214.914 234.364 214.564 234.481 214.266 234.714C213.967 234.938 213.78 235.246 213.706 235.638H212.054C212.184 234.798 212.558 234.154 213.174 233.706C213.799 233.258 214.518 233.034 215.33 233.034C215.796 233.034 216.23 233.099 216.632 233.23C217.042 233.361 217.392 233.557 217.682 233.818C218.064 234.173 218.302 234.588 218.396 235.064C218.498 235.54 218.55 236.105 218.55 236.758V241H216.898V240.734C216.898 240.519 216.954 240.263 217.066 239.964L216.87 239.866C216.674 240.211 216.422 240.496 216.114 240.72C215.684 241.009 215.082 241.154 214.308 241.154ZM214.672 239.81C215.054 239.81 215.414 239.731 215.75 239.572C216.132 239.376 216.403 239.138 216.562 238.858C216.655 238.69 216.725 238.531 216.772 238.382C216.818 238.233 216.87 238.032 216.926 237.78C216.954 237.659 216.991 237.57 217.038 237.514C217.084 237.449 217.15 237.411 217.234 237.402L217.192 237.178C216.436 237.346 215.913 237.453 215.624 237.5L214.84 237.654C214.298 237.766 213.916 237.925 213.692 238.13C213.505 238.317 213.412 238.55 213.412 238.83C213.412 239.138 213.524 239.381 213.748 239.558C213.981 239.726 214.289 239.81 214.672 239.81ZM220.145 241V233.174H221.797V241H220.145ZM220.971 232.166C220.672 232.166 220.415 232.073 220.201 231.886C219.995 231.69 219.893 231.447 219.893 231.158C219.893 230.869 219.995 230.631 220.201 230.444C220.415 230.248 220.672 230.15 220.971 230.15C221.279 230.15 221.535 230.248 221.741 230.444C221.946 230.631 222.049 230.869 222.049 231.158C222.049 231.447 221.946 231.69 221.741 231.886C221.535 232.073 221.279 232.166 220.971 232.166ZM225.256 241C224.649 241 224.192 240.86 223.884 240.58C223.576 240.3 223.422 239.838 223.422 239.194V230.318H225.074V238.76C225.074 239.068 225.125 239.287 225.228 239.418C225.34 239.549 225.536 239.614 225.816 239.614H226.278V241H225.256ZM229.651 241.154C228.886 241.154 228.27 240.953 227.803 240.552C227.337 240.151 227.103 239.591 227.103 238.872C227.103 238.144 227.388 237.57 227.957 237.15C228.368 236.851 228.975 236.623 229.777 236.464L232.255 236.002C232.246 235.479 232.106 235.078 231.835 234.798C231.546 234.509 231.154 234.364 230.659 234.364C230.258 234.364 229.908 234.481 229.609 234.714C229.311 234.938 229.124 235.246 229.049 235.638H227.397C227.528 234.798 227.901 234.154 228.517 233.706C229.143 233.258 229.861 233.034 230.673 233.034C231.14 233.034 231.574 233.099 231.975 233.23C232.386 233.361 232.736 233.557 233.025 233.818C233.408 234.173 233.646 234.588 233.739 235.064C233.842 235.54 233.893 236.105 233.893 236.758V241H232.241V240.734C232.241 240.519 232.297 240.263 232.409 239.964L232.213 239.866C232.017 240.211 231.765 240.496 231.457 240.72C231.028 241.009 230.426 241.154 229.651 241.154ZM230.015 239.81C230.398 239.81 230.757 239.731 231.093 239.572C231.476 239.376 231.747 239.138 231.905 238.858C231.999 238.69 232.069 238.531 232.115 238.382C232.162 238.233 232.213 238.032 232.269 237.78C232.297 237.659 232.335 237.57 232.381 237.514C232.428 237.449 232.493 237.411 232.577 237.402L232.535 237.178C231.779 237.346 231.257 237.453 230.967 237.5L230.183 237.654C229.642 237.766 229.259 237.925 229.035 238.13C228.849 238.317 228.755 238.55 228.755 238.83C228.755 239.138 228.867 239.381 229.091 239.558C229.325 239.726 229.633 239.81 230.015 239.81ZM239.478 241.154C238.946 241.154 238.503 241.061 238.148 240.874C237.794 240.678 237.458 240.351 237.14 239.894L236.944 240.034C237.019 240.118 237.07 240.211 237.098 240.314C237.126 240.407 237.14 240.524 237.14 240.664V241H235.488V230.318H237.14V233.51C237.14 233.65 237.126 233.771 237.098 233.874C237.07 233.967 237.019 234.061 236.944 234.154L237.14 234.28C237.458 233.823 237.794 233.501 238.148 233.314C238.512 233.127 238.956 233.034 239.478 233.034C240.16 233.034 240.757 233.207 241.27 233.552C241.793 233.888 242.199 234.364 242.488 234.98C242.778 235.596 242.922 236.301 242.922 237.094C242.922 237.887 242.778 238.592 242.488 239.208C242.199 239.824 241.793 240.305 241.27 240.65C240.757 240.986 240.16 241.154 239.478 241.154ZM239.142 239.726C239.786 239.726 240.3 239.479 240.682 238.984C241.065 238.489 241.256 237.859 241.256 237.094C241.256 236.329 241.065 235.699 240.682 235.204C240.3 234.709 239.786 234.462 239.142 234.462C238.722 234.462 238.349 234.574 238.022 234.798C237.696 235.022 237.439 235.335 237.252 235.736C237.066 236.137 236.972 236.59 236.972 237.094C236.972 237.598 237.066 238.051 237.252 238.452C237.439 238.853 237.696 239.166 238.022 239.39C238.349 239.614 238.722 239.726 239.142 239.726ZM246.095 241C245.489 241 245.031 240.86 244.723 240.58C244.415 240.3 244.261 239.838 244.261 239.194V230.318H245.913V238.76C245.913 239.068 245.965 239.287 246.067 239.418C246.179 239.549 246.375 239.614 246.655 239.614H247.117V241H246.095ZM251.576 241.154C250.81 241.154 250.129 240.981 249.532 240.636C248.944 240.281 248.486 239.801 248.16 239.194C247.833 238.578 247.67 237.887 247.67 237.122C247.67 236.413 247.814 235.745 248.104 235.12C248.402 234.495 248.841 233.991 249.42 233.608C250.008 233.225 250.712 233.034 251.534 233.034C252.224 233.034 252.864 233.183 253.452 233.482C254.049 233.771 254.525 234.215 254.88 234.812C255.244 235.409 255.426 236.142 255.426 237.01V237.43H250.246C249.76 237.43 249.424 237.416 249.238 237.388L249.182 237.612C249.266 237.631 249.322 237.668 249.35 237.724C249.387 237.771 249.424 237.845 249.462 237.948C249.546 238.144 249.597 238.261 249.616 238.298C249.802 238.737 250.068 239.082 250.414 239.334C250.768 239.586 251.17 239.712 251.618 239.712C252.094 239.712 252.5 239.591 252.836 239.348C253.181 239.096 253.428 238.783 253.578 238.41H255.286C255.034 239.222 254.595 239.885 253.97 240.398C253.344 240.902 252.546 241.154 251.576 241.154ZM249.42 236.352C249.56 236.268 249.681 236.212 249.784 236.184C249.896 236.147 250.026 236.128 250.176 236.128H252.948C253.106 236.128 253.242 236.147 253.354 236.184C253.475 236.212 253.606 236.268 253.746 236.352L253.886 236.17C253.802 236.123 253.746 236.081 253.718 236.044C253.699 235.997 253.676 235.932 253.648 235.848C253.629 235.717 253.564 235.563 253.452 235.386C253.265 235.059 253.008 234.812 252.682 234.644C252.355 234.467 251.991 234.378 251.59 234.378C251.179 234.378 250.815 234.467 250.498 234.644C250.18 234.812 249.924 235.059 249.728 235.386C249.653 235.507 249.588 235.661 249.532 235.848C249.513 235.923 249.49 235.983 249.462 236.03C249.434 236.067 249.378 236.114 249.294 236.17L249.42 236.352Z" fill="white"/>
<line x1="24" y1="279.5" x2="280" y2="279.5" stroke="#E9E9E9"/>
<path d="M31.896 329.288C30.04 329.08 28.448 328.472 27.12 327.464C25.808 326.44 25.048 324.968 24.84 323.048H28.392C28.664 324.088 29.16 324.872 29.88 325.4C30.008 325.512 30.296 325.696 30.744 325.952C30.824 326 30.976 326.096 31.2 326.24C31.44 326.384 31.664 326.552 31.872 326.744L32.136 326.552C32.024 326.088 31.952 325.712 31.92 325.424C31.904 325.136 31.896 324.808 31.896 324.44V321.032C30.488 320.728 29.32 320.384 28.392 320C27.48 319.6 26.76 319.056 26.232 318.368C25.704 317.664 25.44 316.768 25.44 315.68C25.44 314.56 25.72 313.6 26.28 312.8C26.84 312 27.608 311.4 28.584 311C29.56 310.584 30.664 310.368 31.896 310.352V307.496H33.336V310.4C34.92 310.688 36.232 311.32 37.272 312.296C38.328 313.256 38.96 314.536 39.168 316.136H35.76C35.6 315.464 35.296 314.872 34.848 314.36L34.344 313.904C33.864 313.472 33.544 313.176 33.384 313.016L33.096 313.208C33.256 313.752 33.336 314.256 33.336 314.72V318.128C34.728 318.416 35.88 318.768 36.792 319.184C37.72 319.6 38.44 320.176 38.952 320.912C39.48 321.632 39.744 322.56 39.744 323.696C39.744 325.376 39.176 326.72 38.04 327.728C36.92 328.72 35.352 329.248 33.336 329.312V332.408H31.896V329.288ZM32.184 317.984C32.056 317.584 31.976 317.264 31.944 317.024C31.912 316.768 31.896 316.496 31.896 316.208V314.528C31.896 314.048 31.976 313.528 32.136 312.968L31.872 312.752C31.456 313.024 31.024 313.24 30.576 313.4L30.12 313.616C29.72 313.792 29.408 314.032 29.184 314.336C28.976 314.64 28.872 314.984 28.872 315.368C28.872 316.2 29.344 316.832 30.288 317.264C30.608 317.392 30.872 317.512 31.08 317.624C31.288 317.736 31.568 317.928 31.92 318.2L32.184 317.984ZM33.36 326.816C33.6 326.64 33.984 326.432 34.512 326.192C34.848 326.064 35.128 325.92 35.352 325.76C35.992 325.312 36.312 324.696 36.312 323.912C36.312 323.496 36.224 323.144 36.048 322.856C35.872 322.552 35.608 322.272 35.256 322.016C35.032 321.888 34.848 321.792 34.704 321.728C34.16 321.472 33.712 321.208 33.36 320.936L33.096 321.128C33.208 321.544 33.272 321.88 33.288 322.136C33.32 322.392 33.336 322.68 33.336 323V324.632C33.336 324.968 33.32 325.28 33.288 325.568C33.272 325.84 33.208 326.184 33.096 326.6L33.36 326.816ZM48.2229 329.336C45.9989 329.336 44.2869 328.56 43.0869 327.008C41.9029 325.44 41.3109 323.216 41.3109 320.336C41.3109 317.2 41.9109 314.752 43.1109 312.992C44.3269 311.232 46.0629 310.352 48.3189 310.352C50.0789 310.352 51.4949 310.84 52.5669 311.816C53.6549 312.776 54.3109 314.104 54.5349 315.8H51.4389C51.2469 314.984 50.8869 314.368 50.3589 313.952C49.8309 313.536 49.1509 313.328 48.3189 313.328C47.2629 313.328 46.4469 313.648 45.8709 314.288C45.2949 314.912 44.9029 315.816 44.6949 317C44.6789 317.048 44.6389 317.264 44.5749 317.648C44.5109 318.032 44.3909 318.44 44.2149 318.872L44.5029 319.016C45.0629 318.2 45.6949 317.64 46.3989 317.336C47.1029 317.032 47.8549 316.88 48.6549 316.88C49.8069 316.88 50.8229 317.128 51.7029 317.624C52.5989 318.104 53.2949 318.8 53.7909 319.712C54.2869 320.608 54.5349 321.664 54.5349 322.88C54.5349 324.128 54.2629 325.248 53.7189 326.24C53.1909 327.216 52.4469 327.976 51.4869 328.52C50.5269 329.064 49.4389 329.336 48.2229 329.336ZM48.1749 326.384C49.0869 326.384 49.7989 326.064 50.3109 325.424C50.8229 324.768 51.0789 323.936 51.0789 322.928C51.0789 321.92 50.8229 321.112 50.3109 320.504C49.7989 319.896 49.0869 319.592 48.1749 319.592C47.2149 319.592 46.4389 319.904 45.8469 320.528C45.2709 321.136 44.9829 321.936 44.9829 322.928C44.9829 323.952 45.2709 324.784 45.8469 325.424C46.4389 326.064 47.2149 326.384 48.1749 326.384ZM63.1089 329.336C58.6289 329.336 56.3889 326.152 56.3889 319.784C56.3889 316.536 56.9569 314.152 58.0929 312.632C59.2449 311.112 60.8849 310.352 63.0129 310.352C67.4929 310.352 69.7329 313.536 69.7329 319.904C69.7329 326.192 67.5249 329.336 63.1089 329.336ZM63.0369 326.24C64.0769 326.24 64.8769 325.76 65.4369 324.8C65.9969 323.84 66.2769 322.192 66.2769 319.856C66.2769 317.52 65.9889 315.872 65.4129 314.912C64.8369 313.952 64.0289 313.472 62.9889 313.472C61.9489 313.472 61.1649 313.952 60.6369 314.912C60.1089 315.856 59.8449 317.496 59.8449 319.832C59.8449 322.184 60.1169 323.84 60.6609 324.8C61.2049 325.76 61.9969 326.24 63.0369 326.24ZM71.5311 331.424C72.4431 331.36 73.1311 331.088 73.5951 330.608C74.0591 330.144 74.2511 329.512 74.1711 328.712H73.8831C73.7711 329.08 73.4751 329.264 72.9951 329.264C72.5631 329.264 72.1871 329.096 71.8671 328.76C71.5471 328.408 71.3871 327.96 71.3871 327.416C71.3871 326.824 71.5791 326.344 71.9631 325.976C72.3471 325.608 72.8511 325.424 73.4751 325.424C74.2591 325.424 74.8671 325.72 75.2991 326.312C75.7311 326.888 75.9471 327.656 75.9471 328.616C75.9471 329.784 75.5871 330.792 74.8671 331.64C74.1471 332.504 73.0351 332.984 71.5311 333.08V331.424ZM82.053 316.664C82.053 315.976 82.133 315.344 82.293 314.768L82.005 314.648C81.701 315.144 81.309 315.6 80.829 316.016C80.285 316.496 79.669 316.896 78.981 317.216C78.309 317.52 77.669 317.712 77.061 317.792V314.6C78.229 314.376 79.253 313.912 80.133 313.208C81.029 312.488 81.701 311.648 82.149 310.688H85.509V329H82.053V316.664ZM87.6731 326.384L93.4331 321.344C94.5691 320.352 95.4091 319.448 95.9531 318.632C96.4971 317.8 96.7691 316.968 96.7691 316.136C96.7691 315.272 96.5371 314.592 96.0731 314.096C95.6251 313.584 94.9371 313.328 94.0091 313.328C91.9771 313.328 90.8891 314.592 90.7451 317.12H87.5531C87.6331 314.944 88.2251 313.28 89.3291 312.128C90.4491 310.96 92.0171 310.376 94.0331 310.376C95.1851 310.376 96.2091 310.6 97.1051 311.048C98.0011 311.48 98.6971 312.112 99.1931 312.944C99.7051 313.76 99.9611 314.72 99.9611 315.824C99.9611 317.248 99.5451 318.584 98.7131 319.832C97.8971 321.08 96.8651 322.256 95.6171 323.36L93.7211 325.064C93.3531 325.416 92.8891 325.752 92.3291 326.072L92.4971 326.36C92.8971 326.184 93.2171 326.064 93.4571 326C93.6971 325.936 94.0011 325.904 94.3691 325.904H100.777V329H87.6731V326.384ZM109.184 329V324.872H101.264V321.56L109.256 310.688H112.64V321.776H114.968V324.872H112.64V329H109.184ZM104.288 322.088C104.688 321.96 105.016 321.88 105.272 321.848C105.544 321.8 105.848 321.776 106.184 321.776H109.184V317.096C109.184 316.696 109.192 316.368 109.208 316.112C109.24 315.856 109.312 315.528 109.424 315.128L109.136 315.032C108.864 315.512 108.544 316.008 108.176 316.52L105.488 320.36C105.136 320.872 104.688 321.352 104.144 321.8L104.288 322.088ZM118.147 329.264C117.603 329.264 117.139 329.08 116.755 328.712C116.371 328.328 116.179 327.864 116.179 327.32C116.179 326.808 116.371 326.368 116.755 326C117.155 325.616 117.619 325.424 118.147 325.424C118.643 325.424 119.075 325.616 119.443 326C119.827 326.368 120.019 326.808 120.019 327.32C120.019 327.864 119.835 328.328 119.467 328.712C119.099 329.08 118.659 329.264 118.147 329.264ZM128.398 329.336C123.918 329.336 121.678 326.152 121.678 319.784C121.678 316.536 122.246 314.152 123.382 312.632C124.534 311.112 126.174 310.352 128.302 310.352C132.782 310.352 135.022 313.536 135.022 319.904C135.022 326.192 132.814 329.336 128.398 329.336ZM128.326 326.24C129.366 326.24 130.166 325.76 130.726 324.8C131.286 323.84 131.566 322.192 131.566 319.856C131.566 317.52 131.278 315.872 130.702 314.912C130.126 313.952 129.318 313.472 128.278 313.472C127.238 313.472 126.454 313.952 125.926 314.912C125.398 315.856 125.134 317.496 125.134 319.832C125.134 322.184 125.406 323.84 125.95 324.8C126.494 325.76 127.286 326.24 128.326 326.24ZM143.756 329.336C139.276 329.336 137.036 326.152 137.036 319.784C137.036 316.536 137.604 314.152 138.74 312.632C139.892 311.112 141.532 310.352 143.66 310.352C148.14 310.352 150.38 313.536 150.38 319.904C150.38 326.192 148.172 329.336 143.756 329.336ZM143.684 326.24C144.724 326.24 145.524 325.76 146.084 324.8C146.644 323.84 146.924 322.192 146.924 319.856C146.924 317.52 146.636 315.872 146.06 314.912C145.484 313.952 144.676 313.472 143.636 313.472C142.596 313.472 141.812 313.952 141.284 314.912C140.756 315.856 140.492 317.496 140.492 319.832C140.492 322.184 140.764 323.84 141.308 324.8C141.852 325.76 142.644 326.24 143.684 326.24Z" fill="black"/>
<rect x="24" y="352" width="90" height="8" rx="4" fill="#E9E9E9"/>
<rect x="24" y="384" width="256" height="40" rx="4" fill="#F6E97A"/>
<circle cx="40" cy="404" r="4" fill="black"/>
<path d="M52.852 399.844H56.632C57.528 399.844 58.232 400.068 58.744 400.516C59.264 400.956 59.524 401.624 59.524 402.52C59.524 403.376 59.26 404.048 58.732 404.536C58.204 405.024 57.504 405.268 56.632 405.268H54.376V409H52.852V399.844ZM56.428 403.936C56.948 403.936 57.344 403.82 57.616 403.588C57.888 403.348 58.024 403.008 58.024 402.568C58.024 402.128 57.884 401.792 57.604 401.56C57.332 401.328 56.94 401.212 56.428 401.212H54.376V403.936H56.428ZM60.4267 409V402.292H61.8427V409H60.4267ZM61.1347 401.428C60.8787 401.428 60.6587 401.348 60.4747 401.188C60.2987 401.02 60.2107 400.812 60.2107 400.564C60.2107 400.316 60.2987 400.112 60.4747 399.952C60.6587 399.784 60.8787 399.7 61.1347 399.7C61.3987 399.7 61.6187 399.784 61.7947 399.952C61.9707 400.112 62.0587 400.316 62.0587 400.564C62.0587 400.812 61.9707 401.02 61.7947 401.188C61.6187 401.348 61.3987 401.428 61.1347 401.428ZM63.1516 402.292H64.5676V402.58C64.5676 402.7 64.5556 402.8 64.5316 402.88C64.5076 402.96 64.4636 403.044 64.3996 403.132L64.5676 403.24C64.8316 402.856 65.1076 402.584 65.3956 402.424C65.6916 402.256 66.0396 402.172 66.4396 402.172C67.4476 402.172 68.1316 402.536 68.4916 403.264C68.6276 403.528 68.7116 403.796 68.7436 404.068C68.7756 404.34 68.7916 404.676 68.7916 405.076V409H67.3636V405.076C67.3636 404.724 67.3356 404.436 67.2796 404.212C67.2316 403.988 67.1476 403.812 67.0276 403.684C66.8356 403.468 66.5316 403.36 66.1156 403.36C65.6356 403.36 65.2716 403.504 65.0236 403.792C64.8636 403.976 64.7476 404.22 64.6756 404.524C64.6036 404.828 64.5676 405.244 64.5676 405.772V409H63.1516V402.292ZM73.1203 409.132C72.4643 409.132 71.8803 408.984 71.3683 408.688C70.8643 408.384 70.4723 407.972 70.1923 407.452C69.9123 406.924 69.7723 406.332 69.7723 405.676C69.7723 405.068 69.8963 404.496 70.1443 403.96C70.4003 403.424 70.7763 402.992 71.2723 402.664C71.7763 402.336 72.3803 402.172 73.0843 402.172C73.6763 402.172 74.2243 402.3 74.7283 402.556C75.2403 402.804 75.6483 403.184 75.9523 403.696C76.2643 404.208 76.4203 404.836 76.4203 405.58V405.94H71.9803C71.5643 405.94 71.2763 405.928 71.1163 405.904L71.0683 406.096C71.1403 406.112 71.1883 406.144 71.2123 406.192C71.2443 406.232 71.2763 406.296 71.3083 406.384C71.3803 406.552 71.4243 406.652 71.4403 406.684C71.6003 407.06 71.8283 407.356 72.1243 407.572C72.4283 407.788 72.7723 407.896 73.1563 407.896C73.5643 407.896 73.9123 407.792 74.2003 407.584C74.4963 407.368 74.7083 407.1 74.8363 406.78H76.3003C76.0843 407.476 75.7083 408.044 75.1723 408.484C74.6363 408.916 73.9523 409.132 73.1203 409.132ZM71.2723 405.016C71.3923 404.944 71.4963 404.896 71.5843 404.872C71.6803 404.84 71.7923 404.824 71.9203 404.824H74.2963C74.4323 404.824 74.5483 404.84 74.6443 404.872C74.7483 404.896 74.8603 404.944 74.9803 405.016L75.1003 404.86C75.0283 404.82 74.9803 404.784 74.9563 404.752C74.9403 404.712 74.9203 404.656 74.8963 404.584C74.8803 404.472 74.8243 404.34 74.7283 404.188C74.5683 403.908 74.3483 403.696 74.0683 403.552C73.7883 403.4 73.4763 403.324 73.1323 403.324C72.7803 403.324 72.4683 403.4 72.1963 403.552C71.9243 403.696 71.7043 403.908 71.5363 404.188C71.4723 404.292 71.4163 404.424 71.3683 404.584C71.3523 404.648 71.3323 404.7 71.3083 404.74C71.2843 404.772 71.2363 404.812 71.1643 404.86L71.2723 405.016Z" fill="black"/>
<rect x="220" y="400" width="48" height="8" rx="4" fill="black"/>
<rect width="304" height="168" rx="8" fill="white"/>
<path d="M28.86 44V31.32H24.2V28.74H36.38V31.32H31.74V44H28.86ZM39.7242 44.22C38.6042 44.22 37.6109 43.9733 36.7442 43.48C35.8776 42.9867 35.1976 42.2933 34.7042 41.4C34.2242 40.5067 33.9842 39.48 33.9842 38.32C33.9842 37.2 34.2242 36.2 34.7042 35.32C35.1976 34.44 35.8776 33.76 36.7442 33.28C37.6109 32.7867 38.6042 32.54 39.7242 32.54C40.8442 32.54 41.8376 32.7867 42.7042 33.28C43.5842 33.7733 44.2642 34.46 44.7442 35.34C45.2376 36.2067 45.4842 37.2 45.4842 38.32C45.4842 39.48 45.2442 40.5067 44.7642 41.4C44.2842 42.2933 43.6042 42.9867 42.7242 43.48C41.8576 43.9733 40.8576 44.22 39.7242 44.22ZM39.7242 41.9C40.6042 41.9 41.3176 41.5667 41.8642 40.9C42.4109 40.2333 42.6842 39.3733 42.6842 38.32C42.6842 37.3067 42.4109 36.48 41.8642 35.84C41.3176 35.1867 40.6042 34.86 39.7242 34.86C39.1509 34.86 38.6376 35.0067 38.1842 35.3C37.7309 35.5933 37.3776 36.0067 37.1242 36.54C36.8709 37.06 36.7442 37.6533 36.7442 38.32C36.7442 39.3867 37.0176 40.2533 37.5642 40.92C38.1242 41.5733 38.8442 41.9 39.7242 41.9ZM50.2939 44C48.5472 44 47.6739 43.18 47.6739 41.54V34.94H46.0139V32.78H47.6739V28.74H50.3739V32.78H52.5339V34.94H50.3739V40.72C50.3739 41.0667 50.4272 41.3267 50.5339 41.5C50.6539 41.6733 50.9072 41.76 51.2939 41.76H52.5139V44H50.2939ZM57.0702 44.22C55.9768 44.22 55.0902 43.9333 54.4102 43.36C53.7302 42.7733 53.3902 41.96 53.3902 40.92C53.3902 39.8 53.8168 38.9467 54.6702 38.36C55.2835 37.9333 56.1568 37.6133 57.2902 37.4L60.6302 36.78C60.6302 36.1133 60.4502 35.5867 60.0902 35.2C59.7568 34.84 59.2568 34.66 58.5902 34.66C58.0702 34.66 57.6102 34.8133 57.2102 35.12C56.8235 35.4267 56.5835 35.84 56.4902 36.36H53.8102C53.9968 35.12 54.5435 34.1733 55.4502 33.52C56.3568 32.8667 57.4102 32.54 58.6102 32.54C59.2902 32.54 59.9235 32.64 60.5102 32.84C61.0968 33.0267 61.5968 33.3067 62.0102 33.68C62.4235 34.04 62.7235 34.46 62.9102 34.94C63.0968 35.42 63.2102 35.9 63.2502 36.38C63.3035 36.86 63.3302 37.4533 63.3302 38.16V44H60.6302V43.68C60.6302 43.3333 60.7168 42.98 60.8902 42.62L60.5902 42.46C60.3502 42.9533 60.0168 43.34 59.5902 43.62C58.9902 44.02 58.1502 44.22 57.0702 44.22ZM57.7302 42.1C58.2235 42.1 58.7035 41.9933 59.1702 41.78C59.5968 41.58 59.9368 41.2867 60.1902 40.9C60.3102 40.7 60.4035 40.5067 60.4702 40.32C60.5368 40.12 60.6102 39.8467 60.6902 39.5C60.7168 39.34 60.7568 39.2267 60.8102 39.16C60.8768 39.08 60.9702 39.0333 61.0902 39.02L61.0302 38.7C59.9635 38.9133 59.2768 39.0533 58.9702 39.12L58.0102 39.3C57.2902 39.4333 56.7702 39.6467 56.4502 39.94C56.2102 40.18 56.0902 40.4733 56.0902 40.82C56.0902 41.2333 56.2368 41.5533 56.5302 41.78C56.8368 41.9933 57.2368 42.1 57.7302 42.1ZM67.6066 44C66.7532 44 66.1066 43.8067 65.6666 43.42C65.2266 43.02 65.0066 42.3933 65.0066 41.54V28.74H67.7066V40.74C67.7066 41.1133 67.7732 41.38 67.9066 41.54C68.0532 41.6867 68.2932 41.76 68.6266 41.76H69.3466V44H67.6066ZM75.3733 28.74H81.9533C83.4466 28.74 84.6266 29.1133 85.4933 29.86C86.36 30.5933 86.7933 31.72 86.7933 33.24C86.7933 33.8267 86.7133 34.38 86.5533 34.9C86.3933 35.4067 86.1666 35.84 85.8733 36.2C85.38 36.8 84.8066 37.0867 84.1533 37.06L84.0533 37.32C84.2666 37.4933 84.4266 37.6733 84.5333 37.86C84.64 38.0333 84.7666 38.3067 84.9133 38.68L87.1333 44H84.0933L81.6733 37.88H78.2533V44H75.3733V28.74ZM81.5533 35.38C82.3266 35.38 82.9133 35.2067 83.3133 34.86C83.7266 34.5133 83.9333 34.0067 83.9333 33.34C83.9333 32.6867 83.7266 32.1867 83.3133 31.84C82.8999 31.4933 82.3133 31.32 81.5533 31.32H78.2533V35.38H81.5533ZM93.4089 44.22C92.2756 44.22 91.2756 43.9733 90.4089 43.48C89.5422 42.9867 88.8689 42.3067 88.3889 41.44C87.9222 40.56 87.6889 39.5667 87.6889 38.46C87.6889 37.4333 87.8956 36.4733 88.3089 35.58C88.7356 34.6733 89.3689 33.94 90.2089 33.38C91.0622 32.82 92.1022 32.54 93.3289 32.54C94.3422 32.54 95.2756 32.7533 96.1289 33.18C96.9822 33.5933 97.6689 34.24 98.1889 35.12C98.7089 35.9867 98.9689 37.0667 98.9689 38.36V38.94H91.8489C91.7689 38.94 91.5489 38.94 91.1889 38.94C90.8289 38.94 90.5422 38.92 90.3289 38.88L90.2489 39.18C90.3556 39.2067 90.4356 39.26 90.4889 39.34C90.5556 39.42 90.6089 39.5333 90.6489 39.68C90.7556 39.96 90.8422 40.1533 90.9089 40.26C91.1756 40.78 91.5289 41.1867 91.9689 41.48C92.4222 41.76 92.9356 41.9 93.5089 41.9C94.1222 41.9 94.6489 41.7467 95.0889 41.44C95.5289 41.12 95.8422 40.7133 96.0289 40.22H98.7889C98.4289 41.4067 97.7956 42.3733 96.8889 43.12C95.9822 43.8533 94.8222 44.22 93.4089 44.22ZM90.5689 37.22C90.7689 37.1 90.9489 37.02 91.1089 36.98C91.2689 36.94 91.4489 36.92 91.6489 36.92H95.1289C95.3422 36.92 95.5289 36.94 95.6889 36.98C95.8622 37.02 96.0556 37.1 96.2689 37.22L96.4289 36.94C96.3356 36.8867 96.2689 36.84 96.2289 36.8C96.1889 36.7467 96.1556 36.6933 96.1289 36.64C96.1156 36.5867 96.1089 36.5533 96.1089 36.54C96.0556 36.3133 95.9489 36.0933 95.7889 35.88C95.5356 35.4933 95.2022 35.2 94.7889 35C94.3756 34.7867 93.9156 34.68 93.4089 34.68C92.9022 34.68 92.4422 34.78 92.0289 34.98C91.6289 35.18 91.3022 35.48 91.0489 35.88C90.8756 36.0933 90.7622 36.3133 90.7089 36.54C90.7089 36.5533 90.6956 36.5933 90.6689 36.66C90.6422 36.7133 90.6089 36.7667 90.5689 36.82C90.5289 36.86 90.4689 36.9 90.3889 36.94L90.5689 37.22ZM99.108 32.78H101.988L103.828 38.4C103.948 38.7867 104.028 39.1333 104.068 39.44C104.121 39.7467 104.161 40.1 104.188 40.5H104.428C104.428 40.42 104.441 40.2467 104.468 39.98C104.495 39.7 104.535 39.4333 104.588 39.18C104.641 38.9133 104.708 38.6533 104.788 38.4L106.668 32.78H109.548L105.388 44H103.248L99.108 32.78ZM115.412 44.22C114.279 44.22 113.279 43.9733 112.412 43.48C111.545 42.9867 110.872 42.3067 110.392 41.44C109.925 40.56 109.692 39.5667 109.692 38.46C109.692 37.4333 109.899 36.4733 110.312 35.58C110.739 34.6733 111.372 33.94 112.212 33.38C113.065 32.82 114.105 32.54 115.332 32.54C116.345 32.54 117.279 32.7533 118.132 33.18C118.985 33.5933 119.672 34.24 120.192 35.12C120.712 35.9867 120.972 37.0667 120.972 38.36V38.94H113.852C113.772 38.94 113.552 38.94 113.192 38.94C112.832 38.94 112.545 38.92 112.332 38.88L112.252 39.18C112.359 39.2067 112.439 39.26 112.492 39.34C112.559 39.42 112.612 39.5333 112.652 39.68C112.759 39.96 112.845 40.1533 112.912 40.26C113.179 40.78 113.532 41.1867 113.972 41.48C114.425 41.76 114.939 41.9 115.512 41.9C116.125 41.9 116.652 41.7467 117.092 41.44C117.532 41.12 117.845 40.7133 118.032 40.22H120.792C120.432 41.4067 119.799 42.3733 118.892 43.12C117.985 43.8533 116.825 44.22 115.412 44.22ZM112.572 37.22C112.772 37.1 112.952 37.02 113.112 36.98C113.272 36.94 113.452 36.92 113.652 36.92H117.132C117.345 36.92 117.532 36.94 117.692 36.98C117.865 37.02 118.059 37.1 118.272 37.22L118.432 36.94C118.339 36.8867 118.272 36.84 118.232 36.8C118.192 36.7467 118.159 36.6933 118.132 36.64C118.119 36.5867 118.112 36.5533 118.112 36.54C118.059 36.3133 117.952 36.0933 117.792 35.88C117.539 35.4933 117.205 35.2 116.792 35C116.379 34.7867 115.919 34.68 115.412 34.68C114.905 34.68 114.445 34.78 114.032 34.98C113.632 35.18 113.305 35.48 113.052 35.88C112.879 36.0933 112.765 36.3133 112.712 36.54C112.712 36.5533 112.699 36.5933 112.672 36.66C112.645 36.7133 112.612 36.7667 112.572 36.82C112.532 36.86 112.472 36.9 112.392 36.94L112.572 37.22ZM122.345 32.78H125.045V33.14C125.045 33.3533 125.025 33.5267 124.985 33.66C124.945 33.7933 124.865 33.9267 124.745 34.06L125.025 34.26C125.452 33.6333 125.905 33.1933 126.385 32.94C126.878 32.6733 127.452 32.54 128.105 32.54C129.838 32.54 131.005 33.1667 131.605 34.42C131.805 34.86 131.932 35.3067 131.985 35.76C132.038 36.2133 132.065 36.8067 132.065 37.54V44H129.385V37.5C129.385 36.42 129.198 35.6733 128.825 35.26C128.505 34.9267 128.032 34.76 127.405 34.76C126.658 34.76 126.092 34.9867 125.705 35.44C125.478 35.7067 125.312 36.0667 125.205 36.52C125.098 36.96 125.045 37.5467 125.045 38.28V44H122.345V32.78ZM137.774 44.22C136.028 44.22 134.861 43.6 134.274 42.36C134.061 41.92 133.928 41.4733 133.874 41.02C133.821 40.5533 133.794 39.96 133.794 39.24V32.78H136.494V39.26C136.494 39.8333 136.534 40.3 136.614 40.66C136.708 41.0067 136.848 41.2867 137.034 41.5C137.328 41.8333 137.801 42 138.454 42C139.214 42 139.788 41.7733 140.174 41.32C140.401 41.0667 140.561 40.72 140.654 40.28C140.761 39.8267 140.814 39.2267 140.814 38.48V32.78H143.514V44H140.814V43.64C140.814 43.44 140.834 43.2733 140.874 43.14C140.928 42.9933 141.008 42.8467 141.114 42.7L140.834 42.52C140.408 43.1333 139.954 43.5733 139.474 43.84C138.994 44.0933 138.428 44.22 137.774 44.22ZM150.643 44.22C149.51 44.22 148.51 43.9733 147.643 43.48C146.777 42.9867 146.103 42.3067 145.623 41.44C145.157 40.56 144.923 39.5667 144.923 38.46C144.923 37.4333 145.13 36.4733 145.543 35.58C145.97 34.6733 146.603 33.94 147.443 33.38C148.297 32.82 149.337 32.54 150.563 32.54C151.577 32.54 152.51 32.7533 153.363 33.18C154.217 33.5933 154.903 34.24 155.423 35.12C155.943 35.9867 156.203 37.0667 156.203 38.36V38.94H149.083C149.003 38.94 148.783 38.94 148.423 38.94C148.063 38.94 147.777 38.92 147.563 38.88L147.483 39.18C147.59 39.2067 147.67 39.26 147.723 39.34C147.79 39.42 147.843 39.5333 147.883 39.68C147.99 39.96 148.077 40.1533 148.143 40.26C148.41 40.78 148.763 41.1867 149.203 41.48C149.657 41.76 150.17 41.9 150.743 41.9C151.357 41.9 151.883 41.7467 152.323 41.44C152.763 41.12 153.077 40.7133 153.263 40.22H156.023C155.663 41.4067 155.03 42.3733 154.123 43.12C153.217 43.8533 152.057 44.22 150.643 44.22ZM147.803 37.22C148.003 37.1 148.183 37.02 148.343 36.98C148.503 36.94 148.683 36.92 148.883 36.92H152.363C152.577 36.92 152.763 36.94 152.923 36.98C153.097 37.02 153.29 37.1 153.503 37.22L153.663 36.94C153.57 36.8867 153.503 36.84 153.463 36.8C153.423 36.7467 153.39 36.6933 153.363 36.64C153.35 36.5867 153.343 36.5533 153.343 36.54C153.29 36.3133 153.183 36.0933 153.023 35.88C152.77 35.4933 152.437 35.2 152.023 35C151.61 34.7867 151.15 34.68 150.643 34.68C150.137 34.68 149.677 34.78 149.263 34.98C148.863 35.18 148.537 35.48 148.283 35.88C148.11 36.0933 147.997 36.3133 147.943 36.54C147.943 36.5533 147.93 36.5933 147.903 36.66C147.877 36.7133 147.843 36.7667 147.803 36.82C147.763 36.86 147.703 36.9 147.623 36.94L147.803 37.22Z" fill="black"/>
<path d="M264.5 27C263.675 27 263 27.675 263 28.5C263 29.325 263.675 30 264.5 30C265.325 30 266 29.325 266 28.5C266 27.675 265.325 27 264.5 27ZM264.5 42C263.675 42 263 42.675 263 43.5C263 44.325 263.675 45 264.5 45C265.325 45 266 44.325 266 43.5C266 42.675 265.325 42 264.5 42ZM264.5 34.5C263.675 34.5 263 35.175 263 36C263 36.825 263.675 37.5 264.5 37.5C265.325 37.5 266 36.825 266 36C266 35.175 265.325 34.5 264.5 34.5Z" fill="#A0A0A0"/>
<path d="M271.5 27C270.675 27 270 27.675 270 28.5C270 29.325 270.675 30 271.5 30C272.325 30 273 29.325 273 28.5C273 27.675 272.325 27 271.5 27ZM271.5 42C270.675 42 270 42.675 270 43.5C270 44.325 270.675 45 271.5 45C272.325 45 273 44.325 273 43.5C273 42.675 272.325 42 271.5 42ZM271.5 34.5C270.675 34.5 270 35.175 270 36C270 36.825 270.675 37.5 271.5 37.5C272.325 37.5 273 36.825 273 36C273 35.175 272.325 34.5 271.5 34.5Z" fill="#A0A0A0"/>
<line x1="24" y1="71.5" x2="280" y2="71.5" stroke="#E9E9E9"/>
<rect x="24" y="96" width="48" height="48" rx="24" fill="#F6E97A"/>
<path d="M48 128C43.5816 128 40 124.418 40 120C40 115.582 43.5816 112 48 112C52.4184 112 56 115.582 56 120C56 124.418 52.4184 128 48 128ZM45.2 121.6V123.2H47.2V124.8H48.8V123.2H49.6C50.1304 123.2 50.6391 122.989 51.0142 122.614C51.3893 122.239 51.6 121.73 51.6 121.2C51.6 120.67 51.3893 120.161 51.0142 119.786C50.6391 119.411 50.1304 119.2 49.6 119.2H46.4C46.2939 119.2 46.1922 119.158 46.1172 119.083C46.0421 119.008 46 118.906 46 118.8C46 118.694 46.0421 118.592 46.1172 118.517C46.1922 118.442 46.2939 118.4 46.4 118.4H50.8V116.8H48.8V115.2H47.2V116.8H46.4C45.8696 116.8 45.3609 117.011 44.9858 117.386C44.6107 117.761 44.4 118.27 44.4 118.8C44.4 119.33 44.6107 119.839 44.9858 120.214C45.3609 120.589 45.8696 120.8 46.4 120.8H49.6C49.7061 120.8 49.8078 120.842 49.8828 120.917C49.9579 120.992 50 121.094 50 121.2C50 121.306 49.9579 121.408 49.8828 121.483C49.8078 121.558 49.7061 121.6 49.6 121.6H45.2Z" fill="black"/>
<path d="M99.776 132V126.496H89.216V122.08L99.872 107.584H104.384V122.368H107.488V126.496H104.384V132H99.776ZM93.248 122.784C93.7813 122.613 94.2187 122.507 94.56 122.464C94.9227 122.4 95.328 122.368 95.776 122.368H99.776V116.128C99.776 115.595 99.7867 115.157 99.808 114.816C99.8507 114.475 99.9467 114.037 100.096 113.504L99.712 113.376C99.3493 114.016 98.9227 114.677 98.432 115.36L94.848 120.48C94.3787 121.163 93.7813 121.803 93.056 122.4L93.248 122.784ZM111.727 132.352C111.001 132.352 110.383 132.107 109.871 131.616C109.359 131.104 109.103 130.485 109.103 129.76C109.103 129.077 109.359 128.491 109.871 128C110.404 127.488 111.023 127.232 111.727 127.232C112.388 127.232 112.964 127.488 113.455 128C113.967 128.491 114.223 129.077 114.223 129.76C114.223 130.485 113.977 131.104 113.487 131.616C112.996 132.107 112.409 132.352 111.727 132.352ZM125.363 132.448C123.571 132.448 121.982 132.117 120.595 131.456C119.23 130.795 118.153 129.856 117.363 128.64C116.574 127.403 116.137 125.952 116.051 124.288H120.659C121.001 127.104 122.59 128.512 125.427 128.512C126.729 128.512 127.742 128.171 128.467 127.488C129.193 126.805 129.555 125.867 129.555 124.672C129.555 123.456 129.129 122.549 128.275 121.952C127.443 121.355 126.249 121.056 124.691 121.056H123.219V117.312H124.531C125.598 117.312 126.483 117.035 127.187 116.48C127.891 115.904 128.243 115.115 128.243 114.112C128.243 113.173 127.955 112.437 127.379 111.904C126.803 111.371 125.993 111.104 124.947 111.104C123.902 111.104 123.049 111.403 122.387 112C121.726 112.576 121.321 113.472 121.171 114.688H116.947C117.033 113.195 117.427 111.883 118.131 110.752C118.835 109.6 119.774 108.715 120.947 108.096C122.142 107.477 123.486 107.168 124.979 107.168C126.494 107.168 127.838 107.456 129.011 108.032C130.185 108.608 131.091 109.397 131.731 110.4C132.371 111.403 132.691 112.533 132.691 113.792C132.691 115.072 132.339 116.171 131.635 117.088C130.931 117.984 129.982 118.443 128.787 118.464V118.976C130.515 119.04 131.838 119.616 132.755 120.704C133.694 121.771 134.163 123.115 134.163 124.736C134.163 126.229 133.79 127.563 133.043 128.736C132.318 129.909 131.283 130.827 129.939 131.488C128.617 132.128 127.091 132.448 125.363 132.448ZM135.661 128.512L143.341 121.792C144.856 120.469 145.976 119.264 146.701 118.176C147.427 117.067 147.789 115.957 147.789 114.848C147.789 113.696 147.48 112.789 146.861 112.128C146.264 111.445 145.347 111.104 144.109 111.104C141.4 111.104 139.949 112.789 139.757 116.16H135.501C135.608 113.259 136.397 111.04 137.869 109.504C139.363 107.947 141.453 107.168 144.141 107.168C145.677 107.168 147.043 107.467 148.237 108.064C149.432 108.64 150.36 109.483 151.021 110.592C151.704 111.68 152.045 112.96 152.045 114.432C152.045 116.331 151.491 118.112 150.381 119.776C149.293 121.44 147.917 123.008 146.253 124.48L143.725 126.752C143.235 127.221 142.616 127.669 141.869 128.096L142.093 128.48C142.627 128.245 143.053 128.085 143.373 128C143.693 127.915 144.099 127.872 144.589 127.872H153.133V132H135.661V128.512ZM155.675 107.584H159.995V117.76C159.995 118.272 159.974 118.731 159.931 119.136C159.91 119.541 159.825 120.032 159.675 120.608L160.059 120.768C160.422 120.299 160.955 119.691 161.659 118.944L166.555 114.048H172.027L165.307 120.608C164.902 121.013 164.411 121.344 163.835 121.6V122.048C164.411 122.347 164.902 122.763 165.307 123.296L172.603 132H167.291L161.659 125.184C160.742 123.989 160.209 123.285 160.059 123.072L159.675 123.2C159.825 123.797 159.91 124.309 159.931 124.736C159.974 125.163 159.995 125.643 159.995 126.176V132H155.675V107.584Z" fill="black"/>
<defs>
<filter id="filter0_d_109:2926" x="479" y="221" width="20" height="20" filterUnits="userSpaceOnUse" color-interpolation-filters="sRGB">
<feFlood flood-opacity="0" result="BackgroundImageFix"/>
<feColorMatrix in="SourceAlpha" type="matrix" values="0 0 0 0 0 0 0 0 0 0 0 0 0 0 0 0 0 0 127 0" result="hardAlpha"/>
<feOffset dy="4"/>
<feGaussianBlur stdDeviation="2"/>
<feComposite in2="hardAlpha" operator="out"/>
<feColorMatrix type="matrix" values="0 0 0 0 0 0 0 0 0 0 0 0 0 0 0 0 0 0 0.08 0"/>
<feBlend mode="normal" in2="BackgroundImageFix" result="effect1_dropShadow_109:2926"/>
<feBlend mode="normal" in="SourceGraphic" in2="effect1_dropShadow_109:2926" result="shape"/>
</filter>
<linearGradient id="paint0_linear_109:2926" x1="488.22" y1="178" x2="488.22" y2="290" gradientUnits="userSpaceOnUse">
<stop/>
<stop offset="1" stop-opacity="0"/>
</linearGradient>
</defs>
</svg>
