<svg width="24" height="24" viewBox="0 0 24 24" fill="none" xmlns="http://www.w3.org/2000/svg">
<path d="M5.63611 18.3639C4.79914 17.5291 4.13539 16.5371 3.683 15.445C3.23061 14.3529 2.9985 13.1821 3.00001 12C3.00001 7.0293 7.02931 3 12 3C16.9707 3 21 7.0293 21 12C21 16.9707 16.9707 21 12 21H3.00001L5.63611 18.3639ZM8.40001 12.9C8.40001 13.8548 8.77929 14.7705 9.45442 15.4456C10.1296 16.1207 11.0452 16.5 12 16.5C12.9548 16.5 13.8705 16.1207 14.5456 15.4456C15.2207 14.7705 15.6 13.8548 15.6 12.9H8.40001Z" fill="black"/>
</svg>
