<svg width="1060" height="416" viewBox="0 0 1060 416" fill="none" xmlns="http://www.w3.org/2000/svg">
<g clip-path="url(#clip0_207:3294)">
<path d="M351.94 -129.628C361.25 -114.299 367.211 -97.1703 369.432 -79.371C375.898 -34.0539 372.986 12.1037 360.877 56.2297C353.344 89.7097 352.589 96.8259 355.607 110.12C359.732 127.503 367.245 134.562 396.732 150.688C441.798 174.68 456.497 178.265 489.461 173.571C511.486 169.366 533.129 163.366 554.175 155.631C573.53 148.334 594.315 145.637 614.895 147.752C640.763 152.631 659.991 171.872 676.411 209.598C685.461 231.047 692.719 253.21 698.107 275.859C707.82 311.64 711.061 319.576 720.065 330.634C732.521 345.361 752.287 348.559 776.55 339.81C800.813 331.06 818.92 319.826 862.078 287.142C905.236 254.458 917.405 246.81 937.304 241.408C947.657 237.255 959.059 236.491 969.878 239.226C980.697 241.96 990.377 248.054 997.532 256.633C1004.44 265.46 1010.88 274.647 1016.82 284.156C1024.38 295.965 1032.89 308.364 1035.95 312.125C1043.2 320.921 1052.26 328.05 1062.5 333.03C1083.24 339.785 1105.24 341.684 1126.81 338.58C1149.94 335.145 1172.73 329.737 1194.94 322.416L1212.43 316.631L1210.88 310.064L1209.32 303.497L1176.41 311.305C1161.6 315.65 1146.35 318.355 1130.95 319.373C1110.5 321.679 1089.82 317.823 1071.57 308.299C1058.29 300.133 1047.34 288.677 1039.78 275.037C1030.09 259.006 1018.79 244.002 1006.07 230.259C1000.21 224.496 993.203 220.038 985.505 217.177C977.806 214.316 969.593 213.115 961.402 213.655C950.472 214.06 939.729 216.609 929.783 221.158C911.334 228.664 899.551 236.22 850.045 271.907C816.86 295.695 800.774 304.001 779.511 308.23C774.632 309.927 769.441 310.538 764.3 310.019C759.159 309.501 754.192 307.866 749.744 305.228C738.223 298.441 728.98 282.952 719.596 254.846C708.784 221.81 695.732 189.55 680.529 158.293C659.63 119.998 634.897 108.457 594.024 118.156C586.183 120.016 571.647 124.554 561.51 128.183L529.168 140.074C510.539 147.055 491.108 151.666 471.329 153.799C446.372 153.992 421.928 146.665 401.17 132.769C388.192 127.059 377.713 116.839 371.669 103.996C366.171 91.6989 366.077 80.4316 372.725 40.3607C380.657 -2.43864 381.812 -46.2275 376.149 -89.3979C374.15 -103.936 369.88 -118.07 363.495 -131.282C361.55 -134.901 361.391 -134.999 356.25 -133.779C351.109 -132.559 351.108 -132.559 352.46 -130.296L351.94 -129.628Z" fill="white"/>
<path d="M391.085 -257.356C391.085 -255.902 389.63 -249.293 388.571 -242.419C387.513 -235.545 384.603 -222.458 382.222 -213.072C379.841 -203.687 374.815 -185.312 371.243 -171.961C364.365 -148.901 360.584 -125.03 360 -100.974C360 -78.3696 363.968 -66.7369 374.418 -57.3513C380.929 -51.5608 388.802 -47.513 397.302 -45.5862C407.938 -42.7124 419.013 -41.8165 429.974 -42.9426C457.751 -42.9426 463.968 -43.7356 517.937 -55.2362C571.905 -66.7369 589.101 -69.1163 605.899 -67.6622C638.042 -65.0184 652.989 -52.196 658.81 -22.3208C659.735 -17.5619 660.794 -0.244809 661.587 18.2619C660.865 42.3572 664.219 66.4015 671.508 89.3808C674.311 100.353 679.825 110.447 687.543 118.738C695.262 127.029 704.939 133.252 715.688 136.837C731.958 142.257 738.571 142.918 789.762 143.05C809.76 142.389 829.781 143.096 849.683 145.165C877.376 149.249 903.56 160.354 925.741 177.42C931.429 181.386 949.55 197.645 966.217 213.508C1004.84 250.257 1024.95 265.062 1053.39 277.092L1060 280V261.229L1052.2 256.073C1029.31 240.871 1000.74 219.986 980.767 203.858C957.667 183.804 932.216 166.626 904.973 152.7C874.418 137.498 853.386 133.532 794.259 131.285C773.43 131.359 752.66 129.053 732.355 124.411C719.95 121.146 708.717 114.454 699.944 105.102C691.17 95.7496 685.212 84.1162 682.751 71.5349C677.512 49.9195 675.682 27.619 677.328 5.43939C677.328 -35.0111 676.534 -43.2067 670.979 -55.5005C666.527 -63.8744 659.961 -70.9386 651.931 -75.9903C635.217 -83.7534 616.621 -86.5522 598.36 -84.0538C575.082 -81.9044 552.028 -77.7919 529.444 -71.7601C471.508 -58.541 466.217 -57.7479 437.91 -57.7479C426.315 -56.3674 414.561 -57.4027 403.386 -60.7884C396.244 -62.5372 389.666 -66.0766 384.273 -71.0727C378.88 -76.0688 374.851 -82.3567 372.566 -89.3417C370.29 -97.9578 369.529 -106.904 370.317 -115.78C370.317 -141.557 372.698 -153.851 386.587 -201.704C392.099 -219.69 396.213 -238.075 398.889 -256.695C398.889 -259.736 398.889 -260 395.45 -260C392.01 -260 391.746 -260 391.482 -257.489L391.085 -257.356Z" fill="white"/>
<path d="M442.276 -252.152C439.502 -240.78 435.01 -223.854 429.991 -207.06C424.031 -190.429 420.992 -172.892 421.008 -155.224C420.875 -148.876 422.473 -142.613 425.631 -137.107C428.06 -132.524 431.417 -128.498 435.489 -125.287C439.561 -122.077 444.257 -119.752 449.277 -118.462C458.177 -116.039 467.431 -115.188 476.623 -115.95C501.194 -115.95 506.346 -116.875 562.225 -129.173C586.675 -136.054 611.873 -139.918 637.259 -140.678C654.312 -141.894 671.445 -140.058 687.854 -135.256C734.618 -122.032 749.15 -90.9572 740.695 -22.0627C737.566 -1.15391 737.566 20.1046 740.695 41.0133C743.083 50.9167 748 60.0296 754.962 67.4604C768.173 80.6839 783.628 85.5766 836.601 93.9074C859.133 96.67 881.43 101.09 903.313 107.131C925.902 113.478 993.539 129.743 1006.75 131.991C1012.17 132.917 1023.53 134.504 1031.85 135.429C1041 135.69 1050 137.851 1058.27 141.776C1059.46 142.834 1059.72 140.454 1059.72 127.76C1060.35 122.26 1059.91 116.69 1058.4 111.363C1049.64 110.245 1040.81 109.715 1031.98 109.776C987.613 107.71 943.458 102.361 899.879 93.775C887.461 90.9981 866.589 86.8992 853.378 84.6512C834.587 82.2275 816.029 78.2465 797.896 72.7497C773.325 64.6834 762.36 54.1045 756.679 33.0792C753.876 14.4952 753.876 -4.4045 756.679 -22.9884C761.831 -67.6839 759.586 -91.7508 748.093 -113.173C738.053 -131.818 720.88 -142 686.269 -150.066C674.408 -152.47 662.284 -153.315 650.205 -152.579C622.636 -152.939 595.167 -149.196 568.698 -141.471C519.556 -130.495 500.137 -128.247 480.85 -128.247C450.995 -129.967 436.86 -141.471 435.142 -165.406C435.286 -183.427 438.41 -201.3 444.39 -218.3C448.221 -232.978 451.391 -246.995 451.523 -249.375C451.655 -251.755 451.523 -253.474 447.428 -253.871C443.333 -254.268 443.069 -253.871 442.408 -250.962L442.276 -252.152Z" fill="white"/>
<path d="M101.015 -248.816L87.793 -248.155L94.1391 -246.168C109.4 -242.208 124.902 -239.245 140.548 -237.299C146.313 -236.804 152.022 -235.785 157.604 -234.254C154.41 -234.134 151.214 -234.4 148.084 -235.048C127.839 -237.276 107.779 -240.948 88.0573 -246.036C77.6121 -248.816 70.7368 -249.478 72.72 -247.757C85.5689 -243.013 98.8555 -239.554 112.385 -237.431L146.762 -232.401C170.751 -230.555 194.238 -224.552 216.176 -214.661C225.668 -210.359 233.839 -203.594 239.843 -195.068C246.48 -186.157 249.758 -175.185 249.098 -164.089C249.412 -150.059 245.596 -136.247 238.124 -124.374C227.547 -103.589 217.366 -91.1447 175.585 -48.1193C139.622 -11.316 129.441 5.89416 129.706 27.6054C129.706 39.123 135.126 58.8485 137.506 56.598C137.293 53.5155 136.625 50.4815 135.523 47.5954C133.335 40.8958 132.394 33.8511 132.747 26.8112C132.435 19.8653 133.987 12.9625 137.242 6.82076C144.117 -9.06554 157.075 -25.6136 187.22 -55.93C236.008 -105.442 254.387 -136.553 253.329 -167.664C253.358 -178.967 249.533 -189.943 242.487 -198.774C231.116 -214.396 211.151 -224.06 176.378 -230.944C171.891 -231.696 167.469 -232.802 163.157 -234.254C176.569 -232.411 189.826 -229.579 202.822 -225.781C212.527 -223.431 221.672 -219.179 229.728 -213.271C237.784 -207.363 244.592 -199.917 249.759 -191.361C254.052 -183.215 256.148 -174.089 255.841 -164.884C255.841 -135.494 239.314 -106.502 197.533 -62.8143C183.508 -48.9571 170.266 -34.3278 157.868 -18.9946C145.386 -5.4671 138.612 12.3689 138.961 30.7826C140.754 42.7115 144.744 54.2032 150.728 64.6733C160.494 78.6791 174.35 89.3156 190.393 95.1223C209.807 102.975 226.719 115.972 239.314 132.72C246.047 143.31 251.548 154.636 255.709 166.478C270.925 205.761 297.893 239.376 332.923 262.723C347.998 272.541 362.119 283.755 375.101 296.216C386.939 310.638 395.227 327.643 399.297 345.861C413.576 393.387 430.764 412.98 469.239 425.292C503.087 436.148 536.274 437.605 590.879 430.588C655.534 422.248 680.655 425.293 707.892 444.621C717.808 451.637 742.929 471.098 742.929 471.892C742.929 472.687 742.929 471.892 725.476 461.698C711.082 452.273 695.696 444.46 679.597 438.399C659.5 432.441 633.718 432.839 585.591 439.326C561.985 443.483 538.021 445.257 514.061 444.621C461.174 442.503 422.567 429.661 401.148 406.758C390.854 394.545 382.311 380.955 375.762 366.381C371.193 357.25 366.071 348.408 360.425 339.904C350.641 326.665 336.626 316.471 306.083 300.85C296.167 295.819 283.739 288.803 278.186 285.361C259.548 272.751 244.036 256.042 232.835 236.51C226.402 221.782 221.184 206.551 217.233 190.97C215.147 183.601 212.541 176.389 209.433 169.391C200.971 152.842 186.162 141.722 152.447 126.63C138.067 121.265 124.931 113.022 113.84 102.403C99.9813 87.6865 89.511 70.1082 83.1653 50.9051C79.3316 33.2199 82.0081 14.7434 90.7018 -1.12247C98.6348 -17.0088 108.419 -28.9232 137.242 -57.5186C173.734 -93.6599 182.593 -103.721 191.319 -119.21C196.604 -127.638 199.23 -137.465 198.855 -147.409C197.401 -165.016 184.179 -175.607 154.827 -182.756C131.619 -187.664 108.051 -190.675 84.3552 -191.758C59.6939 -193.121 35.167 -196.307 10.9748 -201.29C-0.263676 -204.467 0.000532818 -204.599 0.000532818 -197.451C0.000532818 -192.685 0.000581206 -191.096 2.11606 -190.699C23.3754 -186.886 44.8265 -184.234 66.3738 -182.756C134.069 -176.004 155.224 -170.973 169.371 -158.264C183.518 -145.555 180.609 -127.551 161.967 -103.324C158 -98.1613 142.531 -81.7452 127.59 -67.0504C96.1224 -35.8073 84.3551 -21.6424 74.7032 -2.04927C67.3132 10.6664 63.0529 24.9614 62.2747 39.6526C61.5123 46.679 62.1415 53.7867 64.126 60.5694C70.9482 84.6965 85.1987 106.054 104.849 121.599C114.616 127.731 124.775 133.215 135.259 138.015C168.71 153.902 179.552 161.315 188.146 174.686C196.033 188.201 201.199 203.134 203.351 218.638C205.44 232.877 209.91 246.661 216.572 259.413C231.201 283.38 253.188 301.958 279.243 312.367C317.19 330.107 327.37 336.197 338.873 348.244C349.4 360.256 358.292 373.61 365.317 387.96C375.314 407.953 391.374 424.265 411.196 434.56C433.868 444.632 458.028 450.937 482.726 453.226C512.184 455.653 541.807 455.21 571.179 451.902C587.98 449.879 604.898 448.995 621.818 449.255C665.053 449.255 665.186 449.254 729.047 491.353C750.375 503.207 772.459 513.644 795.155 522.596C818.005 531.289 842.401 535.166 866.817 533.981C874.221 533.981 894.582 531.201 912.167 528.818C962.542 521.669 979.466 521.537 1011.07 528.818C1027.53 530.833 1043.24 536.881 1056.81 546.426L1059.99 550V530.142C1059.99 506.18 1061.18 507.769 1041.34 504.459C1003.34 499.439 964.917 498.463 926.711 501.547C904.727 503.691 882.587 503.691 860.602 501.547C833.408 496.138 807.366 486.012 783.652 471.627C766.966 461.022 750.856 449.533 735.393 437.207C726.086 429.74 716.18 423.054 705.776 417.217C687.161 409.948 667.018 407.49 647.204 410.068C630.941 411.392 626.578 411.921 590.483 417.482C541.562 424.895 512.078 423.969 481.007 414.04C469.947 411.172 459.599 406.046 450.612 398.983C441.625 391.921 434.192 383.075 428.781 373C421.896 359.059 417.001 344.219 414.237 328.915C411.873 314.87 407.416 301.259 401.016 288.538C389.681 273.654 375.695 260.997 359.764 251.205C344.356 241.265 329.766 230.109 316.132 217.844C293.248 198.563 275.144 174.227 263.245 146.753C247.247 114.318 234.554 102.138 198.855 84.3987C185.398 79.4747 173.426 71.1797 164.082 60.3048C157.087 51.0468 153.324 39.7435 153.373 28.1347C152.433 21.2792 153.299 14.2969 155.885 7.87967C161.57 -8.53618 171.486 -22.3039 200.839 -54.2089C221.878 -74.4645 239.711 -97.8118 253.725 -123.447C276.07 -168.061 266.154 -208.306 228.34 -227.37C211.548 -235.843 194.36 -240.609 150.464 -247.36C134.355 -250.155 117.941 -250.734 101.676 -249.081L101.015 -248.816Z" fill="white"/>
<path d="M3 152.097C3 180.687 2.99976 180.951 5.64325 183.201C19.3965 192.881 34.1 201.13 49.5253 207.82C64.461 215.365 80.5865 223.836 85.2126 226.88C93.8695 232.352 101.244 239.632 106.833 248.221C112.422 256.811 116.093 266.507 117.595 276.648C121.789 301.872 133.977 325.076 152.357 342.828C169.011 358.843 180.51 364.138 225.45 376.579C276.601 390.742 287.572 397.492 309.248 427.141C315.328 435.215 324.184 445.937 328.943 450.966C355.377 477.438 377.186 483.262 502.884 496.763C564.742 503.381 578.62 506.028 596.067 514.499C609.311 521.274 621.329 530.222 631.622 540.971C648.075 558.412 668.675 571.391 691.497 578.694C711.416 586.379 730.575 595.906 748.729 607.151C760.276 614.79 770.957 623.666 780.583 633.623C792.187 646.663 805.961 657.59 821.293 665.919C837.022 673.464 845.348 675.052 880.11 676.64C928.618 678.758 948.048 684.714 968.139 703.112C984.396 718.334 992.327 732.761 1005.94 771.807C1008.74 780.924 1012.32 789.781 1016.65 798.279C1024.07 799.873 1031.68 800.363 1039.25 799.735H1060V787.823C1060 776.175 1060 775.513 1051.14 749.306C1046.52 730.255 1038.26 712.278 1026.82 696.362C1010.73 673.291 988.138 655.549 961.926 645.403C947.123 640.241 932.187 638.785 890.023 638.52C874.241 639.618 858.382 638.684 842.837 635.741C824.431 630.039 807.322 620.775 792.478 608.475C768.403 590.859 742.686 575.611 715.685 562.943C696.399 554.833 678.546 543.659 662.815 529.853C651.045 517.831 637.707 507.457 623.163 499.013C604.394 489.483 590.516 487.1 540.554 484.718C499.103 483.827 457.803 479.398 417.103 471.482C381.416 463.805 364.894 455.996 347.579 438.127C337.656 427.128 328.805 415.206 321.144 402.522C304.755 378.3 290.744 369.697 241.84 353.814C226.632 350.216 212.058 344.325 198.618 336.342C181.041 324.789 167.25 308.308 158.966 288.957C155.846 279.924 153.373 270.679 151.564 261.294C149.449 250.97 146.806 239.851 145.748 236.41C138.082 211.923 124.6 201.202 78.3393 182.539C58.1334 176.047 39.5917 165.205 24.0157 150.773C16.5797 143.457 10.0961 135.229 4.71833 126.286C3.66094 124.566 3.2642 130.257 3.2642 152.758L3 152.097Z" fill="white"/>
<path d="M0.795652 236.03V248.589L15.1182 261.809C31.2935 274.864 43.6205 292.041 50.791 311.517C63.3894 343.906 81.9555 364.398 123.464 390.838C146.47 405.23 171.197 416.689 197.064 424.945C227.831 434.861 239.103 440.413 250.11 451.386C255.896 456.795 261.219 462.677 266.024 468.969C276.166 484.97 289.757 498.518 305.808 508.629C321.191 517.486 338.298 520.527 391.477 523.171C455.795 526.608 485.5 531.896 513.084 545.249C534.17 555.296 544.646 565.079 564.936 592.576C579.742 615.502 601.075 633.501 626.204 644.267C641.396 651.358 655.469 660.622 667.977 671.765C684.687 687.1 691.185 698.205 700.335 729.008C706.138 752.416 714.824 775.017 726.195 796.298L729.113 800H799L788.656 797.885C779.262 796.374 770.321 792.803 762.478 787.431C754.635 782.058 748.085 775.018 743.302 766.818C736.012 752.861 730.573 738.018 727.123 722.663C710.944 667.006 696.887 651.538 640.659 628.271C632.039 624.701 620.767 619.414 615.595 616.505C600.423 606.726 587.165 594.272 576.474 579.753C563.993 561.781 546.85 547.524 526.876 538.506C499.292 526.211 467.332 519.998 404.34 514.842C345.46 510.215 328.618 506.382 310.847 494.087C299.151 485.367 288.979 474.78 280.744 462.755C273.596 451.765 264.628 442.064 254.221 434.067C243.48 426.135 233.666 422.17 199.85 411.593C154.496 397.448 131.023 385.153 108.611 363.472C91.413 347.356 79.0208 326.813 72.805 304.114C68.624 285.106 58.3338 267.978 43.4974 255.332C30.361 243.767 16.3014 233.289 1.45856 224C0.397648 224 0 227.834 0 237.22L0.795652 236.03Z" fill="white"/>
</g>
<defs>
<clipPath id="clip0_207:3294">
<rect width="1060" height="416" rx="16" fill="white"/>
</clipPath>
</defs>
</svg>
