<svg width="194" height="112" viewBox="0 0 194 112" fill="none" xmlns="http://www.w3.org/2000/svg">
<g clip-path="url(#clip0_124:2989)">
<path d="M519.946 217.464C519.528 216.71 519.284 215.873 519.233 215.014C519.45 213.981 519.421 214.119 513.833 216.326C503.403 220.524 491.82 220.943 481.099 217.511C459.16 211.974 441.919 199.874 419.6 174.128C402.408 154.561 392.659 147.699 382.732 148.564C377.435 149.035 373.031 152.137 362.591 162.672C354.866 170.998 345.652 177.817 335.417 182.781C323.381 188.245 312.988 196.745 305.267 207.442C303.416 210.073 298.564 218.402 294.163 225.962C280.37 251.106 276.74 256.024 267.386 262.761C258.032 269.498 248.321 271.055 224.595 267.156C200.868 263.258 193.705 263.337 185.336 266.757C180.858 268.562 177.005 271.625 174.246 275.574C170.048 280.874 167.204 287.11 165.957 293.75C162.302 308.08 162.307 318.721 165.958 350.185C170.423 388.434 170.617 391.638 169.762 400.877C169.708 407.102 167.526 413.119 163.576 417.937C159.626 422.754 154.143 426.084 148.033 427.376C128.066 434.115 120.1 439.058 112.228 449.053C105.034 459.31 99.8711 470.841 97.0151 483.03C93.3403 497.475 91.0884 512.244 90.2913 527.128L88.6335 544.322L88.229 546.25L91.8937 547.019C93.9681 547.454 95.835 547.846 96.1033 547.255C96.7972 543.979 97.206 540.649 97.3249 537.302C97.975 525.875 99.513 514.516 101.925 503.328C104.302 488.586 109.884 474.544 118.28 462.185C126.322 451.722 133.778 448.182 159.109 442.712C172.947 439.72 179.015 434.882 182.505 423.752C185.042 415.441 184.134 401.878 179.376 376.725C174.628 356.693 172.486 336.141 173.002 315.573C174.923 291.964 186.003 279.407 204.971 279.144C213.13 279.683 221.235 280.855 229.213 282.648C250.087 286.379 255.887 286.949 264.667 285.699C271.265 284.913 277.519 282.347 282.755 278.279C293.265 270.85 298.494 262.097 306.321 239.583C316.708 209.339 322.527 201.213 342.805 188.86C350.958 184.185 358.499 178.522 365.255 172.002C374.191 163.811 377.913 161.213 382.218 159.96C391.815 157.228 401.122 162.415 417.971 179.825C437.951 200.552 450.71 210.273 467.77 217.734C478.724 221.932 490.279 224.356 501.997 224.914C508.486 224.663 514.807 222.802 520.386 219.498C520.263 218.713 520.007 217.954 519.63 217.254L519.946 217.464Z" fill="#474747"/>
<path d="M514.944 237.544C505.447 238.545 495.84 237.531 486.758 234.569C463.448 227.417 441.857 215.571 423.328 199.769C408.894 188.573 405.635 186.599 398.543 185.04C389.23 183.086 384.126 185.097 369.677 195.607C347.909 211.819 342.854 218.066 337.653 234.959C334.694 246.488 332.687 258.239 331.651 270.097C330.786 281.044 327.381 291.635 321.702 301.04C313.494 312.358 299.866 317.237 277.963 316.583C265.575 316.075 253.248 314.544 241.11 312.005C221.663 308.57 217.104 308.33 209.735 310.152C199.816 312.8 193.799 321.569 192.524 335.201C191.249 348.833 192.565 360.071 198.549 388.195C204.534 416.318 205.466 423.893 203.565 434.672C203.224 440.584 201.01 446.233 197.243 450.809C193.475 455.386 188.346 458.655 182.591 460.149C176.771 461.47 170.885 462.483 164.956 463.185C157.553 464.139 149.65 465.419 147.143 466.04C141.262 467.53 135.775 470.265 131.056 474.057C123.105 482.486 117.208 492.623 113.82 503.686C110.241 515.57 107.688 527.738 106.19 540.059L105.017 549.772L112.054 551.248L115.74 533.679C116.999 525.581 119.147 517.647 122.144 510.018C125.661 499.676 132.2 490.621 140.925 484.009C147.866 479.482 155.868 476.817 164.155 476.272C174.077 475.246 183.866 473.219 193.371 470.22C197.476 468.71 201.212 466.353 204.334 463.304C207.456 460.255 209.894 456.582 211.488 452.526C213.767 447.186 214.97 441.45 215.03 435.644C215.588 425.085 214.613 417.716 208.618 385.865C204.663 364.544 204.301 354.939 207.076 343.77C207.363 341.043 208.244 338.412 209.658 336.061C211.071 333.709 212.984 331.694 215.262 330.155C221.143 326.158 230.702 325.226 246.374 327.081C264.747 329.366 283.253 330.4 301.762 330.173C324.953 328.805 336.116 319.54 340.694 297.716C341.573 293.53 342.676 285.522 343.221 279.832L344.811 261.609C345.664 251.083 347.84 240.708 351.29 230.727C356.846 218.698 365.912 208.617 377.31 201.794C383.001 196.854 390.3 194.135 397.859 194.139C405.031 194.282 410.484 196.788 428.295 209.05C447.131 222.546 467.978 233.013 490.07 240.064C497.531 242.395 505.311 243.543 513.125 243.467C515.31 243.353 515.393 243.299 515.969 240.553C516.545 237.808 516.545 237.808 515.148 237.945L514.944 237.544Z" fill="#474747"/>
<path d="M508.127 271.065C507.367 270.906 504.073 269.425 500.598 268.121C497.122 266.817 490.603 263.869 485.96 261.602C481.317 259.335 472.266 254.707 465.681 251.386C454.385 245.281 442.327 240.698 429.824 237.758C418.016 235.281 411.506 236.071 405.463 240.478C401.727 243.23 398.753 246.882 396.819 251.092C394.157 256.31 392.481 261.973 391.873 267.798C388.842 282.247 388.578 285.568 388.697 314.902C388.816 344.235 388.182 353.441 385.59 362.02C380.701 378.45 372.372 384.82 356.13 384.574C353.543 384.534 344.381 383.187 334.626 381.572C322.118 378.555 309.191 377.665 296.391 378.938C290.353 379.194 284.479 380.956 279.305 384.063C274.132 387.169 269.825 391.521 266.779 396.719C262.172 404.589 261.105 407.957 255.45 434.57C253.613 445.046 251.06 455.382 247.807 465.508C242.652 479.466 233.993 491.87 222.658 501.537C219.965 504.062 209.494 511.706 199.388 518.638C175.976 534.702 166.048 543.538 156.66 557.013L154.419 560.135L164.225 562.192L167.77 558.698C178.209 548.46 192.237 535.886 202.842 527.264C215.839 517.445 227.59 506.089 237.837 493.444C249.113 479.215 253.48 468.71 261.106 438.199C263.34 427.356 266.811 416.805 271.452 406.751C274.511 400.656 279.233 395.546 285.076 392.007C290.919 388.469 297.646 386.644 304.487 386.743C316.351 386.386 328.2 387.878 339.607 391.165C360.738 395.598 365.107 396.083 372.135 394.54C376.995 393.142 381.402 390.501 384.917 386.877C390.797 379.033 394.288 369.667 394.975 359.894C396.393 347.55 396.76 335.107 396.073 322.699C395.49 291.113 395.653 288.273 398.742 273.549C399.286 267.366 401.109 261.365 404.097 255.923C405.79 252.4 408.357 249.366 411.555 247.108C414.754 244.85 418.478 243.443 422.376 243.02C427.126 242.78 431.882 243.365 436.433 244.748C449.899 247.573 456.062 250.158 479.545 262.627C488.339 267.466 497.495 271.62 506.93 275.053C508.518 275.386 508.656 275.415 509.031 273.626C509.407 271.837 509.436 271.699 508.153 271.286L508.127 271.065Z" fill="#474747"/>
<path d="M499.842 297.329C494.196 294.639 485.834 290.447 477.598 285.995C469.549 281.072 460.708 277.568 451.466 275.638C448.16 274.872 444.71 275.016 441.486 276.053C438.824 276.813 436.352 278.117 434.229 279.881C432.106 281.646 430.378 283.832 429.156 286.301C426.917 290.661 425.464 295.379 424.859 300.241C422.18 313.015 422.102 315.795 422.44 346.194C423.373 359.659 422.646 373.183 420.275 386.464C419.051 395.463 416.222 404.168 411.921 412.172C399.905 435.032 382.068 439.177 346.956 427.223C336.362 423.302 325.243 420.97 313.966 420.303C308.526 420.458 303.224 422.014 298.578 424.818C290.221 430.235 285.976 437.733 275.842 464.358C271.94 475.768 267.197 486.875 261.651 497.588C255.868 508.636 239.985 542.013 237.368 548.634C236.293 551.348 234.225 557.08 232.833 561.305C231.699 566.034 229.587 570.474 226.632 574.344C225.949 574.846 227.165 575.244 233.805 576.637C236.612 577.569 239.574 577.947 242.525 577.75C244.065 573.317 245.305 568.787 246.236 564.189C252.155 541.35 259.768 518.982 269.011 497.268C271.817 491.117 276.238 480.716 278.854 474.095C282.171 464.592 286.277 455.381 291.129 446.557C298.028 434.669 304.756 430.129 316.373 429.483C326.398 430.065 336.283 432.138 345.697 435.634C368.512 443.216 381.344 444.69 393.802 441.065C404.649 437.891 411.847 430.081 419.84 412.973C422.391 407.07 424.155 400.86 425.087 394.5C428.282 380.207 429.32 365.516 428.166 350.908C427.785 324.157 428.727 313.815 430.83 303.788C434.985 288.456 442.544 282.37 455.25 284.103C464.66 286.155 473.667 289.74 481.906 294.714C489.165 298.316 496.15 301.502 497.381 301.832C498.611 302.161 499.525 302.281 500.179 300.196C500.833 298.11 500.654 297.93 499.205 297.267L499.842 297.329Z" fill="#474747"/>
<path d="M534.402 119.032L535.501 112.082L533.775 115.167C530.05 122.673 526.817 130.414 524.098 138.34C523.211 141.286 522.058 144.144 520.653 146.881C520.939 145.206 521.426 143.573 522.105 142.015C525.472 131.727 529.571 121.693 534.37 111.988C536.956 106.858 538.05 103.354 536.939 104.198C533.069 110.364 529.82 116.898 527.24 123.705L520.872 141.039C517.294 153.316 511.61 164.879 504.071 175.212C500.798 179.681 496.388 183.193 491.298 185.386C485.94 187.866 479.875 188.374 474.176 186.821C466.845 185.453 460.078 181.961 454.718 176.779C445.062 169.009 439.701 162.355 421.883 135.927C406.666 113.204 398.826 106.03 387.505 103.799C381.515 102.542 370.664 103.21 371.575 104.694C373.201 104.919 374.852 104.903 376.474 104.644C380.197 104.237 383.963 104.516 387.586 105.468C391.233 106.063 394.654 107.624 397.493 109.987C405.005 115.297 412.198 123.842 424.675 142.832C445.103 173.613 459.278 186.568 475.574 189.412C481.45 190.66 487.575 189.867 492.937 187.166C502.303 182.955 509.508 173.624 516.883 156.286C517.763 154.034 518.821 151.855 520.047 149.769C517.625 156.545 514.705 163.133 511.312 169.479C509.03 174.271 505.821 178.564 501.869 182.111C497.918 185.657 493.302 188.386 488.288 190.14C483.583 191.484 478.608 191.579 473.854 190.415C458.568 187.209 445.293 175.448 427.131 148.947C421.454 140.14 415.29 131.655 408.669 123.533C402.995 115.564 394.458 110.094 384.843 108.267C378.443 107.898 372.031 108.72 365.932 110.69C357.582 114.243 350.538 120.29 345.768 128.002C339.565 137.244 330.96 144.624 320.875 149.348C314.632 151.696 308.141 153.321 301.528 154.194C279.437 157.823 259.011 168.185 243.046 183.86C236.294 190.631 228.921 196.753 221.024 202.147C212.231 206.731 202.482 209.187 192.563 209.317C166.287 211.56 154.221 218.363 143.619 237.035C134.279 253.458 129.9 270.562 127.591 299.734C124.873 334.276 120.548 347.012 107.523 359.072C102.792 363.465 89.9294 374.41 89.5163 374.323C89.1031 374.236 89.5164 374.323 96.7226 366.356C103.196 359.897 108.938 352.746 113.847 345.032C119.139 335.228 121.745 321.772 123.623 296.029C124.037 283.296 125.73 270.637 128.675 258.242C135.548 230.962 146.44 212.279 160.689 203.636C168.164 199.614 176.164 196.652 184.459 194.835C189.706 193.455 194.864 191.755 199.903 189.746C207.856 186.1 214.687 179.922 226.145 165.738C229.844 161.129 234.849 155.429 237.245 152.916C245.837 144.596 256.22 138.35 267.601 134.655C275.963 132.915 284.454 131.862 292.989 131.507C297.049 131.226 301.084 130.657 305.063 129.803C314.593 127.207 321.993 120.717 333.521 104.825C337.881 97.9302 343.602 91.996 350.334 87.3849C359.501 81.7814 369.786 78.2526 380.466 77.0467C390.082 76.9819 399.4 80.39 406.703 86.6435C414.099 92.5034 419.228 98.8929 430.955 117.007C445.77 139.933 450.037 145.639 457.14 151.868C460.947 155.537 465.771 157.975 470.984 158.865C480.3 160.029 487.251 154.307 494.172 139.818C499.257 128.281 503.395 116.349 506.544 104.141C509.944 91.4607 514.277 79.0495 519.509 67.0085C522.388 61.5089 522.428 61.6608 518.71 60.8808C516.231 60.3609 515.405 60.1876 514.968 61.2447C510.664 71.8877 506.944 82.7572 503.824 93.8048C492.926 128.283 488.001 138.739 479.847 144.711C471.693 150.684 462.647 147.207 452.081 134.866C449.828 132.239 442.979 122.401 436.966 113.026C424.151 93.2474 418.068 85.5807 408.931 78.4222C403.124 73.1906 396.154 69.4148 388.598 67.4072C385.027 66.2439 381.261 65.7958 377.517 66.0881C364.224 67.0047 351.561 72.0876 341.332 80.6134C337.077 85.0253 333.116 89.7116 329.476 94.6417C317.563 110.31 312.524 115.141 304.632 118.152C296.742 120.781 288.412 121.839 280.113 121.267C272.48 120.8 264.823 121.621 257.464 123.696C243.403 128.691 231.341 138.102 223.084 150.52C209.717 168.324 205.438 172.955 197.917 177.625C190.521 181.79 182.605 184.959 174.376 187.048C162.886 190.067 152.65 196.641 145.133 205.83C137.42 216.524 131.504 228.405 127.619 241.003C123.142 256.062 120.14 271.52 118.655 287.16C117.874 296.121 116.488 305.018 114.506 313.791C109.788 336.282 109.774 336.351 80.9097 364.978C72.4171 374.78 64.5792 385.129 57.4465 395.959C50.4316 406.897 45.7534 419.165 43.705 431.995C42.8971 435.846 42.1212 446.742 41.4416 456.149C39.6626 483.134 37.8847 491.952 30.6495 507.596C27.8052 515.94 22.9452 523.454 16.4998 529.472L14.2945 530.733L24.6225 532.9C37.085 535.514 36.1289 535.96 40.0144 526.004C46.7722 506.784 51.473 486.902 54.0383 466.69C55.3218 455.02 57.7379 443.503 61.2523 432.301C67.033 418.744 75.141 406.302 85.2103 395.536C92.547 388.013 100.281 380.886 108.378 374.187C113.277 370.16 117.836 365.737 122.007 360.961C127.819 352.071 131.296 341.861 132.117 331.272C133.203 322.668 133.404 320.34 134.451 300.957C135.933 274.7 139.632 259.463 148.187 244.384C150.886 238.943 154.681 234.12 159.335 230.215C163.988 226.31 169.4 223.409 175.231 221.693C183.233 219.633 191.485 218.706 199.746 218.938C207.309 219.24 214.875 218.407 222.189 216.465C231.167 212.192 239.276 206.298 246.107 199.079C252.959 192.149 260.353 185.776 268.219 180.022C280.745 170.221 295.377 163.459 310.965 160.266C329.58 155.483 337.3 150.209 350.421 133.574C354.451 127.111 360.071 121.788 366.747 118.114C372.326 115.485 378.615 114.761 384.647 116.053C388.315 116.312 391.852 117.524 394.908 119.569C402.825 124.318 408.904 130.978 422.294 149.728C430.533 162.882 440.73 174.707 452.533 184.794C473.299 201.285 495.312 200.517 509.354 182.926C515.593 175.116 519.947 166.695 528.249 144.597C531.46 136.522 533.552 128.046 534.467 119.405L534.402 119.032Z" fill="#474747"/>
<path d="M490.799 55.5164C488.531 54.8606 486.216 54.3751 483.876 54.0642L477.507 52.7281L474.765 56.1496C467.028 65.8155 459.398 64.2853 440.023 49.4929L432.243 43.5134L421.72 41.306L434.486 52.1175C441.838 59.258 450.036 65.5218 458.905 70.7729C460.617 71.6662 462.494 72.2105 464.422 72.3724C466.35 72.5342 468.286 72.3102 470.112 71.7139C471.937 71.1175 473.613 70.1616 475.035 68.9055C476.457 67.6493 477.596 66.1195 478.381 64.4107C480.666 60.7531 480.69 61.6697 478.431 65.8937C471.976 77.3711 464.28 78.9123 452.586 70.9198C450.374 69.4041 444.419 64.719 439.445 60.5203C434.471 56.3217 426.333 49.6361 421.607 45.9802L412.999 39.1259L388.007 33.8832L395.86 38.8262C414.026 49.8352 430.554 63.238 444.966 78.6469C455.239 88.9356 459.523 92.2885 464.036 93.5157C465.691 94.1501 467.488 94.3325 469.232 94.0428C470.975 93.7532 472.597 93.0026 473.921 91.873C480.378 85.6178 484.949 77.7563 487.149 69.1249C490.619 59.4753 491.588 55.5418 490.828 55.0317L490.799 55.5164Z" fill="#474747"/>
<path d="M336.627 24.6076C321.741 21.485 321.603 21.456 320.144 22.5846C313.604 28.6782 307.705 35.422 302.539 42.7113C296.982 49.6528 290.813 57.1117 288.723 59.1844C284.93 63.0877 280.335 66.1271 275.253 68.0948C270.171 70.0625 264.723 70.9119 259.279 70.5854C245.688 70.0107 232.277 73.8133 221.03 81.4308C210.874 88.3405 206.864 93.741 195.484 115.747C182.531 140.796 177.82 145.762 160.018 153.794C155.151 156.074 148.603 159.507 145.466 161.432C128.799 172.285 123.388 182.988 102.649 246.867C92.4569 278.306 89.5649 285.233 83.2514 293.379C78.2794 299.525 72.3098 304.796 65.5903 308.974C54.7148 315.623 45.7103 324.916 39.4189 335.984C33.245 345.501 26.1949 354.422 18.36 362.632C13.1233 367.802 7.33659 372.386 1.10256 376.303C-6.95255 380.912 -14.1442 386.88 -20.153 393.942C-25.7967 401.296 -27.5318 405.452 -32.1502 423.352C-38.5435 448.341 -43.7639 457.793 -55.5344 466.229C-65.2329 473.019 -73.6097 475.567 -95.4247 478.381C-100.477 478.841 -105.479 479.736 -110.376 481.056C-112.015 484.74 -113.101 488.646 -113.599 492.648L-115.862 503.437L-109.66 504.738C-103.595 506.011 -103.25 506.083 -88.6392 504.341C-78.2152 504.015 -67.9545 501.685 -58.4203 497.479C-44.653 491.633 -32.9509 481.822 -24.8095 469.302C-20.5072 462.169 -18.1202 454.563 -13.3837 432.67C-12.2336 424.344 -10.0177 416.201 -6.78998 408.439C-1.8137 399.492 4.87572 391.609 12.8991 385.235C24.6967 374.641 35.4408 362.935 44.9818 350.281C51.308 341.139 59.0729 333.077 67.9771 326.406C75.5201 321.6 82.3762 315.798 88.3594 309.158C95.3684 300.44 98.1224 293.485 104.812 267.768C109.797 246.314 116.607 225.325 125.168 205.028C133.058 187.312 138.926 179.575 150.118 172.524C156.927 168.566 164.1 165.266 171.539 162.668C185.938 156.793 191.946 150.448 205.55 126.756C209.082 119.242 213.739 112.308 219.361 106.192C227.293 98.3148 237.378 92.9445 248.357 90.7508C253.401 90.1155 258.484 89.8392 263.568 89.9238C269.174 89.9519 275.251 89.7918 277.159 89.6179C290.744 88.3066 297.797 82.4679 312.56 60.4538C318.143 50.6572 325.811 42.2011 335.024 35.6789C339.645 32.6118 344.636 30.1394 349.878 28.3201C350.89 27.9583 347.969 27.1304 336.254 24.6727L336.627 24.6076Z" fill="#474747"/>
<path d="M292.638 13.8888L286.112 12.5199L277.679 18.5306C269.13 25.5233 258.859 30.0645 247.956 31.6722C229.751 34.6963 217.077 42.1223 198.807 60.8362C188.818 71.2372 180.165 82.8529 173.051 95.4115C164.541 110.338 160.426 115.597 153.523 120.128C150.08 122.549 146.443 124.677 142.649 126.491C133.228 130.024 124.704 135.618 117.699 142.867C111.417 149.905 107.97 158.474 100.792 185.854C91.9866 218.943 85.9965 233.821 76.0478 246.717C68.5257 256.593 62.2989 260.977 45.7958 268.536C32.2671 273.74 20.5863 282.878 12.2491 294.778C6.90631 301.909 0.556687 308.221 -6.59878 313.515C-16.3911 320.537 -22.8706 322.707 -39.8753 324.11C-52.6718 324.578 -65.3644 326.633 -77.6636 330.23L-79.9054 331.344L-87.533 367.705L-85.3051 362.554C-83.4945 357.831 -80.6631 353.569 -77.0156 350.074C-73.368 346.579 -68.995 343.939 -64.2117 342.344C-56.1635 340.072 -47.8573 338.86 -39.5017 338.739C-8.81524 336.388 0.75635 330.761 18.9836 304.042C21.7791 299.947 25.7571 294.658 27.8328 292.285C34.5702 285.457 42.4886 279.917 51.1998 275.937C61.901 271.402 71.18 264.037 78.0461 254.628C87.4453 241.617 94.162 225.666 103.716 193.454C112.547 163.324 116.377 154.98 124.705 147.074C130.513 141.939 137.124 137.801 144.271 134.827C150.763 132.306 156.782 128.698 162.073 124.155C167.367 119.431 170.499 114.757 179.685 98.316C191.986 76.261 200.936 65.3887 214.649 56.0916C224.9 48.9005 236.927 44.6923 249.4 43.9326C259.734 43.8293 269.757 40.3425 277.948 34.0019C285.391 28.4278 292.37 22.255 298.817 15.5451C298.932 14.9931 296.984 14.3683 292.106 13.3452L292.638 13.8888Z" fill="#474747"/>
<path d="M222.619 0.739749L218.782 5.72551C216.71 8.4365 212.272 14.583 208.737 19.4894C197.524 36.1336 184.043 51.1352 168.684 64.0616L151.11 79.6058C141.755 89.205 130.102 96.2586 117.253 100.099C100.189 106.385 94.3625 109.595 89.3404 116.477C83.2339 124.776 81.0016 133.029 77.8274 160.102C73.5112 196.371 68.3584 210.017 55.4057 218.882C47.143 224.222 37.4383 226.902 27.6006 226.56C21.1977 226.719 11.7245 226.161 -12.6013 224.418C-19.2861 223.874 -27.2913 223.482 -30.4369 223.465C-39.3156 223.635 -48.1737 224.38 -56.9556 225.695C-57.5216 226.005 -58.2987 228.344 -59.4622 233.891C-60.6258 239.437 -61.0854 241.628 -60.2307 241.307C-56.6741 240.619 -53.0698 240.204 -49.4496 240.066C-43.9921 239.638 -34.9203 239.039 -29.8742 238.525C-24.8281 238.01 -15.8536 237.534 -10.4679 237.448C9.4692 236.912 31.6242 235.697 37.3193 234.819C44.9153 233.859 52.1606 231.06 58.4251 226.664C61.9067 224.38 64.9408 221.479 67.3776 218.104C75.7471 207.206 79.3755 195.028 83.9599 163.962C87.4043 140.377 90.5937 129.608 96.5964 122.145C98.9443 119.566 101.631 117.316 104.584 115.457C112.075 110.771 120.079 106.957 128.439 104.09C136.678 100.75 144.078 95.639 150.116 89.1199C157.287 81.545 169.31 69.2685 180.399 58.369C191.149 48.0324 201.037 36.8372 209.966 24.8943C215.554 17.7022 222.083 9.77813 224.605 7.30475C227.128 4.83137 229.031 2.58512 229.059 2.44817C228.095 1.88476 227.021 1.53739 225.909 1.42998L222.619 0.739749Z" fill="#474747"/>
<path d="M205.033 -2.99738C204.347 -3.14115 203.456 -3.32804 202.977 -3.42869C201.195 -3.80249 200.989 -3.84568 200.199 -1.78547C195.824 6.73298 190.962 14.9912 185.637 22.9479C172.092 40.8694 152.683 53.428 130.83 58.4103C120.876 61.1804 110.676 62.961 100.378 63.7263C71.1597 66.5726 63.6714 68.1611 53.8995 72.7889C48.5059 75.176 43.7978 78.8889 40.2114 83.5839C36.6249 88.2788 34.2759 93.804 33.382 99.6479C31.8136 108.417 31.2632 117.337 31.7414 126.23C31.7847 131.481 31.6693 138.853 31.3989 142.53C30.2269 163.466 21.4977 172.333 2.59597 172.389C-5.94724 171.543 -14.4012 169.961 -22.6726 167.663C-33.9127 165.305 -43.2337 163.35 -43.8506 163.22C-44.4674 163.091 -45.0949 165.401 -46.1914 170.628C-47.2879 175.855 -47.6344 177.506 -46.949 177.649C-46.2636 177.793 -17.3228 183.433 -16.6555 184.004C-15.9881 184.575 -9.8739 185.786 -3.0202 187.223C2.93884 188.804 9.04847 189.748 15.207 190.042C30.4006 189.926 38.4734 184.87 43.0472 172.617C45.8974 161.883 47.093 150.778 46.5924 139.685C46.1683 128.66 47.1843 117.624 49.6147 106.859C53.2361 92.3241 59.747 85.5042 75.2579 79.7825C83.7983 77.0782 92.5612 75.1439 101.442 74.0023C124.435 70.8142 146.352 62.1964 165.391 48.8581C180.289 38.5315 192.241 24.4781 200.059 8.09382L205.527 -1.60132C205.628 -2.08276 205.714 -2.49543 204.823 -2.68233L205.033 -2.99738Z" fill="#474747"/>
</g>
<defs>
<clipPath id="clip0_124:2989">
<rect width="194" height="112" fill="white"/>
</clipPath>
</defs>
</svg>
