<svg width="24" height="24" viewBox="0 0 24 24" fill="none" xmlns="http://www.w3.org/2000/svg">
<path d="M5.1559 6.70692L8.28036 8.88544L11.3944 4.32611C11.4632 4.22525 11.5541 4.14304 11.6594 4.08631C11.7647 4.02959 11.8815 4 12 4C12.1184 4 12.2352 4.02959 12.3405 4.08631C12.4458 4.14304 12.5367 4.22525 12.6055 4.32611L15.7195 8.88544L18.844 6.70692C18.9623 6.62464 19.1006 6.57948 19.2426 6.57678C19.3846 6.57408 19.5243 6.61395 19.6454 6.69168C19.7664 6.76942 19.8636 6.88176 19.9256 7.01544C19.9875 7.14912 20.0115 7.29854 19.9949 7.44606L18.7726 18.313C18.7513 18.5022 18.6643 18.6767 18.5281 18.8034C18.392 18.93 18.2161 19 18.0339 19H5.96602C5.78381 19 5.60795 18.93 5.47178 18.8034C5.33562 18.6767 5.24863 18.5022 5.22731 18.313L4.00505 7.44528C3.98854 7.29783 4.0127 7.14851 4.0747 7.01496C4.13669 6.8814 4.23393 6.76919 4.35493 6.69156C4.47592 6.61393 4.61563 6.57413 4.75756 6.57685C4.89948 6.57957 5.0377 6.6247 5.1559 6.70692V6.70692ZM12 14.3317C12.3946 14.3317 12.773 14.1678 13.052 13.876C13.331 13.5842 13.4878 13.1884 13.4878 12.7757C13.4878 12.363 13.331 11.9672 13.052 11.6753C12.773 11.3835 12.3946 11.2196 12 11.2196C11.6054 11.2196 11.2269 11.3835 10.9479 11.6753C10.6689 11.9672 10.5121 12.363 10.5121 12.7757C10.5121 13.1884 10.6689 13.5842 10.9479 13.876C11.2269 14.1678 11.6054 14.3317 12 14.3317Z" fill="black"/>
</svg>
