<svg width="32" height="32" viewBox="0 0 32 32" fill="none" xmlns="http://www.w3.org/2000/svg">
<path d="M6.87452 8.94248L11.0405 11.8472L15.1925 5.76806C15.2843 5.63358 15.4054 5.52397 15.5459 5.44834C15.6863 5.37271 15.842 5.33325 15.9999 5.33325C16.1579 5.33325 16.3136 5.37271 16.454 5.44834C16.5944 5.52397 16.7156 5.63358 16.8073 5.76806L20.9594 11.8472L25.1253 8.94248C25.283 8.83277 25.4674 8.77256 25.6567 8.76896C25.8461 8.76536 26.0324 8.81852 26.1938 8.92216C26.3552 9.02581 26.4848 9.1756 26.5674 9.35384C26.65 9.53207 26.682 9.73131 26.6598 9.928L25.0301 24.4172C25.0017 24.6696 24.8857 24.9022 24.7042 25.0711C24.5226 25.2399 24.2881 25.3332 24.0452 25.3333H7.95469C7.71175 25.3332 7.47726 25.2399 7.29571 25.0711C7.11416 24.9022 6.99817 24.6696 6.96974 24.4172L5.34006 9.92696C5.31804 9.73036 5.35027 9.53127 5.43293 9.3532C5.51559 9.17512 5.64523 9.0255 5.80656 8.922C5.96789 8.81849 6.15417 8.76542 6.3434 8.76905C6.53264 8.77268 6.71693 8.83285 6.87452 8.94248V8.94248ZM15.9999 19.1089C16.5261 19.1089 17.0306 18.8903 17.4027 18.5012C17.7747 18.1121 17.9837 17.5844 17.9837 17.0341C17.9837 16.4839 17.7747 15.9561 17.4027 15.567C17.0306 15.1779 16.5261 14.9593 15.9999 14.9593C15.4738 14.9593 14.9692 15.1779 14.5972 15.567C14.2252 15.9561 14.0161 16.4839 14.0161 17.0341C14.0161 17.5844 14.2252 18.1121 14.5972 18.5012C14.9692 18.8903 15.4738 19.1089 15.9999 19.1089Z" fill="black"/>
</svg>
