<svg width="24" height="24" viewBox="0 0 24 24" fill="none" xmlns="http://www.w3.org/2000/svg">
<path d="M12.0001 3.375L15.1696 8.01225L20.5598 9.594L17.1286 14.0415L17.2898 19.656L12.0001 17.7675L6.71031 19.656L6.87156 14.0415L3.44031 9.594L8.83056 8.01225L12.0001 3.375ZM10.5001 12H9.00006C9.00004 12.7827 9.3059 13.5343 9.85236 14.0947C10.3988 14.655 11.1426 14.9795 11.925 14.9991C12.7075 15.0187 13.4665 14.7317 14.0403 14.1994C14.6141 13.6671 14.9572 12.9317 14.9963 12.15L15.0001 12H13.5001C13.5018 12.3892 13.3522 12.7639 13.0828 13.0449C12.8134 13.3258 12.4453 13.4911 12.0564 13.5057C11.6674 13.5203 11.288 13.3831 10.9983 13.1231C10.7086 12.8632 10.5313 12.5008 10.5038 12.1125L10.5001 12Z" fill="black"/>
</svg>
