<svg width="256" height="256" viewBox="0 0 256 256" fill="none" xmlns="http://www.w3.org/2000/svg">
<path d="M54.9962 71.5405L88.3238 94.7781L121.54 46.1452C122.274 45.0694 123.243 44.1925 124.367 43.5874C125.49 42.9824 126.736 42.6667 127.999 42.6667C129.263 42.6667 130.509 42.9824 131.632 43.5874C132.756 44.1925 133.725 45.0694 134.459 46.1452L167.675 94.7781L201.003 71.5405C202.264 70.6629 203.739 70.1812 205.254 70.1524C206.769 70.1236 208.26 70.5489 209.551 71.378C210.842 72.2072 211.879 73.4055 212.539 74.8314C213.2 76.2573 213.456 77.8512 213.278 79.4247L200.241 195.339C200.014 197.357 199.086 199.219 197.633 200.569C196.181 201.92 194.305 202.666 192.361 202.667H63.6376C61.694 202.666 59.8181 201.92 58.3657 200.569C56.9133 199.219 55.9854 197.357 55.758 195.339L42.7206 79.4164C42.5444 77.8436 42.8022 76.2509 43.4635 74.8263C44.1247 73.4017 45.1619 72.2048 46.4525 71.3767C47.7432 70.5487 49.2334 70.1241 50.7473 70.1531C52.2611 70.1821 53.7355 70.6636 54.9962 71.5405V71.5405ZM127.999 152.872C132.209 152.872 136.245 151.123 139.221 148.01C142.198 144.898 143.87 140.676 143.87 136.274C143.87 131.872 142.198 127.65 139.221 124.537C136.245 121.424 132.209 119.675 127.999 119.675C123.79 119.675 119.754 121.424 116.778 124.537C113.801 127.65 112.129 131.872 112.129 136.274C112.129 140.676 113.801 144.898 116.778 148.01C119.754 151.123 123.79 152.872 127.999 152.872Z" fill="black"/>
</svg>
